SN Pro.glyphspackage
{
color = 6;
glyphname = exclam;
kernLeft = exclam;
kernRight = exclam;
layers = (
{
background = {
shapes = (
{
closed = 1;
nodes = (
(119,162,l),
(132,705,l),
(79,705,l),
(92,162,l)
);
},
{
closed = 1;
nodes = (
(140,0,l),
(140,70,l),
(71,70,l),
(71,0,l)
);
}
);
};
layerId = "F1F93986-3ED8-4AAE-84C4-CA3EEECDDFA0";
shapes = (
{
closed = 1;
nodes = (
(114,158,o),
(120,164,o),
(120,177,cs),
(131,684,ls),
(131,701,o),
(122,711,o),
(106,711,cs),
(89,711,o),
(80,701,o),
(80,684,cs),
(91,177,ls),
(91,164,o),
(98,158,o),
(106,158,cs)
);
},
{
closed = 1;
nodes = (
(128,-3,o),
(143,13,o),
(143,35,cs),
(143,57,o),
(128,73,o),
(106,73,cs),
(84,73,o),
(68,57,o),
(68,35,cs),
(68,13,o),
(84,-3,o),
(106,-3,cs)
);
}
);
width = 211;
},
{
background = {
shapes = (
{
closed = 1;
nodes = (
(205,255,l),
(270,705,l),
(15,705,l),
(80,255,l)
);
},
{
closed = 1;
nodes = (
(248,0,l),
(248,207,l),
(37,207,l),
(37,0,l)
);
}
);
};
layerId = "4121B50C-FD42-45C5-8FBE-41E76D98F91E";
shapes = (
{
closed = 1;
nodes = (
(184,247,o),
(208,274,o),
(215,321,cs),
(252,578,ls),
(264,658,o),
(223,715,o),
(143,715,cs),
(63,715,o),
(21,658,o),
(33,578,cs),
(70,321,ls),
(77,274,o),
(102,247,o),
(143,247,cs)
);
},
{
closed = 1;
nodes = (
(213,-6,o),
(254,39,o),
(254,104,cs),
(254,169,o),
(213,213,o),
(143,213,cs),
(73,213,o),
(31,169,o),
(31,104,cs),
(31,39,o),
(73,-6,o),
(143,-6,cs)
);
}
);
width = 285;
},
{
background = {
shapes = (
{
closed = 1;
nodes = (
(107,162,l),
(206,705,l),
(153,705,l),
(80,162,l)
);
},
{
closed = 1;
nodes = (
(102,0,l),
(113,70,l),
(44,70,l),
(33,0,l)
);
}
);
};
layerId = "D8D4984A-F5A5-43C0-BF2B-5708C10C5E92";
shapes = (
{
closed = 1;
nodes = (
(103,158,o),
(109,166,o),
(110,173,cs),
(202,682,ls),
(205,701,o),
(196,711,o),
(179,711,cs),
(163,711,o),
(153,702,o),
(151,686,cs),
(82,175,ls),
(81,165,o),
(86,158,o),
(95,158,cs)
);
},
{
closed = 1;
nodes = (
(96,-3,o),
(111,13,o),
(111,35,cs),
(111,57,o),
(96,73,o),
(74,73,cs),
(52,73,o),
(36,57,o),
(36,35,cs),
(36,13,o),
(52,-3,o),
(74,-3,cs)
);
}
);
width = 211;
},
{
background = {
shapes = (
{
closed = 1;
nodes = (
(207,263,l),
(342,705,l),
(87,705,l),
(82,263,l)
);
},
{
closed = 1;
nodes = (
(209,0,l),
(242,207,l),
(31,207,l),
(-2,0,l)
);
}
);
};
layerId = "C92D7C27-2246-4784-91DF-7F4E0C5E615D";
shapes = (
{
closed = 1;
nodes = (
(187,257,o),
(212,277,o),
(225,319,cs),
(301,572,ls),
(327,658,o),
(288,715,o),
(207,715,cs),
(128,715,o),
(87,669,o),
(86,588,cs),
(82,336,ls),
(81,281,o),
(105,257,o),
(147,257,cs)
);
},
{
closed = 1;
nodes = (
(191,-6,o),
(232,39,o),
(232,104,cs),
(232,169,o),
(191,213,o),
(121,213,cs),
(51,213,o),
(9,169,o),
(9,104,cs),
(9,39,o),
(51,-6,o),
(121,-6,cs)
);
}
);
width = 285;
},
{
background = {
shapes = (
{
closed = 1;
nodes = (
(162,209,l),
(201,705,l),
(47,705,l),
(86,209,l)
);
},
{
closed = 1;
nodes = (
(194,0,l),
(194,139,l),
(54,139,l),
(54,0,l)
);
}
);
};
layerId = "18203F29-5161-4D9B-8394-C173CC5E27D4";
shapes = (
{
closed = 1;
nodes = (
(149,203,o),
(163,219,o),
(165,249,cs),
(195,631,ls),
(199,680,o),
(173,713,o),
(125,713,cs),
(76,713,o),
(49,680,o),
(53,631,cs),
(83,249,ls),
(85,219,o),
(100,203,o),
(125,203,cs)
);
},
{
closed = 1;
nodes = (
(171,-5,o),
(199,26,o),
(199,70,cs),
(199,113,o),
(171,143,o),
(125,143,cs),
(79,143,o),
(50,113,o),
(50,70,cs),
(50,26,o),
(79,-5,o),
(125,-5,cs)
);
}
);
width = 248;
},
{
background = {
shapes = (
{
closed = 1;
nodes = (
(157,213,l),
(274,705,l),
(120,705,l),
(81,213,l)
);
},
{
closed = 1;
nodes = (
(156,0,l),
(178,139,l),
(38,139,l),
(16,0,l)
);
}
);
};
layerId = "8FF16B21-C988-4EC9-A448-39B9B4A4BD78";
shapes = (
{
closed = 1;
nodes = (
(145,208,o),
(159,222,o),
(165,246,cs),
(255,625,ls),
(268,679,o),
(242,713,o),
(193,713,cs),
(146,713,o),
(119,689,o),
(115,640,cs),
(84,253,ls),
(81,220,o),
(96,208,o),
(121,208,cs)
);
},
{
closed = 1;
nodes = (
(144,-5,o),
(172,26,o),
(172,70,cs),
(172,113,o),
(144,143,o),
(98,143,cs),
(52,143,o),
(23,113,o),
(23,70,cs),
(23,26,o),
(52,-5,o),
(98,-5,cs)
);
}
);
width = 248;
}
);
unicode = 33;
}
{
color = 6;
glyphname = numbersign;
kernLeft = numbersign;
kernRight = numbersign;
layers = (
{
background = {
shapes = (
{
closed = 1;
nodes = (
(216,0,l),
(253,191,l),
(440,191,l),
(403,0,l),
(446,0,l),
(484,191,l),
(633,191,l),
(633,231,l),
(491,231,l),
(540,482,l),
(652,482,l),
(652,522,l),
(548,522,l),
(583,705,l),
(540,705,l),
(505,522,l),
(317,522,l),
(352,705,l),
(310,705,l),
(274,522,l),
(125,522,l),
(125,482,l),
(267,482,l),
(218,231,l),
(106,231,l),
(106,191,l),
(211,191,l),
(173,0,l)
);
},
{
closed = 1;
nodes = (
(309,482,l),
(497,482,l),
(448,231,l),
(260,231,l)
);
}
);
};
layerId = "F1F93986-3ED8-4AAE-84C4-CA3EEECDDFA0";
shapes = (
{
closed = 1;
nodes = (
(78,475,o),
(86,466,o),
(96,466,cs),
(684,465,ls),
(694,465,o),
(703,475,o),
(703,486,cs),
(703,499,o),
(695,505,o),
(685,505,cs),
(96,505,ls),
(86,505,o),
(78,498,o),
(78,486,cs)
);
},
{
closed = 1;
nodes = (
(557,676,o),
(547,669,o),
(545,658,cs),
(419,16,ls),
(417,5,o),
(425,-6,o),
(436,-9,cs),
(448,-11,o),
(456,-3,o),
(458,7,cs),
(583,650,ls),
(585,661,o),
(580,671,o),
(568,674,cs)
);
},
{
closed = 1;
nodes = (
(52,184,o),
(60,175,o),
(70,175,cs),
(658,174,ls),
(668,174,o),
(677,184,o),
(677,195,cs),
(677,208,o),
(669,214,o),
(659,214,cs),
(70,214,ls),
(60,214,o),
(52,207,o),
(52,195,cs)
);
},
{
closed = 1;
nodes = (
(301,677,o),
(291,670,o),
(289,659,cs),
(163,17,ls),
(161,6,o),
(169,-5,o),
(180,-8,cs),
(192,-10,o),
(200,-2,o),
(202,8,cs),
(327,651,ls),
(329,662,o),
(324,672,o),
(312,675,cs)
);
}
);
width = 754;
},
{
background = {
shapes = (
{
closed = 1;
nodes = (
(303,0,l),
(332,152,l),
(396,152,l),
(367,0,l),
(498,0,l),
(527,152,l),
(620,152,l),
(620,273,l),
(550,273,l),
(583,440,l),
(643,440,l),
(643,561,l),
(607,561,l),
(635,705,l),
(504,705,l),
(475,561,l),
(411,561,l),
(440,705,l),
(309,705,l),
(280,561,l),
(188,561,l),
(188,440,l),
(257,440,l),
(224,273,l),
(165,273,l),
(165,152,l),
(201,152,l),
(172,0,l)
);
},
{
closed = 1;
nodes = (
(388,440,l),
(452,440,l),
(420,273,l),
(356,273,l)
);
}
);
};
layerId = "4121B50C-FD42-45C5-8FBE-41E76D98F91E";
shapes = (
{
closed = 1;
nodes = (
(100,423,o),
(142,395,o),
(195,395,cs),
(661,395,ls),
(713,395,o),
(756,423,o),
(756,478,cs),
(756,544,o),
(712,561,o),
(659,561,cs),
(195,561,ls),
(142,561,o),
(100,539,o),
(100,478,cs)
);
},
{
closed = 1;
nodes = (
(553,685,o),
(517,646,o),
(507,591,cs),
(412,105,ls),
(402,51,o),
(420,0,o),
(474,-10,cs),
(539,-23,o),
(565,20,o),
(576,75,cs),
(670,559,ls),
(680,614,o),
(667,663,o),
(607,674,cs)
);
},
{
closed = 1;
nodes = (
(50,147,o),
(92,119,o),
(145,119,cs),
(611,119,ls),
(663,119,o),
(706,147,o),
(706,202,cs),
(706,268,o),
(662,285,o),
(609,285,cs),
(145,285,ls),
(92,285,o),
(50,263,o),
(50,202,cs)
);
},
{
closed = 1;
nodes = (
(266,686,o),
(230,647,o),
(220,592,cs),
(125,106,ls),
(115,52,o),
(133,1,o),
(187,-9,cs),
(252,-22,o),
(278,21,o),
(289,76,cs),
(383,560,ls),
(393,615,o),
(380,664,o),
(320,675,cs)
);
}
);
width = 806;
},
{
background = {
shapes = (
{
closed = 1;
nodes = (
(130,0,l),
(198,191,l),
(385,191,l),
(317,0,l),
(360,0,l),
(429,191,l),
(578,191,l),
(584,231,l),
(442,231,l),
(531,482,l),
(643,482,l),
(649,522,l),
(545,522,l),
(609,705,l),
(566,705,l),
(502,522,l),
(314,522,l),
(378,705,l),
(336,705,l),
(271,522,l),
(122,522,l),
(116,482,l),
(258,482,l),
(169,231,l),
(57,231,l),
(51,191,l),
(156,191,l),
(87,0,l)
);
},
{
closed = 1;
nodes = (
(300,482,l),
(488,482,l),
(399,231,l),
(211,231,l)
);
}
);
};
layerId = "D8D4984A-F5A5-43C0-BF2B-5708C10C5E92";
shapes = (
{
closed = 1;
nodes = (
(113,494,o),
(120,484,o),
(129,484,cs),
(662,483,ls),
(671,483,o),
(679,494,o),
(679,505,cs),
(679,518,o),
(672,525,o),
(663,525,cs),
(129,525,ls),
(120,525,o),
(113,517,o),
(113,505,cs)
);
},
{
closed = 1;
nodes = (
(566,681,o),
(553,676,o),
(550,665,cs),
(327,21,ls),
(323,10,o),
(331,-3,o),
(341,-7,cs),
(354,-11,o),
(364,-5,o),
(368,6,cs),
(590,651,ls),
(594,662,o),
(589,674,o),
(577,678,cs)
);
},
{
closed = 1;
nodes = (
(25,201,o),
(32,191,o),
(41,191,cs),
(568,190,ls),
(577,190,o),
(585,201,o),
(585,212,cs),
(585,225,o),
(578,232,o),
(569,232,cs),
(41,232,ls),
(32,232,o),
(25,224,o),
(25,212,cs)
);
},
{
closed = 1;
nodes = (
(337,683,o),
(324,678,o),
(321,667,cs),
(98,23,ls),
(94,12,o),
(102,-1,o),
(112,-5,cs),
(125,-9,o),
(135,-3,o),
(139,8,cs),
(361,653,ls),
(365,664,o),
(360,676,o),
(348,680,cs)
);
}
);
width = 668;
},
{
background = {
shapes = (
{
closed = 1;
nodes = (
(193,0,l),
(247,152,l),
(313,152,l),
(259,0,l),
(388,0,l),
(442,152,l),
(535,152,l),
(554,273,l),
(486,273,l),
(545,440,l),
(604,440,l),
(623,561,l),
(589,561,l),
(640,705,l),
(509,705,l),
(458,561,l),
(392,561,l),
(443,705,l),
(314,705,l),
(263,561,l),
(168,561,l),
(149,440,l),
(219,440,l),
(160,273,l),
(99,273,l),
(80,152,l),
(116,152,l),
(62,0,l)
);
},
{
closed = 1;
nodes = (
(349,440,l),
(415,440,l),
(356,273,l),
(290,273,l)
);
}
);
};
layerId = "C92D7C27-2246-4784-91DF-7F4E0C5E615D";
shapes = (
{
closed = 1;
nodes = (
(110,452,o),
(147,424,o),
(192,424,cs),
(597,424,ls),
(642,424,o),
(678,452,o),
(678,507,cs),
(678,573,o),
(642,590,o),
(596,590,cs),
(192,590,ls),
(147,590,o),
(110,568,o),
(110,507,cs)
);
},
{
closed = 1;
nodes = (
(533,698,o),
(490,662,o),
(471,607,cs),
(300,112,ls),
(281,57,o),
(294,4,o),
(349,-15,cs),
(415,-37,o),
(447,1,o),
(466,57,cs),
(636,550,ls),
(655,606,o),
(649,658,o),
(588,679,cs)
);
},
{
closed = 1;
nodes = (
(24,146,o),
(60,118,o),
(106,118,cs),
(506,118,ls),
(550,118,o),
(586,146,o),
(586,201,cs),
(586,267,o),
(550,284,o),
(504,284,cs),
(106,284,ls),
(60,284,o),
(24,262,o),
(24,201,cs)
);
},
{
closed = 1;
nodes = (
(285,700,o),
(242,664,o),
(223,609,cs),
(52,114,ls),
(33,59,o),
(46,6,o),
(101,-13,cs),
(167,-35,o),
(199,3,o),
(218,59,cs),
(388,552,ls),
(407,608,o),
(401,660,o),
(340,681,cs)
);
}
);
width = 668;
},
{
background = {
shapes = (
{
closed = 1;
nodes = (
(168,0,l),
(202,172,l),
(328,172,l),
(294,0,l),
(381,0,l),
(415,172,l),
(535,172,l),
(535,252,l),
(429,252,l),
(470,461,l),
(556,461,l),
(556,541,l),
(485,541,l),
(518,705,l),
(431,705,l),
(398,541,l),
(272,541,l),
(305,705,l),
(218,705,l),
(185,541,l),
(65,541,l),
(65,461,l),
(171,461,l),
(130,252,l),
(44,252,l),
(44,172,l),
(115,172,l),
(81,0,l)
);
},
{
closed = 1;
nodes = (
(258,461,l),
(383,461,l),
(342,252,l),
(217,252,l)
);
}
);
};
layerId = "18203F29-5161-4D9B-8394-C173CC5E27D4";
shapes = (
{
closed = 1;
nodes = (
(78,451,o),
(102,429,o),
(133,429,cs),
(663,429,ls),
(694,429,o),
(718,451,o),
(718,484,cs),
(718,523,o),
(693,538,o),
(662,538,cs),
(133,538,ls),
(102,538,o),
(78,520,o),
(78,484,cs)
);
},
{
closed = 1;
nodes = (
(531,684,o),
(504,662,o),
(498,629,cs),
(388,62,ls),
(382,29,o),
(398,0,o),
(431,-7,cs),
(469,-14,o),
(489,10,o),
(495,42,cs),
(605,608,ls),
(611,641,o),
(599,671,o),
(564,678,cs)
);
},
{
closed = 1;
nodes = (
(30,164,o),
(54,142,o),
(85,142,cs),
(615,142,ls),
(646,142,o),
(670,164,o),
(670,197,cs),
(670,236,o),
(645,251,o),
(614,251,cs),
(85,251,ls),
(54,251,o),
(30,233,o),
(30,197,cs)
);
},
{
closed = 1;
nodes = (
(285,684,o),
(258,662,o),
(252,629,cs),
(142,62,ls),
(136,29,o),
(152,0,o),
(185,-7,cs),
(223,-14,o),
(243,10,o),
(249,42,cs),
(359,608,ls),
(365,641,o),
(353,671,o),
(318,678,cs)
);
}
);
width = 748;
},
{
background = {
shapes = (
{
closed = 1;
nodes = (
(170,0,l),
(231,172,l),
(357,172,l),
(296,0,l),
(382,0,l),
(444,172,l),
(565,172,l),
(577,252,l),
(472,252,l),
(546,461,l),
(632,461,l),
(644,542,l),
(575,542,l),
(633,705,l),
(546,705,l),
(488,542,l),
(361,542,l),
(419,705,l),
(333,705,l),
(275,542,l),
(153,542,l),
(141,461,l),
(247,461,l),
(173,252,l),
(86,252,l),
(74,172,l),
(144,172,l),
(83,0,l)
);
},
{
closed = 1;
nodes = (
(333,461,l),
(460,461,l),
(386,252,l),
(259,252,l)
);
}
);
};
layerId = "8FF16B21-C988-4EC9-A448-39B9B4A4BD78";
shapes = (
{
closed = 1;
nodes = (
(114,477,o),
(136,451,o),
(163,451,cs),
(635,451,ls),
(662,451,o),
(683,477,o),
(683,510,cs),
(683,549,o),
(661,568,o),
(634,568,cs),
(163,568,ls),
(136,568,o),
(114,546,o),
(114,510,cs)
);
},
{
closed = 1;
nodes = (
(549,693,o),
(514,675,o),
(503,642,cs),
(304,67,ls),
(293,34,o),
(310,-1,o),
(343,-12,cs),
(382,-25,o),
(410,-5,o),
(421,28,cs),
(619,602,ls),
(630,635,o),
(618,669,o),
(582,682,cs)
);
},
{
closed = 1;
nodes = (
(26,179,o),
(48,153,o),
(74,153,cs),
(540,153,ls),
(566,153,o),
(587,179,o),
(587,212,cs),
(587,251,o),
(566,270,o),
(539,270,cs),
(74,270,ls),
(48,270,o),
(26,248,o),
(26,212,cs)
);
},
{
closed = 1;
nodes = (
(325,695,o),
(290,677,o),
(279,644,cs),
(80,69,ls),
(69,36,o),
(86,1,o),
(119,-10,cs),
(158,-23,o),
(186,-3,o),
(197,30,cs),
(395,604,ls),
(406,637,o),
(394,671,o),
(358,684,cs)
);
}
);
width = 672;
}
);
unicode = 35;
}
{
color = 6;
glyphname = quotesingle;
kernLeft = quotesingle;
kernRight = quotesingle;
layers = (
{
background = {
shapes = (
{
closed = 1;
nodes = (
(116,440,l),
(127,705,l),
(75,705,l),
(88,440,l)
);
}
);
};
layerId = "F1F93986-3ED8-4AAE-84C4-CA3EEECDDFA0";
shapes = (
{
closed = 1;
nodes = (
(110,434,o),
(117,439,o),
(117,451,cs),
(126,684,ls),
(127,700,o),
(116,711,o),
(101,711,cs),
(86,711,o),
(75,699,o),
(76,684,cs),
(87,451,ls),
(88,440,o),
(94,434,o),
(102,434,cs)
);
}
);
width = 202;
},
{
background = {
shapes = (
{
closed = 1;
nodes = (
(211,389,l),
(260,705,l),
(23,705,l),
(72,389,l)
);
}
);
};
layerId = "4121B50C-FD42-45C5-8FBE-41E76D98F91E";
shapes = (
{
closed = 1;
nodes = (
(183,379,o),
(215,411,o),
(222,458,cs),
(243,596,ls),
(253,663,o),
(207,715,o),
(142,715,cs),
(76,715,o),
(31,663,o),
(41,596,cs),
(61,458,ls),
(68,410,o),
(101,379,o),
(142,379,cs)
);
}
);
width = 283;
},
{
background = {
shapes = (
{
closed = 1;
nodes = (
(147,440,l),
(200,705,l),
(148,705,l),
(119,440,l)
);
}
);
};
layerId = "D8D4984A-F5A5-43C0-BF2B-5708C10C5E92";
shapes = (
{
closed = 1;
nodes = (
(141,434,o),
(148,441,o),
(150,453,cs),
(196,683,ls),
(199,700,o),
(190,711,o),
(173,711,cs),
(156,711,o),
(147,700,o),
(146,688,cs),
(120,454,ls),
(118,439,o),
(125,434,o),
(133,434,cs)
);
}
);
width = 202;
},
{
background = {
shapes = (
{
closed = 1;
nodes = (
(234,389,l),
(333,705,l),
(96,705,l),
(95,389,l)
);
}
);
};
layerId = "C92D7C27-2246-4784-91DF-7F4E0C5E615D";
shapes = (
{
closed = 1;
nodes = (
(205,379,o),
(237,395,o),
(252,445,cs),
(295,584,ls),
(320,665,o),
(272,715,o),
(203,715,cs),
(142,715,o),
(96,673,o),
(96,613,cs),
(95,462,ls),
(95,402,o),
(123,379,o),
(170,379,cs)
);
}
);
width = 283;
},
{
background = {
shapes = (
{
closed = 1;
nodes = (
(164,415,l),
(194,705,l),
(49,705,l),
(79,415,l)
);
}
);
};
layerId = "18203F29-5161-4D9B-8394-C173CC5E27D4";
shapes = (
{
closed = 1;
nodes = (
(147,407,o),
(165,425,o),
(168,455,cs),
(187,640,ls),
(191,682,o),
(162,713,o),
(122,713,cs),
(81,713,o),
(52,681,o),
(56,640,cs),
(75,455,ls),
(78,425,o),
(98,407,o),
(122,407,cs)
);
}
);
width = 243;
},
{
background = {
shapes = (
{
closed = 1;
nodes = (
(191,415,l),
(267,705,l),
(122,705,l),
(107,415,l)
);
}
);
};
layerId = "8FF16B21-C988-4EC9-A448-39B9B4A4BD78";
shapes = (
{
closed = 1;
nodes = (
(173,407,o),
(192,418,o),
(200,449,cs),
(249,636,ls),
(262,685,o),
(230,713,o),
(187,713,cs),
(148,713,o),
(121,687,o),
(119,651,cs),
(109,457,ls),
(107,420,o),
(124,407,o),
(152,407,cs)
);
}
);
width = 243;
}
);
unicode = 39;
}
{
color = 6;
glyphname = plus;
layers = (
{
background = {
shapes = (
{
closed = 1;
nodes = (
(320,40,l),
(320,267,l),
(544,267,l),
(544,306,l),
(320,306,l),
(320,528,l),
(280,528,l),
(280,306,l),
(56,306,l),
(56,267,l),
(280,267,l),
(280,40,l)
);
}
);
};
layerId = "F1F93986-3ED8-4AAE-84C4-CA3EEECDDFA0";
shapes = (
{
closed = 1;
nodes = (
(313,90,o),
(320,98,o),
(320,111,cs),
(320,323,l),
(529,323,ls),
(542,323,o),
(550,330,o),
(550,343,cs),
(550,355,o),
(542,362,o),
(529,362,cs),
(320,362,l),
(320,569,ls),
(320,582,o),
(313,590,o),
(300,590,cs),
(287,590,o),
(280,582,o),
(280,569,cs),
(280,362,l),
(71,362,ls),
(58,362,o),
(50,355,o),
(50,343,cs),
(50,331,o),
(58,323,o),
(71,323,cs),
(280,323,l),
(280,111,ls),
(280,98,o),
(287,90,o),
(300,90,cs)
);
}
);
width = 600;
},
{
background = {
shapes = (
{
closed = 1;
nodes = (
(371,40,l),
(371,219,l),
(544,219,l),
(544,355,l),
(371,355,l),
(371,528,l),
(229,528,l),
(229,355,l),
(56,355,l),
(56,219,l),
(229,219,l),
(229,40,l)
);
}
);
};
layerId = "4121B50C-FD42-45C5-8FBE-41E76D98F91E";
shapes = (
{
closed = 1;
nodes = (
(346,86,o),
(371,112,o),
(371,158,cs),
(371,275,l),
(485,275,ls),
(529,275,o),
(554,299,o),
(554,343,cs),
(554,387,o),
(529,411,o),
(485,411,cs),
(371,411,l),
(371,522,ls),
(371,568,o),
(346,594,o),
(300,594,cs),
(254,594,o),
(229,568,o),
(229,522,cs),
(229,411,l),
(115,411,ls),
(71,411,o),
(46,387,o),
(46,343,cs),
(46,299,o),
(71,275,o),
(115,275,cs),
(229,275,l),
(229,158,ls),
(229,112,o),
(254,86,o),
(300,86,cs)
);
}
);
width = 600;
},
{
background = {
shapes = (
{
closed = 1;
nodes = (
(288,40,l),
(324,267,l),
(548,267,l),
(554,306,l),
(330,306,l),
(365,528,l),
(325,528,l),
(290,306,l),
(66,306,l),
(60,267,l),
(284,267,l),
(248,40,l)
);
}
);
};
layerId = "D8D4984A-F5A5-43C0-BF2B-5708C10C5E92";
shapes = (
{
closed = 1;
nodes = (
(291,90,o),
(297,99,o),
(299,112,cs),
(332,323,l),
(541,323,ls),
(556,323,o),
(565,331,o),
(565,346,cs),
(565,357,o),
(557,362,o),
(543,362,cs),
(338,362,l),
(370,564,ls),
(373,580,o),
(367,590,o),
(353,590,cs),
(338,590,o),
(332,581,o),
(330,568,cs),
(298,362,l),
(89,362,ls),
(74,362,o),
(65,354,o),
(65,339,cs),
(65,328,o),
(73,323,o),
(87,323,cs),
(292,323,l),
(259,116,ls),
(256,100,o),
(262,90,o),
(276,90,cs)
);
}
);
width = 600;
},
{
background = {
shapes = (
{
closed = 1;
nodes = (
(338,40,l),
(366,219,l),
(539,219,l),
(561,355,l),
(388,355,l),
(415,528,l),
(273,528,l),
(246,355,l),
(73,355,l),
(51,219,l),
(224,219,l),
(196,40,l)
);
}
);
};
layerId = "C92D7C27-2246-4784-91DF-7F4E0C5E615D";
shapes = (
{
closed = 1;
nodes = (
(323,86,o),
(349,107,o),
(356,153,cs),
(375,275,l),
(489,275,ls),
(540,275,o),
(569,307,o),
(569,355,cs),
(569,390,o),
(545,411,o),
(498,411,cs),
(397,411,l),
(413,515,ls),
(421,566,o),
(397,594,o),
(350,594,cs),
(306,594,o),
(280,573,o),
(273,527,cs),
(255,411,l),
(141,411,ls),
(90,411,o),
(61,379,o),
(61,331,cs),
(61,296,o),
(85,275,o),
(132,275,cs),
(233,275,l),
(216,165,ls),
(208,114,o),
(232,86,o),
(279,86,cs)
);
}
);
width = 600;
},
{
background = {
shapes = (
{
closed = 1;
nodes = (
(346,40,l),
(346,243,l),
(544,243,l),
(544,331,l),
(346,331,l),
(346,528,l),
(254,528,l),
(254,331,l),
(56,331,l),
(56,243,l),
(254,243,l),
(254,40,l)
);
}
);
};
layerId = "18203F29-5161-4D9B-8394-C173CC5E27D4";
shapes = (
{
closed = 1;
nodes = (
(330,88,o),
(346,105,o),
(346,135,cs),
(346,299,l),
(507,299,ls),
(536,299,o),
(552,315,o),
(552,343,cs),
(552,371,o),
(536,387,o),
(507,387,cs),
(346,387,l),
(346,546,ls),
(346,575,o),
(330,592,o),
(300,592,cs),
(270,592,o),
(254,575,o),
(254,546,cs),
(254,387,l),
(93,387,ls),
(65,387,o),
(48,371,o),
(48,343,cs),
(48,315,o),
(65,299,o),
(93,299,cs),
(254,299,l),
(254,135,ls),
(254,105,o),
(270,88,o),
(300,88,cs)
);
}
);
width = 600;
},
{
background = {
shapes = (
{
closed = 1;
nodes = (
(313,40,l),
(345,243,l),
(544,243,l),
(558,331,l),
(359,331,l),
(390,528,l),
(299,528,l),
(268,331,l),
(70,331,l),
(56,243,l),
(254,243,l),
(222,40,l)
);
}
);
};
layerId = "8FF16B21-C988-4EC9-A448-39B9B4A4BD78";
shapes = (
{
closed = 1;
nodes = (
(308,88,o),
(323,103,o),
(328,133,cs),
(354,299,l),
(516,299,ls),
(549,299,o),
(568,319,o),
(568,351,cs),
(568,374,o),
(552,387,o),
(521,387,cs),
(368,387,l),
(392,540,ls),
(397,573,o),
(383,592,o),
(352,592,cs),
(323,592,o),
(307,577,o),
(302,548,cs),
(277,387,l),
(116,387,ls),
(83,387,o),
(64,367,o),
(64,335,cs),
(64,312,o),
(80,299,o),
(110,299,cs),
(263,299,l),
(238,141,ls),
(233,107,o),
(248,88,o),
(278,88,cs)
);
}
);
width = 600;
}
);
unicode = 43;
}
{
color = 6;
glyphname = hyphen;
kernLeft = hyphen;
kernRight = hyphen;
layers = (
{
background = {
shapes = (
{
closed = 1;
nodes = (
(345,246,l),
(345,284,l),
(81,284,l),
(81,246,l)
);
},
{
pos = (5,0);
ref = rightArrow;
}
);
};
layerId = "F1F93986-3ED8-4AAE-84C4-CA3EEECDDFA0";
shapes = (
{
closed = 1;
nodes = (
(331,321,ls),
(342,321,o),
(351,330,o),
(351,341,cs),
(351,352,o),
(342,361,o),
(331,361,cs),
(95,361,ls),
(84,361,o),
(75,352,o),
(75,341,cs),
(75,330,o),
(84,321,o),
(95,321,cs)
);
}
);
width = 426;
},
{
background = {
shapes = (
{
closed = 1;
nodes = (
(397,189,l),
(397,349,l),
(65,349,l),
(65,189,l)
);
},
{
pos = (5,0);
ref = rightArrow;
}
);
};
layerId = "4121B50C-FD42-45C5-8FBE-41E76D98F91E";
shapes = (
{
closed = 1;
nodes = (
(336,255,ls),
(387,255,o),
(422,294,o),
(422,340,cs),
(422,386,o),
(387,425,o),
(336,425,cs),
(126,425,ls),
(75,425,o),
(40,386,o),
(40,340,cs),
(40,294,o),
(75,255,o),
(126,255,cs)
);
}
);
width = 462;
},
{
background = {
shapes = (
{
closed = 1;
nodes = (
(341,246,l),
(347,284,l),
(83,284,l),
(77,246,l)
);
},
{
ref = rightArrow;
}
);
};
layerId = "D8D4984A-F5A5-43C0-BF2B-5708C10C5E92";
shapes = (
{
closed = 1;
nodes = (
(327,321,ls),
(343,321,o),
(351,333,o),
(351,345,cs),
(351,353,o),
(346,361,o),
(333,361,cs),
(97,361,ls),
(81,361,o),
(73,347,o),
(73,335,cs),
(73,327,o),
(78,321,o),
(91,321,cs)
);
}
);
width = 416;
},
{
background = {
shapes = (
{
closed = 1;
nodes = (
(383,189,l),
(408,349,l),
(76,349,l),
(51,189,l)
);
},
{
ref = rightArrow;
}
);
};
layerId = "C92D7C27-2246-4784-91DF-7F4E0C5E615D";
shapes = (
{
closed = 1;
nodes = (
(331,255,ls),
(385,255,o),
(416,296,o),
(416,351,cs),
(416,398,o),
(384,425,o),
(324,425,cs),
(129,425,ls),
(75,425,o),
(44,380,o),
(44,325,cs),
(44,281,o),
(77,255,o),
(136,255,cs)
);
}
);
width = 452;
},
{
background = {
shapes = (
{
closed = 1;
nodes = (
(371,218,l),
(371,318,l),
(73,318,l),
(73,218,l)
);
},
{
pos = (5,0);
ref = rightArrow;
}
);
};
layerId = "18203F29-5161-4D9B-8394-C173CC5E27D4";
shapes = (
{
closed = 1;
nodes = (
(339,281,ls),
(377,281,o),
(399,312,o),
(399,340,cs),
(399,369,o),
(377,399,o),
(339,399,cs),
(106,399,ls),
(67,399,o),
(45,369,o),
(45,340,cs),
(45,312,o),
(67,281,o),
(106,281,cs)
);
}
);
width = 444;
},
{
background = {
shapes = (
{
closed = 1;
nodes = (
(362,218,l),
(378,317,l),
(80,317,l),
(64,218,l)
);
},
{
ref = rightArrow;
}
);
};
layerId = "8FF16B21-C988-4EC9-A448-39B9B4A4BD78";
shapes = (
{
closed = 1;
nodes = (
(334,280,ls),
(374,280,o),
(394,315,o),
(394,348,cs),
(394,376,o),
(375,399,o),
(334,399,cs),
(108,399,ls),
(63,399,o),
(44,364,o),
(44,330,cs),
(44,304,o),
(63,280,o),
(109,280,cs)
);
}
);
width = 434;
}
);
unicode = 45;
}
{
color = 6;
glyphname = period;
kernLeft = period;
kernRight = period;
layers = (
{
background = {
shapes = (
{
closed = 1;
nodes = (
(140,0,l),
(140,70,l),
(71,70,l),
(71,0,l)
);
}
);
};
layerId = "F1F93986-3ED8-4AAE-84C4-CA3EEECDDFA0";
shapes = (
{
closed = 1;
nodes = (
(128,-3,o),
(143,13,o),
(143,35,cs),
(143,57,o),
(128,73,o),
(106,73,cs),
(84,73,o),
(68,57,o),
(68,35,cs),
(68,13,o),
(84,-3,o),
(106,-3,cs)
);
}
);
width = 211;
},
{
background = {
shapes = (
{
closed = 1;
nodes = (
(248,0,l),
(248,207,l),
(37,207,l),
(37,0,l)
);
}
);
};
layerId = "4121B50C-FD42-45C5-8FBE-41E76D98F91E";
shapes = (
{
closed = 1;
nodes = (
(213,-6,o),
(254,39,o),
(254,104,cs),
(254,169,o),
(213,213,o),
(143,213,cs),
(73,213,o),
(31,169,o),
(31,104,cs),
(31,39,o),
(73,-6,o),
(143,-6,cs)
);
}
);
width = 285;
},
{
background = {
shapes = (
{
closed = 1;
nodes = (
(102,0,l),
(113,70,l),
(44,70,l),
(33,0,l)
);
}
);
};
layerId = "D8D4984A-F5A5-43C0-BF2B-5708C10C5E92";
shapes = (
{
closed = 1;
nodes = (
(96,-3,o),
(111,13,o),
(111,35,cs),
(111,57,o),
(96,73,o),
(74,73,cs),
(52,73,o),
(36,57,o),
(36,35,cs),
(36,13,o),
(52,-3,o),
(74,-3,cs)
);
}
);
width = 211;
},
{
background = {
shapes = (
{
closed = 1;
nodes = (
(209,0,l),
(242,207,l),
(31,207,l),
(-2,0,l)
);
}
);
};
layerId = "C92D7C27-2246-4784-91DF-7F4E0C5E615D";
shapes = (
{
closed = 1;
nodes = (
(191,-6,o),
(232,39,o),
(232,104,cs),
(232,169,o),
(191,213,o),
(121,213,cs),
(51,213,o),
(9,169,o),
(9,104,cs),
(9,39,o),
(51,-6,o),
(121,-6,cs)
);
}
);
width = 285;
},
{
background = {
shapes = (
{
closed = 1;
nodes = (
(194,0,l),
(194,139,l),
(54,139,l),
(54,0,l)
);
}
);
};
layerId = "18203F29-5161-4D9B-8394-C173CC5E27D4";
shapes = (
{
closed = 1;
nodes = (
(171,-5,o),
(199,26,o),
(199,70,cs),
(199,113,o),
(171,143,o),
(125,143,cs),
(79,143,o),
(50,113,o),
(50,70,cs),
(50,26,o),
(79,-5,o),
(125,-5,cs)
);
}
);
width = 248;
},
{
background = {
shapes = (
{
closed = 1;
nodes = (
(155,0,l),
(177,139,l),
(37,139,l),
(15,0,l)
);
}
);
};
layerId = "8FF16B21-C988-4EC9-A448-39B9B4A4BD78";
shapes = (
{
closed = 1;
nodes = (
(144,-5,o),
(172,26,o),
(172,70,cs),
(172,113,o),
(144,143,o),
(98,143,cs),
(52,143,o),
(23,113,o),
(23,70,cs),
(23,26,o),
(52,-5,o),
(98,-5,cs)
);
}
);
width = 248;
}
);
unicode = 46;
}
{
color = 6;
glyphname = zero;
layers = (
{
background = {
shapes = (
{
closed = 1;
nodes = (
(455,-8,o),
(538,117,o),
(538,353,cs),
(538,590,o),
(457,713,o),
(300,713,cs),
(144,713,o),
(62,589,o),
(62,352,cs),
(62,117,o),
(144,-8,o),
(300,-8,cs)
);
},
{
closed = 1;
nodes = (
(169,33,o),
(107,136,o),
(107,353,cs),
(107,570,o),
(169,672,o),
(300,672,cs),
(432,672,o),
(493,572,o),
(493,353,cs),
(493,136,o),
(431,33,o),
(300,33,cs)
);
}
);
};
layerId = "F1F93986-3ED8-4AAE-84C4-CA3EEECDDFA0";
shapes = (
{
closed = 1;
nodes = (
(455,-8,o),
(548,100,o),
(548,336,cs),
(548,573,o),
(457,678,o),
(300,678,cs),
(144,678,o),
(52,572,o),
(52,335,cs),
(52,100,o),
(144,-8,o),
(300,-8,cs)
);
},
{
closed = 1;
nodes = (
(169,33,o),
(97,119,o),
(97,336,cs),
(97,553,o),
(169,637,o),
(300,637,cs),
(432,637,o),
(503,555,o),
(503,336,cs),
(503,119,o),
(431,33,o),
(300,33,cs)
);
}
);
width = 600;
},
{
background = {
shapes = (
{
closed = 1;
nodes = (
(478,-12,o),
(576,122,o),
(576,356,cs),
(576,590,o),
(478,717,o),
(300,717,cs),
(122,717,o),
(24,590,o),
(24,356,cs),
(24,122,o),
(122,-12,o),
(300,-12,cs)
);
},
{
closed = 1;
nodes = (
(251,158,o),
(227,216,o),
(227,356,cs),
(227,496,o),
(251,547,o),
(300,547,cs),
(349,547,o),
(373,496,o),
(373,356,cs),
(373,216,o),
(349,158,o),
(300,158,cs)
);
}
);
};
layerId = "4121B50C-FD42-45C5-8FBE-41E76D98F91E";
shapes = (
{
closed = 1;
nodes = (
(478,-12,o),
(576,105,o),
(576,339,cs),
(576,538,o),
(478,682,o),
(300,682,cs),
(122,682,o),
(24,538,o),
(24,339,cs),
(24,105,o),
(122,-12,o),
(300,-12,cs)
);
},
{
closed = 1;
nodes = (
(251,158,o),
(227,199,o),
(227,339,cs),
(227,479,o),
(251,512,o),
(300,512,cs),
(349,512,o),
(373,479,o),
(373,339,cs),
(373,199,o),
(349,158,o),
(300,158,cs)
);
}
);
width = 600;
},
{
background = {
shapes = (
{
closed = 1;
nodes = (
(455,-8,o),
(559,168,o),
(559,460,cs),
(559,624,o),
(487,713,o),
(347,713,cs),
(181,713,o),
(76,537,o),
(76,245,cs),
(76,81,o),
(149,-8,o),
(289,-8,cs)
);
},
{
closed = 1;
nodes = (
(177,33,o),
(121,98,o),
(121,227,cs),
(121,513,o),
(205,672,o),
(344,672,cs),
(459,672,o),
(514,607,o),
(514,478,cs),
(514,192,o),
(431,33,o),
(292,33,cs)
);
}
);
};
layerId = "D8D4984A-F5A5-43C0-BF2B-5708C10C5E92";
shapes = (
{
closed = 1;
nodes = (
(455,-8,o),
(559,168,o),
(559,460,cs),
(559,624,o),
(487,713,o),
(347,713,cs),
(181,713,o),
(76,537,o),
(76,245,cs),
(76,81,o),
(149,-8,o),
(289,-8,cs)
);
},
{
closed = 1;
nodes = (
(177,33,o),
(121,98,o),
(121,227,cs),
(121,513,o),
(205,672,o),
(344,672,cs),
(459,672,o),
(514,607,o),
(514,478,cs),
(514,192,o),
(431,33,o),
(292,33,cs)
);
}
);
width = 600;
},
{
background = {
shapes = (
{
closed = 1;
nodes = (
(478,-12,o),
(598,165,o),
(598,440,cs),
(598,617,o),
(508,717,o),
(347,717,cs),
(156,717,o),
(36,540,o),
(36,265,cs),
(36,88,o),
(126,-12,o),
(288,-12,cs)
);
},
{
closed = 1;
nodes = (
(257,158,o),
(238,184,o),
(239,244,cs),
(243,455,o),
(288,547,o),
(337,547,cs),
(378,547,o),
(396,521,o),
(395,461,cs),
(390,260,o),
(348,158,o),
(298,158,cs)
);
}
);
};
layerId = "C92D7C27-2246-4784-91DF-7F4E0C5E615D";
shapes = (
{
closed = 1;
nodes = (
(478,-12,o),
(598,165,o),
(598,440,cs),
(598,617,o),
(508,682,o),
(347,682,cs),
(156,682,o),
(36,540,o),
(36,265,cs),
(36,88,o),
(126,-12,o),
(288,-12,cs)
);
},
{
closed = 1;
nodes = (
(257,158,o),
(238,184,o),
(239,244,cs),
(243,455,o),
(288,512,o),
(343,512,cs),
(378,512,o),
(397,487,o),
(395,427,cs),
(390,260,o),
(348,158,o),
(294,158,cs)
);
}
);
width = 600;
},
{
background = {
shapes = (
{
closed = 1;
nodes = (
(467,-10,o),
(557,120,o),
(557,355,cs),
(557,590,o),
(468,715,o),
(300,715,cs),
(133,715,o),
(43,590,o),
(43,354,cs),
(43,120,o),
(133,-10,o),
(300,-10,cs)
);
},
{
closed = 1;
nodes = (
(210,95,o),
(167,175,o),
(167,355,cs),
(167,533,o),
(210,610,o),
(300,610,cs),
(391,610,o),
(433,534,o),
(433,355,cs),
(433,175,o),
(390,95,o),
(300,95,cs)
);
}
);
};
layerId = "18203F29-5161-4D9B-8394-C173CC5E27D4";
shapes = (
{
closed = 1;
nodes = (
(467,-10,o),
(567,103,o),
(567,338,cs),
(567,573,o),
(468,680,o),
(300,680,cs),
(133,680,o),
(33,573,o),
(33,337,cs),
(33,103,o),
(133,-10,o),
(300,-10,cs)
);
},
{
closed = 1;
nodes = (
(210,95,o),
(157,159,o),
(157,338,cs),
(157,516,o),
(210,575,o),
(300,575,cs),
(391,575,o),
(443,517,o),
(443,338,cs),
(443,159,o),
(390,95,o),
(300,95,cs)
);
}
);
width = 600;
},
{
background = {
shapes = (
{
closed = 1;
nodes = (
(466,-10,o),
(579,166,o),
(579,451,cs),
(579,621,o),
(498,715,o),
(347,715,cs),
(169,715,o),
(56,539,o),
(56,256,cs),
(56,84,o),
(137,-10,o),
(288,-10,cs)
);
},
{
closed = 1;
nodes = (
(216,95,o),
(180,141,o),
(180,236,cs),
(180,484,o),
(247,610,o),
(341,610,cs),
(419,610,o),
(456,564,o),
(455,470,cs),
(453,221,o),
(388,95,o),
(294,95,cs)
);
}
);
};
layerId = "8FF16B21-C988-4EC9-A448-39B9B4A4BD78";
shapes = (
{
closed = 1;
nodes = (
(466,-10,o),
(579,166,o),
(579,451,cs),
(579,621,o),
(498,715,o),
(347,715,cs),
(169,715,o),
(56,539,o),
(56,256,cs),
(56,84,o),
(137,-10,o),
(288,-10,cs)
);
},
{
closed = 1;
nodes = (
(216,95,o),
(180,141,o),
(180,236,cs),
(180,484,o),
(247,610,o),
(341,610,cs),
(419,610,o),
(456,564,o),
(455,470,cs),
(453,221,o),
(388,95,o),
(294,95,cs)
);
}
);
width = 600;
}
);
unicode = 48;
}
{
color = 6;
glyphname = one;
layers = (
{
background = {
shapes = (
{
closed = 1;
nodes = (
(205,0,l),
(205,705,l),
(174,705,l),
(-12,579,l),
(10,546,l),
(190,667,l),
(163,667,l),
(163,0,l)
);
}
);
};
layerId = "F1F93986-3ED8-4AAE-84C4-CA3EEECDDFA0";
shapes = (
{
closed = 1;
nodes = (
(198,-6,o),
(205,2,o),
(205,16,cs),
(205,654,ls),
(205,668,o),
(196,676,o),
(185,676,cs),
(176,676,o),
(171,676,o),
(162,668,cs),
(39,555,ls),
(15,533,o),
(42,505,o),
(64,525,cs),
(190,638,l),
(163,638,l),
(163,16,ls),
(163,2,o),
(171,-6,o),
(184,-6,cs)
);
}
);
width = 275;
},
{
background = {
shapes = (
{
closed = 1;
nodes = (
(420,0,l),
(420,705,l),
(268,705,l),
(-15,548,l),
(67,399,l),
(300,528,l),
(205,528,l),
(205,0,l)
);
}
);
};
layerId = "4121B50C-FD42-45C5-8FBE-41E76D98F91E";
shapes = (
{
closed = 1;
nodes = (
(383,-10,o),
(420,29,o),
(420,99,cs),
(420,590,ls),
(420,646,o),
(385,680,o),
(321,680,cs),
(278,680,o),
(249,678,o),
(216,651,cs),
(64,525,ls),
(-21,454,o),
(70,350,o),
(146,411,cs),
(269,510,l),
(205,510,l),
(205,99,ls),
(205,29,o),
(244,-10,o),
(313,-10,cs)
);
}
);
width = 500;
},
{
background = {
shapes = (
{
closed = 1;
nodes = (
(241,0,l),
(353,705,l),
(323,705,l),
(116,578,l),
(133,543,l),
(334,665,l),
(305,668,l),
(199,0,l)
);
}
);
};
layerId = "D8D4984A-F5A5-43C0-BF2B-5708C10C5E92";
shapes = (
{
closed = 1;
nodes = (
(235,-6,o),
(242,1,o),
(244,15,cs),
(344,651,ls),
(347,667,o),
(336,676,o),
(326,676,cs),
(317,676,o),
(314,674,o),
(305,668,cs),
(176,584,ls),
(150,567,o),
(168,533,o),
(195,550,cs),
(329,636,l),
(300,639,l),
(202,20,ls),
(199,4,o),
(207,-6,o),
(223,-6,cs)
);
}
);
width = 370;
},
{
background = {
shapes = (
{
closed = 1;
nodes = (
(439,0,l),
(551,705,l),
(399,705,l),
(91,548,l),
(155,387,l),
(408,516,l),
(308,528,l),
(224,0,l)
);
}
);
};
layerId = "C92D7C27-2246-4784-91DF-7F4E0C5E615D";
shapes = (
{
closed = 1;
nodes = (
(402,-10,o),
(444,26,o),
(455,96,cs),
(536,612,ls),
(546,678,o),
(517,715,o),
(452,715,cs),
(411,715,o),
(384,709,o),
(344,686,cs),
(190,598,ls),
(57,522,o),
(122,359,o),
(264,442,cs),
(408,526,l),
(309,536,l),
(243,115,ls),
(231,37,o),
(263,-10,o),
(331,-10,cs)
);
}
);
width = 600;
},
{
background = {
shapes = (
{
closed = 1;
nodes = (
(311,0,l),
(311,705,l),
(220,705,l),
(-15,564,l),
(37,473,l),
(244,598,l),
(183,598,l),
(183,0,l)
);
}
);
};
layerId = "18203F29-5161-4D9B-8394-C173CC5E27D4";
shapes = (
{
closed = 1;
nodes = (
(289,-8,o),
(311,16,o),
(311,58,cs),
(311,622,ls),
(311,657,o),
(290,678,o),
(257,678,cs),
(234,678,o),
(215,673,o),
(194,654,cs),
(43,512,ls),
(-17,456,o),
(56,392,o),
(109,440,cs),
(244,563,l),
(183,563,l),
(183,58,ls),
(183,16,o),
(206,-8,o),
(247,-8,cs)
);
}
);
width = 391;
},
{
background = {
shapes = (
{
closed = 1;
nodes = (
(344,0,l),
(456,705,l),
(365,705,l),
(108,563,l),
(148,465,l),
(375,591,l),
(311,598,l),
(216,0,l)
);
}
);
};
layerId = "8FF16B21-C988-4EC9-A448-39B9B4A4BD78";
shapes = (
{
closed = 1;
nodes = (
(322,-8,o),
(346,14,o),
(353,56,cs),
(447,614,ls),
(451,639,o),
(453,678,o),
(399,678,cs),
(375,678,o),
(350,667,o),
(335,658,cs),
(180,570,ls),
(107,529,o),
(151,433,o),
(234,480,cs),
(367,556,l),
(311,563,l),
(227,69,ls),
(219,22,o),
(238,-8,o),
(283,-8,cs)
);
}
);
width = 473;
}
);
unicode = 49;
userData = {
com.typemytype.robofont.layerData = {
b = {
anchors = (
);
components = (
);
contours = (
);
lib = {
};
name = one;
unicodes = (
);
width = 1160;
};
};
};
}
{
color = 6;
glyphname = two;
layers = (
{
background = {
shapes = (
{
closed = 1;
nodes = (
(521,0,l),
(521,39,l),
(131,39,l),
(131,24,l),
(365,275,ls),
(449,366,o),
(491,445,o),
(491,530,cs),
(491,646,o),
(416,713,o),
(285,713,cs),
(197,713,o),
(114,675,o),
(66,620,c),
(86,584,l),
(142,643,o),
(206,672,o),
(285,672,cs),
(391,672,o),
(447,622,o),
(447,529,cs),
(447,456,o),
(415,389,o),
(341,308,cs),
(88,32,l),
(88,0,l)
);
}
);
};
layerId = "F1F93986-3ED8-4AAE-84C4-CA3EEECDDFA0";
shapes = (
{
closed = 1;
nodes = (
(505,0,ls),
(519,0,o),
(527,7,o),
(527,20,cs),
(527,32,o),
(519,39,o),
(505,39,cs),
(130,39,l),
(130,24,l),
(365,275,ls),
(450,366,o),
(491,410,o),
(491,495,cs),
(491,594,o),
(416,678,o),
(285,678,cs),
(204,678,o),
(125,644,o),
(76,597,cs),
(57,578,o),
(75,542,o),
(101,565,cs),
(154,612,o),
(213,637,o),
(285,637,cs),
(391,637,o),
(447,570,o),
(447,494,cs),
(447,421,o),
(419,386,o),
(341,308,cs),
(90,55,ls),
(82,47,o),
(77,37,o),
(77,29,cs),
(77,13,o),
(87,0,o),
(112,0,cs)
);
}
);
width = 577;
},
{
background = {
shapes = (
{
closed = 1;
nodes = (
(565,0,l),
(565,174,l),
(267,174,l),
(267,120,l),
(414,260,ls),
(507,348,o),
(540,420,o),
(540,506,cs),
(540,642,o),
(449,717,o),
(279,717,cs),
(185,717,o),
(90,689,o),
(26,642,c),
(91,486,l),
(145,524,o),
(199,542,o),
(247,542,cs),
(300,542,o),
(330,521,o),
(330,480,cs),
(330,447,o),
(313,418,o),
(265,368,cs),
(62,158,l),
(62,0,l)
);
}
);
};
layerId = "4121B50C-FD42-45C5-8FBE-41E76D98F91E";
shapes = (
{
closed = 1;
nodes = (
(484,0,ls),
(539,0,o),
(570,31,o),
(570,87,cs),
(570,143,o),
(539,174,o),
(484,174,cs),
(267,174,l),
(267,120,l),
(414,260,ls),
(507,348,o),
(540,420,o),
(540,471,cs),
(540,607,o),
(449,682,o),
(279,682,cs),
(216,682,o),
(152,671,o),
(90,641,cs),
(-16,590,o),
(49,441,o),
(154,485,cs),
(192,501,o),
(223,506,o),
(247,507,cs),
(301,509,o),
(330,494,o),
(330,463,cs),
(330,430,o),
(313,418,o),
(265,368,cs),
(106,203,ls),
(75,171,o),
(54,140,o),
(54,95,cs),
(54,32,o),
(83,0,o),
(150,0,cs)
);
}
);
width = 600;
},
{
background = {
shapes = (
{
closed = 1;
nodes = (
(493,0,l),
(499,39,l),
(114,39,l),
(116,23,l),
(382,270,ls),
(475,356,o),
(550,444,o),
(550,555,cs),
(550,649,o),
(478,713,o),
(364,713,cs),
(276,713,o),
(197,677,o),
(136,619,c),
(155,583,l),
(219,639,o),
(287,672,o),
(363,672,cs),
(455,672,o),
(506,627,o),
(506,553,cs),
(506,461,o),
(442,380,o),
(360,303,cs),
(71,32,l),
(66,0,l)
);
}
);
};
layerId = "D8D4984A-F5A5-43C0-BF2B-5708C10C5E92";
shapes = (
{
closed = 1;
nodes = (
(478,0,ls),
(494,0,o),
(502,8,o),
(502,23,cs),
(502,34,o),
(494,39,o),
(480,39,cs),
(113,39,l),
(115,23,l),
(382,270,ls),
(475,356,o),
(550,409,o),
(550,520,cs),
(550,614,o),
(478,678,o),
(364,678,cs),
(286,678,o),
(207,648,o),
(149,596,cs),
(125,575,o),
(145,541,o),
(173,563,cs),
(238,614,o),
(299,637,o),
(363,637,cs),
(455,637,o),
(506,592,o),
(506,518,cs),
(506,426,o),
(442,380,o),
(360,303,cs),
(82,43,ls),
(72,33,o),
(67,25,o),
(67,18,cs),
(67,5,o),
(75,0,o),
(90,0,cs)
);
}
);
width = 600;
},
{
background = {
shapes = (
{
closed = 1;
nodes = (
(525,0,l),
(553,174,l),
(256,174,l),
(256,120,l),
(416,256,ls),
(513,338,o),
(576,405,o),
(576,526,cs),
(576,635,o),
(483,717,o),
(345,717,cs),
(251,717,o),
(161,692,o),
(83,644,c),
(143,486,l),
(199,523,o),
(250,542,o),
(296,542,cs),
(336,542,o),
(366,524,o),
(366,488,cs),
(366,450,o),
(340,422,o),
(280,368,cs),
(49,158,l),
(24,0,l)
);
}
);
};
layerId = "C92D7C27-2246-4784-91DF-7F4E0C5E615D";
shapes = (
{
closed = 1;
nodes = (
(446,0,ls),
(511,0,o),
(550,39,o),
(550,101,cs),
(550,148,o),
(517,174,o),
(458,174,cs),
(256,174,l),
(256,120,l),
(416,256,ls),
(513,338,o),
(576,376,o),
(576,497,cs),
(576,606,o),
(483,682,o),
(345,682,cs),
(268,682,o),
(207,669,o),
(145,639,cs),
(50,593,o),
(106,437,o),
(204,483,cs),
(242,501,o),
(276,507,o),
(296,507,cs),
(336,507,o),
(366,497,o),
(366,468,cs),
(366,438,o),
(340,422,o),
(280,368,cs),
(99,203,ls),
(46,154,o),
(30,127,o),
(30,83,cs),
(30,29,o),
(72,0,o),
(128,0,cs)
);
}
);
width = 600;
},
{
background = {
shapes = (
{
closed = 1;
nodes = (
(538,0,l),
(538,106,l),
(197,106,l),
(197,72,l),
(385,268,ls),
(472,358,o),
(511,433,o),
(511,518,cs),
(511,644,o),
(428,715,o),
(277,715,cs),
(186,715,o),
(97,682,o),
(41,631,c),
(84,535,l),
(139,584,o),
(198,607,o),
(261,607,cs),
(341,607,o),
(384,572,o),
(384,505,cs),
(384,452,o),
(359,404,o),
(298,338,cs),
(70,95,l),
(70,0,l)
);
}
);
};
layerId = "18203F29-5161-4D9B-8394-C173CC5E27D4";
shapes = (
{
closed = 1;
nodes = (
(491,0,ls),
(527,0,o),
(546,19,o),
(546,54,cs),
(546,88,o),
(527,106,o),
(491,106,cs),
(197,106,l),
(197,72,l),
(385,268,ls),
(472,359,o),
(511,415,o),
(511,483,cs),
(511,597,o),
(428,680,o),
(277,680,cs),
(205,680,o),
(117,646,o),
(67,599,cs),
(16,549,o),
(82,469,o),
(133,518,cs),
(173,557,o),
(225,572,o),
(261,572,cs),
(341,572,o),
(390,537,o),
(390,470,cs),
(390,424,o),
(359,402,o),
(298,338,cs),
(97,124,ls),
(74,100,o),
(62,80,o),
(62,57,cs),
(62,20,o),
(80,0,o),
(123,0,cs)
);
}
);
width = 576;
},
{
background = {
shapes = (
{
closed = 1;
nodes = (
(509,0,l),
(526,106,l),
(185,106,l),
(186,72,l),
(399,263,ls),
(494,347,o),
(563,425,o),
(563,541,cs),
(563,642,o),
(481,715,o),
(355,715,cs),
(264,715,o),
(179,685,o),
(110,632,c),
(149,535,l),
(209,581,o),
(269,607,o),
(330,607,cs),
(396,607,o),
(436,576,o),
(436,521,cs),
(436,456,o),
(391,401,o),
(320,336,cs),
(60,95,l),
(45,0,l)
);
}
);
};
layerId = "8FF16B21-C988-4EC9-A448-39B9B4A4BD78";
shapes = (
{
closed = 1;
nodes = (
(462,0,ls),
(503,0,o),
(526,24,o),
(526,62,cs),
(526,91,o),
(506,106,o),
(469,106,cs),
(185,106,l),
(186,72,l),
(399,263,ls),
(493,347,o),
(563,390,o),
(563,506,cs),
(563,607,o),
(481,680,o),
(355,680,cs),
(277,680,o),
(199,656,o),
(138,617,cs),
(81,580,o),
(128,490,o),
(190,528,cs),
(241,559,o),
(288,572,o),
(330,572,cs),
(396,572,o),
(436,541,o),
(436,486,cs),
(436,421,o),
(391,401,o),
(320,336,cs),
(90,123,ls),
(60,95,o),
(48,78,o),
(48,51,cs),
(48,17,o),
(73,0,o),
(109,0,cs)
);
}
);
width = 600;
}
);
unicode = 50;
userData = {
com.typemytype.robofont.layerData = {
b = {
anchors = (
);
components = (
);
contours = (
);
lib = {
};
name = two;
unicodes = (
);
width = 1160;
};
};
};
}
{
color = 6;
glyphname = three;
layers = (
{
background = {
shapes = (
{
closed = 1;
nodes = (
(434,-8,o),
(518,68,o),
(518,188,cs),
(518,284,o),
(462,350,o),
(363,368,c),
(363,358,l),
(447,380,o),
(499,449,o),
(499,537,cs),
(499,647,o),
(423,713,o),
(295,713,cs),
(209,713,o),
(126,678,o),
(76,620,c),
(96,584,l),
(153,644,o),
(217,672,o),
(295,672,cs),
(397,672,o),
(455,623,o),
(455,537,cs),
(455,439,o),
(389,378,o),
(286,378,cs),
(192,378,l),
(192,339,l),
(288,339,ls),
(409,339,o),
(474,287,o),
(474,188,cs),
(474,88,o),
(411,33,o),
(297,33,cs),
(217,33,o),
(151,57,o),
(84,115,c),
(64,79,l),
(123,22,o),
(207,-8,o),
(297,-8,cs)
);
}
);
};
layerId = "F1F93986-3ED8-4AAE-84C4-CA3EEECDDFA0";
shapes = (
{
closed = 1;
nodes = (
(434,-8,o),
(518,68,o),
(518,188,cs),
(518,284,o),
(462,333,o),
(363,351,c),
(363,341,l),
(447,363,o),
(499,397,o),
(499,502,cs),
(499,612,o),
(423,678,o),
(295,678,cs),
(216,678,o),
(137,648,o),
(87,596,cs),
(63,572,o),
(88,540,o),
(112,564,cs),
(163,614,o),
(225,637,o),
(295,637,cs),
(397,637,o),
(455,588,o),
(455,502,cs),
(455,387,o),
(389,361,o),
(286,361,cs),
(210,361,ls),
(196,361,o),
(188,354,o),
(188,342,cs),
(188,330,o),
(196,322,o),
(210,322,cs),
(288,322,ls),
(409,322,o),
(474,270,o),
(474,188,cs),
(474,88,o),
(411,33,o),
(297,33,cs),
(225,33,o),
(160,54,o),
(99,102,cs),
(73,122,o),
(55,87,o),
(75,69,cs),
(132,18,o),
(214,-8,o),
(297,-8,cs)
);
}
);
width = 600;
},
{
background = {
shapes = (
{
closed = 1;
nodes = (
(454,-12,o),
(563,67,o),
(563,198,cs),
(563,292,o),
(507,359,o),
(415,374,c),
(415,359,l),
(493,378,o),
(541,439,o),
(541,518,cs),
(541,643,o),
(444,717,o),
(280,717,cs),
(184,717,o),
(90,689,o),
(27,642,c),
(92,486,l),
(142,523,o),
(197,542,o),
(258,542,cs),
(310,542,o),
(337,524,o),
(337,489,cs),
(337,455,o),
(308,438,o),
(262,438,cs),
(154,438,l),
(154,270,l),
(283,270,ls),
(333,270,o),
(359,255,o),
(359,219,cs),
(359,181,o),
(329,163,o),
(267,163,cs),
(201,163,o),
(136,183,o),
(80,220,c),
(16,61,l),
(70,17,o),
(173,-12,o),
(275,-12,cs)
);
}
);
};
layerId = "4121B50C-FD42-45C5-8FBE-41E76D98F91E";
shapes = (
{
closed = 1;
nodes = (
(454,-12,o),
(563,67,o),
(563,198,cs),
(563,292,o),
(507,342,o),
(415,357,c),
(415,342,l),
(493,361,o),
(541,404,o),
(541,483,cs),
(541,608,o),
(444,682,o),
(280,682,cs),
(217,682,o),
(150,669,o),
(96,646,cs),
(-13,600,o),
(50,449,o),
(151,486,cs),
(192,501,o),
(229,507,o),
(258,507,cs),
(310,507,o),
(337,489,o),
(337,454,cs),
(337,420,o),
(308,421,o),
(262,421,cs),
(235,421,ls),
(176,421,o),
(144,391,o),
(144,337,cs),
(144,283,o),
(176,253,o),
(235,253,cs),
(283,253,ls),
(333,253,o),
(359,255,o),
(359,219,cs),
(359,181,o),
(329,163,o),
(267,163,cs),
(232,163,o),
(197,168,o),
(151,185,cs),
(37,228,o),
(-28,66,o),
(98,17,cs),
(143,0,o),
(208,-12,o),
(275,-12,cs)
);
}
);
width = 600;
},
{
background = {
shapes = (
{
closed = 1;
nodes = (
(401,-8,o),
(505,75,o),
(505,204,cs),
(505,281,o),
(460,343,o),
(375,363,c),
(374,353,l),
(471,371,o),
(541,449,o),
(541,547,cs),
(541,643,o),
(468,713,o),
(357,713,cs),
(273,713,o),
(188,681,o),
(131,620,c),
(150,585,l),
(210,645,o),
(283,672,o),
(356,672,cs),
(441,672,o),
(497,621,o),
(497,546,cs),
(497,443,o),
(412,378,o),
(308,378,cs),
(217,378,l),
(211,339,l),
(304,339,ls),
(404,339,o),
(461,284,o),
(461,204,cs),
(461,98,o),
(381,33,o),
(279,33,cs),
(199,33,o),
(136,48,o),
(65,114,c),
(42,80,l),
(108,13,o),
(196,-8,o),
(279,-8,cs)
);
}
);
};
layerId = "D8D4984A-F5A5-43C0-BF2B-5708C10C5E92";
shapes = (
{
closed = 1;
nodes = (
(401,-8,o),
(505,75,o),
(505,204,cs),
(505,281,o),
(460,326,o),
(375,346,c),
(374,336,l),
(471,354,o),
(541,414,o),
(541,512,cs),
(541,608,o),
(468,678,o),
(357,678,cs),
(280,678,o),
(196,653,o),
(142,595,cs),
(121,572,o),
(148,545,o),
(169,566,cs),
(220,619,o),
(291,637,o),
(356,637,cs),
(441,637,o),
(497,586,o),
(497,511,cs),
(497,408,o),
(412,361,o),
(308,361,cs),
(232,361,ls),
(218,361,o),
(208,353,o),
(208,339,cs),
(208,328,o),
(216,322,o),
(230,322,cs),
(304,322,ls),
(404,322,o),
(461,284,o),
(461,204,cs),
(461,98,o),
(381,33,o),
(279,33,cs),
(206,33,o),
(155,44,o),
(97,102,cs),
(73,127,o),
(47,96,o),
(68,73,cs),
(126,11,o),
(202,-8,o),
(279,-8,cs)
);
}
);
width = 600;
},
{
background = {
shapes = (
{
closed = 1;
nodes = (
(464,-12,o),
(559,97,o),
(559,206,cs),
(559,291,o),
(510,354,o),
(423,371,c),
(423,356,l),
(521,374,o),
(590,437,o),
(588,530,cs),
(586,623,o),
(518,717,o),
(344,717,cs),
(255,717,o),
(153,692,o),
(75,644,c),
(135,486,l),
(191,523,o),
(254,542,o),
(312,542,cs),
(354,542,o),
(384,526,o),
(384,494,cs),
(384,455,o),
(350,438,o),
(298,438,cs),
(186,438,l),
(160,270,l),
(286,270,ls),
(333,270,o),
(354,254,o),
(354,222,cs),
(354,182,o),
(320,163,o),
(273,163,cs),
(202,163,o),
(138,179,o),
(84,218,c),
(5,68,l),
(65,13,o),
(177,-12,o),
(273,-12,cs)
);
}
);
};
layerId = "C92D7C27-2246-4784-91DF-7F4E0C5E615D";
shapes = (
{
closed = 1;
nodes = (
(464,-12,o),
(559,97,o),
(559,206,cs),
(559,291,o),
(510,337,o),
(423,354,c),
(423,339,l),
(521,357,o),
(590,402,o),
(588,495,cs),
(586,588,o),
(518,682,o),
(344,682,cs),
(284,682,o),
(218,672,o),
(148,643,cs),
(32,595,o),
(98,439,o),
(204,484,cs),
(242,500,o),
(283,507,o),
(312,507,cs),
(354,507,o),
(384,491,o),
(384,459,cs),
(384,420,o),
(350,421,o),
(298,421,cs),
(265,421,ls),
(202,421,o),
(162,384,o),
(162,326,cs),
(162,277,o),
(195,253,o),
(254,253,cs),
(286,253,ls),
(333,253,o),
(354,254,o),
(354,222,cs),
(354,182,o),
(320,163,o),
(273,163,cs),
(236,163,o),
(178,169,o),
(133,192,cs),
(39,240,o),
(-27,74,o),
(78,26,cs),
(141,-3,o),
(213,-12,o),
(273,-12,cs)
);
}
);
width = 600;
},
{
background = {
shapes = (
{
closed = 1;
nodes = (
(424,-10,o),
(521,68,o),
(521,193,cs),
(521,288,o),
(465,355,o),
(369,371,c),
(369,359,l),
(450,379,o),
(500,444,o),
(500,528,cs),
(500,645,o),
(414,715,o),
(268,715,cs),
(177,715,o),
(88,684,o),
(32,631,c),
(74,535,l),
(128,584,o),
(187,607,o),
(257,607,cs),
(334,607,o),
(376,574,o),
(376,513,cs),
(376,447,o),
(329,409,o),
(254,409,cs),
(153,409,l),
(153,303,l),
(266,303,ls),
(351,303,o),
(397,271,o),
(397,204,cs),
(397,135,o),
(350,98,o),
(262,98,cs),
(189,98,o),
(124,120,o),
(62,168,c),
(20,70,l),
(77,20,o),
(170,-10,o),
(266,-10,cs)
);
}
);
};
layerId = "18203F29-5161-4D9B-8394-C173CC5E27D4";
shapes = (
{
closed = 1;
nodes = (
(424,-10,o),
(521,68,o),
(521,193,cs),
(521,271,o),
(465,338,o),
(369,354,c),
(369,342,l),
(450,362,o),
(500,401,o),
(500,493,cs),
(500,610,o),
(414,680,o),
(268,680,cs),
(194,680,o),
(125,662,o),
(72,620,cs),
(12,574,o),
(72,491,o),
(129,534,cs),
(179,569,o),
(226,576,o),
(257,576,cs),
(334,576,o),
(379,539,o),
(379,478,cs),
(379,401,o),
(329,392,o),
(254,392,cs),
(202,392,ls),
(165,392,o),
(145,372,o),
(145,339,cs),
(145,306,o),
(165,286,o),
(202,286,cs),
(266,286,ls),
(351,286,o),
(397,254,o),
(397,204,cs),
(397,135,o),
(350,98,o),
(262,98,cs),
(209,98,o),
(173,101,o),
(120,135,cs),
(54,179,o),
(-1,97,o),
(61,47,cs),
(114,4,o),
(194,-10,o),
(266,-10,cs)
);
}
);
width = 580;
},
{
background = {
shapes = (
{
closed = 1;
nodes = (
(433,-10,o),
(532,86,o),
(532,205,cs),
(532,286,o),
(485,349,o),
(399,367,c),
(399,355,l),
(496,373,o),
(566,443,o),
(565,539,cs),
(564,633,o),
(493,715,o),
(351,715,cs),
(264,715,o),
(171,687,o),
(103,632,c),
(143,536,l),
(201,584,o),
(269,607,o),
(334,607,cs),
(398,607,o),
(441,574,o),
(441,520,cs),
(441,449,o),
(381,409,o),
(303,409,cs),
(202,409,l),
(186,303,l),
(295,303,ls),
(369,303,o),
(408,269,o),
(408,213,cs),
(408,140,o),
(351,98,o),
(276,98,cs),
(201,98,o),
(137,114,o),
(75,166,c),
(24,74,l),
(87,13,o),
(187,-10,o),
(276,-10,cs)
);
}
);
};
layerId = "8FF16B21-C988-4EC9-A448-39B9B4A4BD78";
shapes = (
{
closed = 1;
nodes = (
(433,-10,o),
(532,86,o),
(532,205,cs),
(532,286,o),
(485,332,o),
(399,350,c),
(399,338,l),
(496,356,o),
(566,408,o),
(565,504,cs),
(564,598,o),
(493,680,o),
(351,680,cs),
(282,680,o),
(201,667,o),
(140,619,cs),
(79,572,o),
(136,490,o),
(195,534,cs),
(243,568,o),
(287,572,o),
(334,572,cs),
(398,572,o),
(441,539,o),
(441,485,cs),
(441,414,o),
(381,392,o),
(303,392,cs),
(249,392,ls),
(210,392,o),
(185,369,o),
(185,333,cs),
(185,303,o),
(206,286,o),
(242,286,cs),
(295,286,ls),
(369,286,o),
(408,269,o),
(408,213,cs),
(408,140,o),
(351,98,o),
(276,98,cs),
(234,98,o),
(176,101,o),
(125,139,cs),
(70,180,o),
(9,91,o),
(68,48,cs),
(130,2,o),
(208,-10,o),
(276,-10,cs)
);
}
);
width = 600;
}
);
unicode = 51;
userData = {
com.typemytype.robofont.layerData = {
b = {
anchors = (
);
components = (
);
contours = (
);
lib = {
};
name = three;
unicodes = (
);
width = 1160;
};
};
};
}
{
color = 6;
glyphname = four;
layers = (
{
background = {
shapes = (
{
closed = 1;
nodes = (
(424,0,l),
(424,166,l),
(535,166,l),
(535,205,l),
(424,205,l),
(424,705,l),
(389,705,l),
(40,199,l),
(40,166,l),
(382,166,l),
(382,0,l)
);
},
{
closed = 1;
nodes = (
(84,205,l),
(84,193,l),
(402,653,l),
(382,653,l),
(382,205,l)
);
}
);
};
layerId = "F1F93986-3ED8-4AAE-84C4-CA3EEECDDFA0";
shapes = (
{
closed = 1;
nodes = (
(417,-6,o),
(424,2,o),
(424,16,cs),
(424,166,l),
(519,166,ls),
(533,166,o),
(541,173,o),
(541,186,cs),
(541,198,o),
(533,205,o),
(519,205,cs),
(424,205,l),
(424,640,ls),
(424,663,o),
(409,676,o),
(391,676,cs),
(374,676,o),
(361,667,o),
(351,653,cs),
(47,211,ls),
(41,202,o),
(38,196,o),
(38,188,cs),
(38,175,o),
(46,166,o),
(60,166,cs),
(382,166,l),
(382,16,ls),
(382,2,o),
(390,-6,o),
(403,-6,cs)
);
},
{
closed = 1;
nodes = (
(82,205,l),
(82,193,l),
(400,642,l),
(380,642,l),
(382,205,l)
);
}
);
width = 580;
},
{
background = {
shapes = (
{
closed = 1;
nodes = (
(503,0,l),
(503,109,l),
(590,109,l),
(590,267,l),
(503,267,l),
(503,705,l),
(331,705,l),
(23,257,l),
(23,109,l),
(298,109,l),
(298,0,l)
);
},
{
closed = 1;
nodes = (
(170,267,l),
(170,218,l),
(325,450,l),
(298,450,l),
(298,267,l)
);
}
);
};
layerId = "4121B50C-FD42-45C5-8FBE-41E76D98F91E";
shapes = (
{
closed = 1;
nodes = (
(467,-10,o),
(503,28,o),
(503,96,cs),
(503,109,l),
(513,109,ls),
(570,109,o),
(600,137,o),
(600,188,cs),
(600,239,o),
(569,267,o),
(513,267,cs),
(503,267,l),
(503,574,ls),
(503,643,o),
(460,680,o),
(400,680,cs),
(332,680,o),
(297,663,o),
(263,613,cs),
(58,316,ls),
(28,273,o),
(15,242,o),
(15,205,cs),
(15,141,o),
(55,109,o),
(123,109,cs),
(298,109,l),
(298,96,ls),
(298,27,o),
(335,-10,o),
(401,-10,cs)
);
},
{
closed = 1;
nodes = (
(164,267,l),
(164,218,l),
(325,460,l),
(298,460,l),
(298,267,l)
);
}
);
width = 610;
},
{
background = {
shapes = (
{
closed = 1;
nodes = (
(405,0,l),
(432,166,l),
(543,166,l),
(549,205,l),
(438,205,l),
(517,705,l),
(482,705,l),
(53,199,l),
(48,166,l),
(390,166,l),
(363,0,l)
);
},
{
closed = 1;
nodes = (
(99,205,l),
(98,194,l),
(490,654,l),
(467,654,l),
(396,205,l)
);
}
);
};
layerId = "D8D4984A-F5A5-43C0-BF2B-5708C10C5E92";
shapes = (
{
closed = 1;
nodes = (
(398,-6,o),
(406,1,o),
(408,15,cs),
(432,166,l),
(528,166,ls),
(543,166,o),
(552,174,o),
(552,189,cs),
(552,200,o),
(544,205,o),
(530,205,cs),
(438,205,l),
(509,651,ls),
(512,667,o),
(504,676,o),
(491,676,cs),
(481,676,o),
(476,672,o),
(467,663,cs),
(60,211,ls),
(48,197,o),
(46,189,o),
(46,182,cs),
(46,173,o),
(55,166,o),
(70,166,cs),
(390,166,l),
(367,19,ls),
(365,4,o),
(371,-6,o),
(384,-6,cs)
);
},
{
closed = 1;
nodes = (
(96,205,l),
(95,194,l),
(486,625,l),
(463,625,l),
(396,205,l)
);
}
);
width = 600;
},
{
background = {
shapes = (
{
closed = 1;
nodes = (
(466,0,l),
(483,109,l),
(570,109,l),
(595,267,l),
(508,267,l),
(577,705,l),
(404,705,l),
(22,257,l),
(-1,109,l),
(278,109,l),
(261,0,l)
);
},
{
closed = 1;
nodes = (
(175,267,l),
(167,218,l),
(357,449,l),
(332,449,l),
(303,267,l)
);
}
);
};
layerId = "C92D7C27-2246-4784-91DF-7F4E0C5E615D";
shapes = (
{
closed = 1;
nodes = (
(432,-10,o),
(469,25,o),
(480,91,cs),
(483,109,l),
(493,109,ls),
(566,109,o),
(595,146,o),
(595,205,cs),
(595,245,o),
(565,267,o),
(517,267,cs),
(507,267,l),
(553,552,ls),
(565,626,o),
(529,670,o),
(445,670,cs),
(390,670,o),
(357,650,o),
(321,608,cs),
(70,313,ls),
(37,275,o),
(11,240,o),
(11,192,cs),
(11,139,o),
(43,109,o),
(118,109,cs),
(278,109,l),
(276,96,ls),
(265,27,o),
(300,-10,o),
(366,-10,cs)
);
},
{
closed = 1;
nodes = (
(175,267,l),
(167,218,l),
(357,449,l),
(332,449,l),
(303,267,l)
);
}
);
width = 600;
},
{
background = {
shapes = (
{
closed = 1;
nodes = (
(459,0,l),
(459,134,l),
(558,134,l),
(558,240,l),
(459,240,l),
(459,705,l),
(353,705,l),
(24,228,l),
(24,134,l),
(331,134,l),
(331,0,l)
);
},
{
closed = 1;
nodes = (
(124,240,l),
(124,206,l),
(360,552,l),
(331,552,l),
(331,240,l)
);
}
);
};
layerId = "18203F29-5161-4D9B-8394-C173CC5E27D4";
shapes = (
{
closed = 1;
nodes = (
(435,-8,o),
(459,15,o),
(459,56,cs),
(459,134,l),
(508,134,ls),
(546,134,o),
(566,152,o),
(566,187,cs),
(566,222,o),
(546,240,o),
(508,240,cs),
(459,240,l),
(459,614,ls),
(459,665,o),
(415,678,o),
(380,678,cs),
(350,678,o),
(329,662,o),
(310,635,cs),
(55,273,ls),
(26,232,o),
(16,209,o),
(16,187,cs),
(16,151,o),
(43,134,o),
(84,134,cs),
(331,134,l),
(331,56,ls),
(331,15,o),
(355,-8,o),
(395,-8,cs)
);
},
{
closed = 1;
nodes = (
(133,240,l),
(133,206,l),
(360,538,l),
(331,538,l),
(331,240,l)
);
}
);
width = 582;
},
{
background = {
shapes = (
{
closed = 1;
nodes = (
(439,0,l),
(460,134,l),
(557,134,l),
(572,240,l),
(475,240,l),
(549,705,l),
(443,705,l),
(38,228,l),
(24,134,l),
(332,134,l),
(311,0,l)
);
},
{
closed = 1;
nodes = (
(137,240,l),
(133,206,l),
(424,552,l),
(398,552,l),
(348,240,l)
);
}
);
};
layerId = "8FF16B21-C988-4EC9-A448-39B9B4A4BD78";
shapes = (
{
closed = 1;
nodes = (
(417,-8,o),
(441,13,o),
(447,53,cs),
(460,134,l),
(513,134,ls),
(559,134,o),
(576,160,o),
(576,197,cs),
(576,223,o),
(559,240,o),
(526,240,cs),
(475,240,l),
(533,602,ls),
(540,647,o),
(518,673,o),
(482,673,cs),
(449,673,o),
(432,662,o),
(408,636,cs),
(67,262,ls),
(43,236,o),
(29,215,o),
(29,187,cs),
(29,156,o),
(51,134,o),
(96,134,cs),
(332,134,l),
(320,58,ls),
(313,16,o),
(334,-8,o),
(375,-8,cs)
);
},
{
closed = 1;
nodes = (
(137,240,l),
(133,206,l),
(418,517,l),
(392,517,l),
(348,240,l)
);
}
);
width = 600;
}
);
unicode = 52;
userData = {
com.typemytype.robofont.layerData = {
b = {
anchors = (
);
components = (
);
contours = (
);
lib = {
};
name = four;
unicodes = (
);
width = 1160;
};
};
};
}
{
color = 6;
glyphname = seven;
layers = (
{
background = {
shapes = (
{
closed = 1;
nodes = (
(150,0,l),
(489,674,l),
(489,705,l),
(46,705,l),
(46,666,l),
(454,666,l),
(454,694,l),
(103,0,l)
);
}
);
};
layerId = "F1F93986-3ED8-4AAE-84C4-CA3EEECDDFA0";
shapes = (
{
closed = 1;
nodes = (
(144,-6,o),
(150,-1,o),
(155,10,cs),
(483,626,ls),
(488,636,o),
(489,642,o),
(489,651,cs),
(489,663,o),
(481,670,o),
(467,670,cs),
(62,670,ls),
(48,670,o),
(40,663,o),
(40,651,cs),
(40,639,o),
(48,631,o),
(62,631,cs),
(454,631,l),
(454,659,l),
(115,24,ls),
(106,6,o),
(120,-6,o),
(132,-6,cs)
);
}
);
width = 537;
},
{
background = {
shapes = (
{
closed = 1;
nodes = (
(261,0,l),
(560,544,l),
(560,705,l),
(21,705,l),
(21,531,l),
(357,531,l),
(357,589,l),
(26,0,l)
);
}
);
};
layerId = "4121B50C-FD42-45C5-8FBE-41E76D98F91E";
shapes = (
{
closed = 1;
nodes = (
(230,-10,o),
(267,11,o),
(292,57,cs),
(512,457,ls),
(534,497,o),
(551,530,o),
(551,580,cs),
(551,637,o),
(509,670,o),
(451,670,cs),
(107,670,ls),
(49,670,o),
(10,640,o),
(10,583,cs),
(10,526,o),
(49,496,o),
(107,496,cs),
(338,496,l),
(338,554,l),
(95,123,ls),
(54,51,o),
(88,-10,o),
(170,-10,cs)
);
}
);
width = 580;
},
{
background = {
shapes = (
{
closed = 1;
nodes = (
(146,0,l),
(589,674,l),
(594,705,l),
(151,705,l),
(145,666,l),
(554,666,l),
(555,695,l),
(96,0,l)
);
}
);
};
layerId = "D8D4984A-F5A5-43C0-BF2B-5708C10C5E92";
shapes = (
{
closed = 1;
nodes = (
(137,-6,o),
(145,-2,o),
(153,10,cs),
(558,627,ls),
(565,637,o),
(569,643,o),
(569,653,cs),
(569,664,o),
(561,670,o),
(546,670,cs),
(143,670,ls),
(129,670,o),
(119,662,o),
(119,648,cs),
(119,637,o),
(127,631,o),
(141,631,cs),
(531,631,l),
(532,660,l),
(117,31,ls),
(104,11,o),
(110,-6,o),
(129,-6,cs)
);
}
);
width = 600;
},
{
background = {
shapes = (
{
closed = 1;
nodes = (
(238,0,l),
(617,544,l),
(642,705,l),
(103,705,l),
(75,527,l),
(414,527,l),
(415,589,l),
(-3,0,l)
);
}
);
};
layerId = "C92D7C27-2246-4784-91DF-7F4E0C5E615D";
shapes = (
{
closed = 1;
nodes = (
(209,-10,o),
(244,8,o),
(278,57,cs),
(580,491,ls),
(618,546,o),
(637,580,o),
(637,625,cs),
(637,673,o),
(615,705,o),
(534,705,cs),
(180,705,ls),
(113,705,o),
(78,668,o),
(78,606,cs),
(78,555,o),
(113,527,o),
(175,527,cs),
(414,527,l),
(415,589,l),
(89,130,ls),
(35,53,o),
(75,-10,o),
(155,-10,cs)
);
}
);
width = 600;
},
{
background = {
shapes = (
{
closed = 1;
nodes = (
(200,0,l),
(519,609,l),
(519,705,l),
(28,705,l),
(28,598,l),
(400,598,l),
(400,642,l),
(59,0,l)
);
}
);
};
layerId = "18203F29-5161-4D9B-8394-C173CC5E27D4";
shapes = (
{
closed = 1;
nodes = (
(181,-8,o),
(203,5,o),
(218,34,cs),
(483,542,ls),
(496,567,o),
(505,586,o),
(505,616,cs),
(505,650,o),
(480,670,o),
(444,670,cs),
(76,670,ls),
(40,670,o),
(20,651,o),
(20,616,cs),
(20,582,o),
(40,563,o),
(76,563,cs),
(381,563,l),
(381,607,l),
(98,74,ls),
(74,29,o),
(98,-8,o),
(145,-8,cs)
);
}
);
width = 535;
},
{
background = {
shapes = (
{
closed = 1;
nodes = (
(192,0,l),
(603,609,l),
(618,705,l),
(127,705,l),
(110,598,l),
(484,598,l),
(485,642,l),
(47,0,l)
);
}
);
};
layerId = "8FF16B21-C988-4EC9-A448-39B9B4A4BD78";
shapes = (
{
closed = 1;
nodes = (
(174,-8,o),
(196,6,o),
(216,35,cs),
(556,540,ls),
(578,572,o),
(591,594,o),
(591,622,cs),
(591,651,o),
(574,670,o),
(526,670,cs),
(149,670,ls),
(109,670,o),
(86,648,o),
(86,610,cs),
(86,579,o),
(108,563,o),
(146,563,cs),
(460,563,l),
(461,607,l),
(103,81,ls),
(71,34,o),
(94,-8,o),
(143,-8,cs)
);
}
);
width = 600;
}
);
unicode = 55;
userData = {
com.typemytype.robofont.layerData = {
b = {
anchors = (
);
components = (
);
contours = (
);
lib = {
};
name = seven;
unicodes = (
);
width = 1160;
};
};
};
}
{
color = 6;
glyphname = eight;
layers = (
{
background = {
shapes = (
{
closed = 1;
nodes = (
(453,-8,o),
(542,62,o),
(542,184,cs),
(542,281,o),
(478,350,o),
(382,363,c),
(382,354,l),
(471,373,o),
(526,443,o),
(526,527,cs),
(526,644,o),
(437,713,o),
(300,713,cs),
(163,713,o),
(74,644,o),
(74,527,cs),
(74,442,o),
(129,373,o),
(218,354,c),
(218,363,l),
(122,350,o),
(58,281,o),
(58,184,cs),
(58,62,o),
(147,-8,o),
(300,-8,cs)
);
},
{
closed = 1;
nodes = (
(170,32,o),
(102,82,o),
(102,185,cs),
(102,288,o),
(170,337,o),
(300,337,cs),
(430,337,o),
(498,288,o),
(498,185,cs),
(498,82,o),
(430,32,o),
(300,32,cs)
);
},
{
closed = 1;
nodes = (
(186,377,o),
(118,433,o),
(118,526,cs),
(118,619,o),
(186,673,o),
(300,673,cs),
(414,673,o),
(482,619,o),
(482,526,cs),
(482,433,o),
(414,377,o),
(300,377,cs)
);
}
);
};
layerId = "F1F93986-3ED8-4AAE-84C4-CA3EEECDDFA0";
shapes = (
{
closed = 1;
nodes = (
(453,-8,o),
(537,62,o),
(537,184,cs),
(537,281,o),
(473,333,o),
(382,346,c),
(382,337,l),
(466,356,o),
(521,408,o),
(521,492,cs),
(521,609,o),
(437,678,o),
(300,678,cs),
(163,678,o),
(79,609,o),
(79,492,cs),
(79,407,o),
(134,356,o),
(218,337,c),
(218,346,l),
(127,333,o),
(63,281,o),
(63,184,cs),
(63,62,o),
(147,-8,o),
(300,-8,cs)
);
},
{
closed = 1;
nodes = (
(170,32,o),
(107,82,o),
(107,185,cs),
(107,288,o),
(170,320,o),
(300,320,cs),
(430,320,o),
(493,288,o),
(493,185,cs),
(493,82,o),
(430,32,o),
(300,32,cs)
);
},
{
closed = 1;
nodes = (
(186,360,o),
(123,398,o),
(123,491,cs),
(123,584,o),
(186,638,o),
(300,638,cs),
(414,638,o),
(477,584,o),
(477,491,cs),
(477,398,o),
(414,360,o),
(300,360,cs)
);
}
);
width = 600;
},
{
background = {
shapes = (
{
closed = 1;
nodes = (
(475,-12,o),
(582,66,o),
(582,195,cs),
(582,294,o),
(517,365,o),
(428,379,c),
(428,347,l),
(506,359,o),
(563,429,o),
(563,522,cs),
(563,643,o),
(462,717,o),
(300,717,cs),
(138,717,o),
(37,643,o),
(37,522,cs),
(37,431,o),
(94,362,o),
(176,345,c),
(176,379,l),
(85,368,o),
(18,297,o),
(18,195,cs),
(18,66,o),
(125,-12,o),
(300,-12,cs)
);
},
{
closed = 1;
nodes = (
(243,148,o),
(211,171,o),
(211,212,cs),
(211,253,o),
(243,276,o),
(300,276,cs),
(357,276,o),
(389,253,o),
(389,212,cs),
(389,171,o),
(357,148,o),
(300,148,cs)
);
},
{
closed = 1;
nodes = (
(256,436,o),
(231,460,o),
(231,497,cs),
(231,533,o),
(256,557,o),
(300,557,cs),
(344,557,o),
(369,533,o),
(369,497,cs),
(369,460,o),
(344,436,o),
(300,436,cs)
);
}
);
};
layerId = "4121B50C-FD42-45C5-8FBE-41E76D98F91E";
shapes = (
{
closed = 1;
nodes = (
(475,-12,o),
(582,66,o),
(582,195,cs),
(582,294,o),
(517,348,o),
(428,362,c),
(428,330,l),
(506,342,o),
(563,394,o),
(563,487,cs),
(563,608,o),
(462,682,o),
(300,682,cs),
(138,682,o),
(37,608,o),
(37,487,cs),
(37,396,o),
(94,345,o),
(176,328,c),
(176,362,l),
(85,351,o),
(18,297,o),
(18,195,cs),
(18,66,o),
(125,-12,o),
(300,-12,cs)
);
},
{
closed = 1;
nodes = (
(243,148,o),
(211,171,o),
(211,212,cs),
(211,253,o),
(243,276,o),
(300,276,cs),
(357,276,o),
(389,253,o),
(389,212,cs),
(389,171,o),
(357,148,o),
(300,148,cs)
);
},
{
closed = 1;
nodes = (
(256,401,o),
(231,425,o),
(231,462,cs),
(231,498,o),
(256,522,o),
(300,522,cs),
(344,522,o),
(369,498,o),
(369,462,cs),
(369,425,o),
(344,401,o),
(300,401,cs)
);
}
);
width = 600;
},
{
background = {
shapes = (
{
closed = 1;
nodes = (
(424,-8,o),
(536,69,o),
(536,209,cs),
(536,292,o),
(481,348,o),
(400,359,c),
(398,352,l),
(497,366,o),
(573,445,o),
(573,549,cs),
(573,648,o),
(486,713,o),
(367,713,cs),
(221,713,o),
(116,638,o),
(116,507,cs),
(116,432,o),
(158,376,o),
(234,359,c),
(236,364,l),
(127,358,o),
(46,267,o),
(46,155,cs),
(46,54,o),
(140,-8,o),
(267,-8,cs)
);
},
{
closed = 1;
nodes = (
(162,32,o),
(90,74,o),
(90,159,cs),
(90,278,o),
(178,337,o),
(316,337,cs),
(421,337,o),
(492,296,o),
(492,212,cs),
(492,92,o),
(407,32,o),
(269,32,cs)
);
},
{
closed = 1;
nodes = (
(223,377,o),
(160,423,o),
(160,505,cs),
(160,617,o),
(238,673,o),
(366,673,cs),
(465,673,o),
(529,628,o),
(529,548,cs),
(529,442,o),
(442,377,o),
(321,377,cs)
);
}
);
};
layerId = "D8D4984A-F5A5-43C0-BF2B-5708C10C5E92";
shapes = (
{
closed = 1;
nodes = (
(426,-8,o),
(538,69,o),
(538,209,cs),
(538,292,o),
(483,331,o),
(402,342,c),
(400,335,l),
(499,349,o),
(575,410,o),
(575,514,cs),
(575,613,o),
(488,678,o),
(369,678,cs),
(223,678,o),
(118,603,o),
(118,472,cs),
(118,397,o),
(160,359,o),
(236,342,c),
(238,347,l),
(129,341,o),
(48,267,o),
(48,155,cs),
(48,54,o),
(142,-8,o),
(269,-8,cs)
);
},
{
closed = 1;
nodes = (
(164,32,o),
(92,74,o),
(92,159,cs),
(92,278,o),
(180,320,o),
(318,320,cs),
(423,320,o),
(494,296,o),
(494,212,cs),
(494,92,o),
(409,32,o),
(271,32,cs)
);
},
{
closed = 1;
nodes = (
(225,360,o),
(162,388,o),
(162,470,cs),
(162,582,o),
(240,638,o),
(368,638,cs),
(467,638,o),
(531,593,o),
(531,513,cs),
(531,407,o),
(444,360,o),
(323,360,cs)
);
}
);
width = 600;
},
{
background = {
shapes = (
{
closed = 1;
nodes = (
(443,-11,o),
(574,64,o),
(574,208,cs),
(574,304,o),
(521,365,o),
(444,382,c),
(439,350,l),
(533,359,o),
(601,448,o),
(601,537,cs),
(601,645,o),
(509,715,o),
(356,715,cs),
(200,715,o),
(75,643,o),
(75,506,cs),
(75,419,o),
(121,360,o),
(191,341,c),
(196,375,l),
(90,369,o),
(10,289,o),
(10,184,cs),
(10,63,o),
(106,-11,o),
(274,-11,cs)
);
},
{
closed = 1;
nodes = (
(232,148,o),
(202,169,o),
(202,208,cs),
(202,250,o),
(238,276,o),
(297,276,cs),
(349,276,o),
(382,256,o),
(382,217,cs),
(382,175,o),
(343,148,o),
(284,148,cs)
);
},
{
closed = 1;
nodes = (
(291,436,o),
(269,455,o),
(269,487,cs),
(269,523,o),
(298,557,o),
(348,557,cs),
(386,557,o),
(407,537,o),
(407,504,cs),
(407,465,o),
(379,436,o),
(331,436,cs)
);
}
);
};
layerId = "C92D7C27-2246-4784-91DF-7F4E0C5E615D";
shapes = (
{
closed = 1;
nodes = (
(443,-11,o),
(574,64,o),
(574,208,cs),
(574,304,o),
(521,348,o),
(444,365,c),
(439,333,l),
(533,342,o),
(596,413,o),
(596,502,cs),
(596,610,o),
(504,680,o),
(351,680,cs),
(195,680,o),
(70,608,o),
(70,471,cs),
(70,384,o),
(121,343,o),
(191,324,c),
(196,358,l),
(90,352,o),
(10,289,o),
(10,184,cs),
(10,63,o),
(106,-11,o),
(274,-11,cs)
);
},
{
closed = 1;
nodes = (
(232,148,o),
(202,169,o),
(202,208,cs),
(202,250,o),
(238,276,o),
(297,276,cs),
(349,276,o),
(382,256,o),
(382,217,cs),
(382,175,o),
(343,148,o),
(284,148,cs)
);
},
{
closed = 1;
nodes = (
(291,419,o),
(269,438,o),
(269,470,cs),
(269,506,o),
(298,540,o),
(348,540,cs),
(386,540,o),
(407,520,o),
(407,487,cs),
(407,448,o),
(379,419,o),
(331,419,cs)
);
}
);
width = 600;
},
{
background = {
shapes = (
{
closed = 1;
nodes = (
(464,-10,o),
(562,64,o),
(562,190,cs),
(562,288,o),
(498,358,o),
(405,371,c),
(405,351,l),
(489,366,o),
(545,436,o),
(545,525,cs),
(545,644,o),
(450,715,o),
(300,715,cs),
(151,715,o),
(56,644,o),
(56,525,cs),
(56,437,o),
(112,368,o),
(197,350,c),
(197,371,l),
(104,359,o),
(38,289,o),
(38,190,cs),
(38,64,o),
(136,-10,o),
(300,-10,cs)
);
},
{
closed = 1;
nodes = (
(207,90,o),
(157,127,o),
(157,199,cs),
(157,271,o),
(207,307,o),
(300,307,cs),
(394,307,o),
(443,271,o),
(443,199,cs),
(443,127,o),
(394,90,o),
(300,90,cs)
);
},
{
closed = 1;
nodes = (
(221,407,o),
(175,447,o),
(175,512,cs),
(175,576,o),
(221,615,o),
(300,615,cs),
(379,615,o),
(426,576,o),
(426,512,cs),
(426,447,o),
(379,407,o),
(300,407,cs)
);
}
);
};
layerId = "18203F29-5161-4D9B-8394-C173CC5E27D4";
shapes = (
{
closed = 1;
nodes = (
(464,-10,o),
(562,64,o),
(562,190,cs),
(562,271,o),
(498,341,o),
(405,354,c),
(405,334,l),
(489,349,o),
(545,384,o),
(545,490,cs),
(545,609,o),
(450,680,o),
(300,680,cs),
(151,680,o),
(56,609,o),
(56,490,cs),
(56,385,o),
(112,351,o),
(197,333,c),
(197,354,l),
(104,342,o),
(38,272,o),
(38,190,cs),
(38,64,o),
(136,-10,o),
(300,-10,cs)
);
},
{
closed = 1;
nodes = (
(207,90,o),
(157,127,o),
(157,199,cs),
(157,254,o),
(207,290,o),
(300,290,cs),
(394,290,o),
(443,254,o),
(443,199,cs),
(443,127,o),
(394,90,o),
(300,90,cs)
);
},
{
closed = 1;
nodes = (
(221,390,o),
(175,415,o),
(175,477,cs),
(175,541,o),
(221,580,o),
(300,580,cs),
(379,580,o),
(426,541,o),
(426,477,cs),
(426,415,o),
(379,390,o),
(300,390,cs)
);
}
);
width = 600;
},
{
background = {
shapes = (
{
closed = 1;
nodes = (
(433,-10,o),
(554,67,o),
(554,209,cs),
(554,298,o),
(500,357,o),
(421,371,c),
(418,351,l),
(514,363,o),
(586,447,o),
(586,543,cs),
(586,647,o),
(497,714,o),
(361,714,cs),
(210,714,o),
(95,641,o),
(95,507,cs),
(95,426,o),
(139,368,o),
(212,350,c),
(215,370,l),
(108,364,o),
(27,278,o),
(27,170,cs),
(27,59,o),
(122,-10,o),
(270,-10,cs)
);
},
{
closed = 1;
nodes = (
(197,90,o),
(146,122,o),
(146,184,cs),
(146,264,o),
(208,307,o),
(306,307,cs),
(383,307,o),
(435,276,o),
(435,215,cs),
(435,134,o),
(373,90,o),
(276,90,cs)
);
},
{
closed = 1;
nodes = (
(256,407,o),
(214,439,o),
(214,496,cs),
(214,570,o),
(267,614,o),
(356,614,cs),
(425,614,o),
(467,583,o),
(467,526,cs),
(467,454,o),
(410,407,o),
(325,407,cs)
);
}
);
};
layerId = "8FF16B21-C988-4EC9-A448-39B9B4A4BD78";
shapes = (
{
closed = 1;
nodes = (
(435,-10,o),
(556,67,o),
(556,209,cs),
(556,281,o),
(502,340,o),
(423,354,c),
(420,334,l),
(516,346,o),
(588,412,o),
(588,508,cs),
(588,612,o),
(499,679,o),
(363,679,cs),
(212,679,o),
(97,606,o),
(97,472,cs),
(97,391,o),
(141,351,o),
(214,333,c),
(217,353,l),
(110,347,o),
(29,278,o),
(29,170,cs),
(29,59,o),
(124,-10,o),
(272,-10,cs)
);
},
{
closed = 1;
nodes = (
(199,90,o),
(148,122,o),
(148,184,cs),
(148,264,o),
(210,290,o),
(308,290,cs),
(385,290,o),
(437,259,o),
(437,215,cs),
(437,134,o),
(375,90,o),
(278,90,cs)
);
},
{
closed = 1;
nodes = (
(258,390,o),
(216,404,o),
(216,461,cs),
(216,535,o),
(269,579,o),
(358,579,cs),
(427,579,o),
(469,548,o),
(469,491,cs),
(469,419,o),
(412,390,o),
(327,390,cs)
);
}
);
width = 600;
}
);
unicode = 56;
userData = {
com.typemytype.robofont.layerData = {
b = {
anchors = (
);
components = (
);
contours = (
);
lib = {
};
name = eight;
unicodes = (
);
width = 1160;
};
};
};
}
{
color = 6;
glyphname = less;
layers = (
{
background = {
shapes = (
{
closed = 1;
nodes = (
(555,81,l),
(95,298,l),
(95,276,l),
(555,494,l),
(555,537,l),
(67,305,l),
(67,269,l),
(555,37,l)
);
}
);
};
layerId = "F1F93986-3ED8-4AAE-84C4-CA3EEECDDFA0";
shapes = (
{
pos = (395,0);
ref = greater;
scale = (-1,1);
}
);
width = 395;
},
{
background = {
shapes = (
{
closed = 1;
nodes = (
(620,177,l),
(179,337,l),
(179,236,l),
(620,396,l),
(620,546,l),
(132,364,l),
(132,211,l),
(620,28,l)
);
}
);
};
layerId = "4121B50C-FD42-45C5-8FBE-41E76D98F91E";
shapes = (
{
pos = (471,0);
ref = greater;
scale = (-1,1);
}
);
width = 471;
},
{
background = {
shapes = (
{
closed = 1;
nodes = (
(583,78,l),
(158,295,l),
(154,273,l),
(648,491,l),
(655,537,l),
(131,305,l),
(125,269,l),
(576,37,l)
);
}
);
};
layerId = "D8D4984A-F5A5-43C0-BF2B-5708C10C5E92";
shapes = (
{
pos = (460,0);
ref = greater;
scale = (-1,1);
}
);
width = 430;
},
{
background = {
shapes = (
{
closed = 1;
nodes = (
(675,169,l),
(261,329,l),
(245,228,l),
(710,388,l),
(735,546,l),
(218,364,l),
(194,211,l),
(653,28,l)
);
}
);
};
layerId = "C92D7C27-2246-4784-91DF-7F4E0C5E615D";
shapes = (
{
pos = (539,0);
ref = greater;
scale = (-1,1);
}
);
width = 519;
},
{
background = {
shapes = (
{
closed = 1;
nodes = (
(611,129,l),
(161,318,l),
(161,256,l),
(611,445,l),
(611,542,l),
(123,335,l),
(123,240,l),
(611,33,l)
);
}
);
};
layerId = "18203F29-5161-4D9B-8394-C173CC5E27D4";
shapes = (
{
pos = (462,0);
ref = greater;
scale = (-1,1);
}
);
width = 461;
},
{
background = {
shapes = (
{
closed = 1;
nodes = (
(660,124,l),
(240,312,l),
(230,251,l),
(710,440,l),
(726,542,l),
(205,335,l),
(190,240,l),
(645,33,l)
);
}
);
};
layerId = "8FF16B21-C988-4EC9-A448-39B9B4A4BD78";
shapes = (
{
pos = (530,0);
ref = greater;
scale = (-1,1);
}
);
width = 504;
}
);
unicode = 60;
}
{
color = 6;
glyphname = greater;
layers = (
{
background = {
shapes = (
{
closed = 1;
nodes = (
(186,269,l),
(186,305,l),
(-302,537,l),
(-302,494,l),
(158,276,l),
(158,298,l),
(-302,81,l),
(-302,37,l)
);
}
);
};
layerId = "F1F93986-3ED8-4AAE-84C4-CA3EEECDDFA0";
shapes = (
{
closed = 1;
nodes = (
(339,336,o),
(338,333,o),
(331,326,cs),
(79,77,ls),
(70,68,o),
(60,68,o),
(51,77,cs),
(44,84,o),
(42,94,o),
(50,102,cs),
(315,357,l),
(315,324,l),
(51,579,l),
(40,594,o),
(48,604,o),
(52,607,cs),
(60,614,o),
(68,617,o),
(79,606,cs),
(330,357,ls),
(338,349,o),
(339,347,o),
(339,341,cs)
);
}
);
width = 395;
},
{
background = {
shapes = (
{
closed = 1;
nodes = (
(224,211,l),
(224,364,l),
(-264,546,l),
(-264,396,l),
(177,236,l),
(177,337,l),
(-264,177,l),
(-264,28,l)
);
}
);
};
layerId = "4121B50C-FD42-45C5-8FBE-41E76D98F91E";
shapes = (
{
closed = 1;
nodes = (
(425,310,o),
(399,279,o),
(384,264,cs),
(173,51,ls),
(142,20,o),
(92,20,o),
(60,48,cs),
(31,77,o),
(27,128,o),
(60,161,cs),
(315,416,l),
(315,264,l),
(59,521,l),
(17,571,o),
(46,620,o),
(62,634,cs),
(101,667,o),
(145,658,o),
(173,630,cs),
(384,418,ls),
(399,403,o),
(425,381,o),
(425,340,cs)
);
}
);
width = 481;
},
{
background = {
shapes = (
{
closed = 1;
nodes = (
(658,269,l),
(664,305,l),
(212,537,l),
(205,496,l),
(631,278,l),
(635,300,l),
(140,83,l),
(133,37,l)
);
}
);
};
layerId = "D8D4984A-F5A5-43C0-BF2B-5708C10C5E92";
shapes = (
{
closed = 1;
nodes = (
(394,336,o),
(393,333,o),
(386,326,cs),
(134,77,ls),
(125,68,o),
(115,68,o),
(106,77,cs),
(99,84,o),
(97,94,o),
(105,102,cs),
(370,357,l),
(370,324,l),
(106,579,l),
(95,594,o),
(103,604,o),
(107,607,cs),
(115,614,o),
(123,617,o),
(134,606,cs),
(385,357,ls),
(393,349,o),
(394,347,o),
(394,341,cs)
);
}
);
width = 435;
},
{
background = {
shapes = (
{
closed = 1;
nodes = (
(644,211,l),
(668,364,l),
(209,546,l),
(186,404,l),
(601,244,l),
(617,345,l),
(152,185,l),
(127,28,l)
);
}
);
};
layerId = "C92D7C27-2246-4784-91DF-7F4E0C5E615D";
shapes = (
{
closed = 1;
nodes = (
(478,310,o),
(452,279,o),
(437,264,cs),
(226,51,ls),
(195,20,o),
(145,20,o),
(113,48,cs),
(84,77,o),
(80,128,o),
(113,161,cs),
(368,416,l),
(368,264,l),
(112,521,l),
(70,571,o),
(99,620,o),
(115,634,cs),
(154,667,o),
(198,658,o),
(226,630,cs),
(437,418,ls),
(452,403,o),
(478,381,o),
(478,340,cs)
);
}
);
width = 520;
},
{
background = {
shapes = (
{
closed = 1;
nodes = (
(204,240,l),
(204,335,l),
(-284,542,l),
(-284,445,l),
(167,256,l),
(167,318,l),
(-284,129,l),
(-284,33,l)
);
}
);
};
layerId = "18203F29-5161-4D9B-8394-C173CC5E27D4";
shapes = (
{
closed = 1;
nodes = (
(410,312,o),
(391,296,o),
(377,282,cs),
(143,49,ls),
(120,26,o),
(83,25,o),
(59,46,cs),
(38,67,o),
(36,108,o),
(59,129,cs),
(313,368,l),
(313,312,l),
(58,551,l),
(28,589,o),
(48,624,o),
(60,634,cs),
(89,660,o),
(122,653,o),
(143,632,cs),
(377,399,ls),
(392,385,o),
(410,369,o),
(410,340,cs)
);
}
);
width = 461;
},
{
background = {
shapes = (
{
closed = 1;
nodes = (
(655,240,l),
(670,335,l),
(215,542,l),
(200,450,l),
(620,261,l),
(630,323,l),
(150,134,l),
(134,33,l)
);
}
);
};
layerId = "8FF16B21-C988-4EC9-A448-39B9B4A4BD78";
shapes = (
{
closed = 1;
nodes = (
(466,312,o),
(447,296,o),
(433,282,cs),
(199,49,ls),
(176,26,o),
(139,25,o),
(115,46,cs),
(94,67,o),
(92,108,o),
(115,129,cs),
(369,368,l),
(369,312,l),
(114,551,l),
(84,589,o),
(104,624,o),
(116,634,cs),
(145,660,o),
(178,653,o),
(199,632,cs),
(433,399,ls),
(448,385,o),
(466,369,o),
(466,340,cs)
);
}
);
width = 503;
}
);
unicode = 62;
}
{
color = 6;
glyphname = at;
kernLeft = O;
kernRight = O;
layers = (
{
background = {
shapes = (
{
closed = 1;
nodes = (
(606,-162,o),
(711,-121,o),
(776,-47,c),
(749,-15,l),
(693,-83,o),
(598,-123,o),
(484,-123,cs),
(254,-123,o),
(109,27,o),
(109,277,cs),
(109,513,o),
(265,674,o),
(493,674,cs),
(695,674,o),
(837,539,o),
(837,346,cs),
(837,195,o),
(778,96,o),
(691,96,cs),
(645,96,o),
(623,120,o),
(623,168,cs),
(623,180,o),
(624,194,o),
(627,209,cs),
(674,484,l),
(632,484,l),
(616,389,l),
(623,389,l),
(611,453,o),
(561,492,o),
(487,492,cs),
(363,492,o),
(269,384,o),
(269,236,cs),
(269,125,o),
(327,59,o),
(427,59,cs),
(491,59,o),
(557,99,o),
(592,169,c),
(584,188,l),
(570,110,o),
(611,59,o),
(688,59,cs),
(801,59,o),
(876,172,o),
(876,346,cs),
(876,564,o),
(720,713,o),
(494,713,cs),
(243,713,o),
(67,534,o),
(67,277,cs),
(67,6,o),
(231,-162,o),
(484,-162,cs)
);
},
{
closed = 1;
nodes = (
(354,98,o),
(312,147,o),
(312,236,cs),
(312,361,o),
(388,453,o),
(487,453,cs),
(566,453,o),
(603,412,o),
(603,327,cs),
(603,196,o),
(528,98,o),
(428,98,cs)
);
}
);
};
layerId = "F1F93986-3ED8-4AAE-84C4-CA3EEECDDFA0";
shapes = (
{
closed = 1;
nodes = (
(603,-162,o),
(702,-123,o),
(765,-59,cs),
(790,-33,o),
(759,-7,o),
(735,-31,cs),
(680,-87,o),
(591,-123,o),
(484,-123,cs),
(254,-123,o),
(109,27,o),
(109,277,cs),
(109,513,o),
(265,674,o),
(493,674,cs),
(695,674,o),
(837,539,o),
(837,346,cs),
(837,195,o),
(778,96,o),
(691,96,cs),
(645,96,o),
(623,120,o),
(623,168,cs),
(623,180,o),
(624,194,o),
(627,209,cs),
(671,466,ls),
(674,482,o),
(667,490,o),
(654,490,cs),
(641,490,o),
(632,484,o),
(629,467,cs),
(616,389,l),
(623,389,l),
(611,453,o),
(561,492,o),
(487,492,cs),
(363,492,o),
(269,384,o),
(269,236,cs),
(269,125,o),
(327,59,o),
(427,59,cs),
(491,59,o),
(557,99,o),
(592,169,c),
(584,188,l),
(570,110,o),
(611,59,o),
(688,59,cs),
(801,59,o),
(876,172,o),
(876,346,cs),
(876,564,o),
(720,713,o),
(494,713,cs),
(243,713,o),
(67,534,o),
(67,277,cs),
(67,6,o),
(231,-162,o),
(484,-162,cs)
);
},
{
closed = 1;
nodes = (
(354,98,o),
(312,147,o),
(312,236,cs),
(312,361,o),
(388,453,o),
(487,453,cs),
(566,453,o),
(603,412,o),
(603,327,cs),
(603,196,o),
(528,98,o),
(428,98,cs)
);
}
);
width = 943;
},
{
background = {
shapes = (
{
closed = 1;
nodes = (
(601,-168,o),
(699,-141,o),
(761,-95,c),
(709,6,l),
(646,-34,o),
(573,-53,o),
(488,-53,cs),
(296,-53,o),
(173,65,o),
(173,258,cs),
(173,472,o),
(303,602,o),
(511,602,cs),
(699,602,o),
(799,515,o),
(799,337,cs),
(799,238,o),
(767,170,o),
(725,170,cs),
(701,170,o),
(689,183,o),
(689,219,cs),
(689,236,o),
(692,258,o),
(697,287,cs),
(734,494,l),
(590,494,l),
(571,401,l),
(599,401,l),
(579,473,o),
(537,506,o),
(468,506,cs),
(345,506,o),
(258,400,o),
(258,256,cs),
(258,135,o),
(323,58,o),
(436,58,cs),
(517,58,o),
(581,111,o),
(613,223,c),
(560,183,l),
(577,102,o),
(631,58,o),
(715,58,cs),
(835,58,o),
(916,166,o),
(916,337,cs),
(916,570,o),
(758,717,o),
(511,717,cs),
(226,717,o),
(41,538,o),
(41,258,cs),
(41,8,o),
(226,-168,o),
(488,-168,cs)
);
},
{
closed = 1;
nodes = (
(433,178,o),
(412,205,o),
(412,258,cs),
(412,335,o),
(446,384,o),
(500,384,cs),
(539,384,o),
(556,359,o),
(556,316,cs),
(556,230,o),
(523,178,o),
(471,178,cs)
);
}
);
};
layerId = "4121B50C-FD42-45C5-8FBE-41E76D98F91E";
shapes = (
{
closed = 1;
nodes = (
(574,-168,o),
(652,-152,o),
(710,-125,cs),
(783,-91,o),
(755,22,o),
(675,-14,cs),
(620,-39,o),
(557,-53,o),
(488,-53,cs),
(296,-53,o),
(173,65,o),
(173,258,cs),
(173,472,o),
(303,602,o),
(511,602,cs),
(699,602,o),
(799,515,o),
(799,337,cs),
(799,238,o),
(767,170,o),
(725,170,cs),
(701,170,o),
(689,183,o),
(689,219,cs),
(689,236,o),
(692,258,o),
(697,287,cs),
(720,416,ls),
(729,465,o),
(705,494,o),
(656,494,cs),
(612,494,o),
(586,474,o),
(577,430,cs),
(571,401,l),
(599,401,l),
(579,473,o),
(537,506,o),
(468,506,cs),
(345,506,o),
(258,400,o),
(258,256,cs),
(258,135,o),
(323,58,o),
(436,58,cs),
(517,58,o),
(581,111,o),
(613,223,c),
(560,183,l),
(577,102,o),
(631,58,o),
(715,58,cs),
(835,58,o),
(916,166,o),
(916,337,cs),
(916,570,o),
(758,717,o),
(511,717,cs),
(226,717,o),
(41,538,o),
(41,258,cs),
(41,8,o),
(226,-168,o),
(488,-168,cs)
);
},
{
closed = 1;
nodes = (
(433,178,o),
(412,205,o),
(412,258,cs),
(412,335,o),
(446,384,o),
(500,384,cs),
(539,384,o),
(556,359,o),
(556,316,cs),
(556,230,o),
(523,178,o),
(471,178,cs)
);
}
);
width = 957;
},
{
background = {
shapes = (
{
closed = 1;
nodes = (
(617,-162,o),
(722,-121,o),
(787,-47,c),
(760,-15,l),
(704,-83,o),
(609,-123,o),
(495,-123,cs),
(265,-123,o),
(120,27,o),
(120,277,cs),
(120,513,o),
(276,674,o),
(504,674,cs),
(706,674,o),
(848,539,o),
(848,346,cs),
(848,195,o),
(789,96,o),
(702,96,cs),
(656,96,o),
(634,120,o),
(634,168,cs),
(634,180,o),
(635,194,o),
(638,209,cs),
(685,484,l),
(643,484,l),
(627,389,l),
(634,389,l),
(622,453,o),
(572,492,o),
(498,492,cs),
(374,492,o),
(280,384,o),
(280,236,cs),
(280,125,o),
(338,59,o),
(438,59,cs),
(502,59,o),
(568,99,o),
(603,169,c),
(595,188,l),
(581,110,o),
(622,59,o),
(699,59,cs),
(812,59,o),
(887,172,o),
(887,346,cs),
(887,564,o),
(731,713,o),
(505,713,cs),
(254,713,o),
(78,534,o),
(78,277,cs),
(78,6,o),
(242,-162,o),
(495,-162,cs)
);
},
{
closed = 1;
nodes = (
(365,98,o),
(323,147,o),
(323,236,cs),
(323,361,o),
(399,453,o),
(498,453,cs),
(577,453,o),
(614,412,o),
(614,327,cs),
(614,196,o),
(539,98,o),
(439,98,cs)
);
}
);
};
layerId = "D8D4984A-F5A5-43C0-BF2B-5708C10C5E92";
shapes = (
{
closed = 1;
nodes = (
(614,-162,o),
(714,-124,o),
(776,-59,cs),
(801,-33,o),
(770,-7,o),
(746,-31,cs),
(690,-87,o),
(602,-123,o),
(495,-123,cs),
(265,-123,o),
(120,27,o),
(120,277,cs),
(120,513,o),
(276,674,o),
(504,674,cs),
(706,674,o),
(848,539,o),
(848,346,cs),
(848,195,o),
(789,96,o),
(702,96,cs),
(656,96,o),
(634,120,o),
(634,168,cs),
(634,180,o),
(635,194,o),
(638,209,cs),
(682,466,ls),
(685,482,o),
(678,490,o),
(665,490,cs),
(652,490,o),
(643,484,o),
(640,467,cs),
(627,389,l),
(634,389,l),
(622,453,o),
(572,492,o),
(498,492,cs),
(374,492,o),
(280,384,o),
(280,236,cs),
(280,125,o),
(338,59,o),
(438,59,cs),
(502,59,o),
(568,99,o),
(603,169,c),
(595,188,l),
(581,110,o),
(622,59,o),
(699,59,cs),
(812,59,o),
(887,172,o),
(887,346,cs),
(887,564,o),
(731,713,o),
(505,713,cs),
(254,713,o),
(78,534,o),
(78,277,cs),
(78,6,o),
(242,-162,o),
(495,-162,cs)
);
},
{
closed = 1;
nodes = (
(365,98,o),
(323,147,o),
(323,236,cs),
(323,361,o),
(399,453,o),
(498,453,cs),
(577,453,o),
(614,412,o),
(614,327,cs),
(614,196,o),
(539,98,o),
(439,98,cs)
);
}
);
width = 943;
},
{
background = {
shapes = (
{
closed = 1;
nodes = (
(609,-168,o),
(707,-141,o),
(769,-95,c),
(717,6,l),
(654,-34,o),
(581,-53,o),
(496,-53,cs),
(304,-53,o),
(181,65,o),
(181,258,cs),
(181,472,o),
(311,602,o),
(519,602,cs),
(707,602,o),
(807,515,o),
(807,337,cs),
(807,238,o),
(775,170,o),
(733,170,cs),
(709,170,o),
(697,183,o),
(697,219,cs),
(697,236,o),
(700,258,o),
(705,287,cs),
(742,494,l),
(598,494,l),
(579,401,l),
(607,401,l),
(587,473,o),
(545,506,o),
(476,506,cs),
(353,506,o),
(266,400,o),
(266,256,cs),
(266,135,o),
(331,58,o),
(444,58,cs),
(525,58,o),
(589,111,o),
(621,223,c),
(568,183,l),
(585,102,o),
(639,58,o),
(723,58,cs),
(843,58,o),
(924,166,o),
(924,337,cs),
(924,570,o),
(766,717,o),
(519,717,cs),
(234,717,o),
(49,538,o),
(49,258,cs),
(49,8,o),
(234,-168,o),
(496,-168,cs)
);
},
{
closed = 1;
nodes = (
(441,178,o),
(420,205,o),
(420,258,cs),
(420,335,o),
(454,384,o),
(508,384,cs),
(547,384,o),
(564,359,o),
(564,316,cs),
(564,230,o),
(531,178,o),
(479,178,cs)
);
}
);
};
layerId = "C92D7C27-2246-4784-91DF-7F4E0C5E615D";
shapes = (
{
closed = 1;
nodes = (
(582,-168,o),
(660,-152,o),
(718,-125,cs),
(791,-91,o),
(763,22,o),
(683,-14,cs),
(628,-39,o),
(565,-53,o),
(496,-53,cs),
(304,-53,o),
(181,65,o),
(181,258,cs),
(181,472,o),
(311,602,o),
(519,602,cs),
(707,602,o),
(807,515,o),
(807,337,cs),
(807,238,o),
(775,170,o),
(733,170,cs),
(709,170,o),
(697,183,o),
(697,219,cs),
(697,236,o),
(700,258,o),
(705,287,cs),
(728,416,ls),
(737,465,o),
(713,494,o),
(664,494,cs),
(620,494,o),
(594,474,o),
(585,430,cs),
(579,401,l),
(607,401,l),
(587,473,o),
(545,506,o),
(476,506,cs),
(353,506,o),
(266,400,o),
(266,256,cs),
(266,135,o),
(331,58,o),
(444,58,cs),
(525,58,o),
(589,111,o),
(621,223,c),
(568,183,l),
(585,102,o),
(639,58,o),
(723,58,cs),
(843,58,o),
(924,166,o),
(924,337,cs),
(924,570,o),
(766,717,o),
(519,717,cs),
(234,717,o),
(49,538,o),
(49,258,cs),
(49,8,o),
(234,-168,o),
(496,-168,cs)
);
},
{
closed = 1;
nodes = (
(441,178,o),
(420,205,o),
(420,258,cs),
(420,335,o),
(454,384,o),
(508,384,cs),
(547,384,o),
(564,359,o),
(564,316,cs),
(564,230,o),
(531,178,o),
(479,178,cs)
);
}
);
width = 957;
},
{
background = {
shapes = (
{
closed = 1;
nodes = (
(604,-165,o),
(705,-131,o),
(769,-71,c),
(729,-5,l),
(670,-59,o),
(586,-88,o),
(486,-88,cs),
(275,-88,o),
(141,46,o),
(141,268,cs),
(141,493,o),
(284,638,o),
(502,638,cs),
(697,638,o),
(818,527,o),
(818,342,cs),
(818,217,o),
(773,133,o),
(708,133,cs),
(673,133,o),
(656,152,o),
(656,194,cs),
(656,208,o),
(658,226,o),
(662,248,cs),
(704,489,l),
(611,489,l),
(594,395,l),
(611,395,l),
(595,463,o),
(549,499,o),
(478,499,cs),
(354,499,o),
(264,392,o),
(264,246,cs),
(264,130,o),
(325,59,o),
(432,59,cs),
(504,59,o),
(569,105,o),
(603,196,c),
(572,186,l),
(574,106,o),
(621,59,o),
(702,59,cs),
(818,59,o),
(896,169,o),
(896,342,cs),
(896,567,o),
(739,715,o),
(503,715,cs),
(235,715,o),
(54,536,o),
(54,268,cs),
(54,7,o),
(229,-165,o),
(486,-165,cs)
);
},
{
closed = 1;
nodes = (
(394,138,o),
(362,176,o),
(362,247,cs),
(362,348,o),
(417,419,o),
(494,419,cs),
(553,419,o),
(580,386,o),
(580,322,cs),
(580,213,o),
(526,138,o),
(450,138,cs)
);
}
);
};
layerId = "18203F29-5161-4D9B-8394-C173CC5E27D4";
shapes = (
{
closed = 1;
nodes = (
(594,-165,o),
(683,-136,o),
(744,-92,cs),
(791,-58,o),
(751,7,o),
(702,-27,cs),
(644,-67,o),
(574,-88,o),
(486,-88,cs),
(275,-88,o),
(141,46,o),
(141,268,cs),
(141,493,o),
(284,638,o),
(502,638,cs),
(697,638,o),
(818,527,o),
(818,342,cs),
(818,217,o),
(773,133,o),
(708,133,cs),
(673,133,o),
(656,152,o),
(656,194,cs),
(656,208,o),
(658,226,o),
(662,248,cs),
(696,441,ls),
(702,474,o),
(686,492,o),
(655,492,cs),
(627,492,o),
(608,479,o),
(603,449,cs),
(594,395,l),
(611,395,l),
(595,463,o),
(549,499,o),
(478,499,cs),
(354,499,o),
(264,392,o),
(264,246,cs),
(264,130,o),
(325,59,o),
(432,59,cs),
(504,59,o),
(569,105,o),
(603,196,c),
(572,186,l),
(574,106,o),
(621,59,o),
(702,59,cs),
(818,59,o),
(896,169,o),
(896,342,cs),
(896,567,o),
(739,715,o),
(503,715,cs),
(235,715,o),
(54,536,o),
(54,268,cs),
(54,7,o),
(229,-165,o),
(486,-165,cs)
);
},
{
closed = 1;
nodes = (
(394,138,o),
(362,176,o),
(362,247,cs),
(362,348,o),
(417,419,o),
(494,419,cs),
(553,419,o),
(580,386,o),
(580,322,cs),
(580,213,o),
(526,138,o),
(450,138,cs)
);
}
);
width = 950;
},
{
background = {
shapes = (
{
closed = 1;
nodes = (
(614,-165,o),
(715,-131,o),
(779,-71,c),
(739,-5,l),
(680,-59,o),
(596,-88,o),
(496,-88,cs),
(285,-88,o),
(151,46,o),
(151,268,cs),
(151,493,o),
(294,638,o),
(512,638,cs),
(707,638,o),
(828,527,o),
(828,342,cs),
(828,217,o),
(783,133,o),
(718,133,cs),
(683,133,o),
(666,152,o),
(666,194,cs),
(666,208,o),
(668,226,o),
(672,248,cs),
(714,489,l),
(621,489,l),
(604,395,l),
(621,395,l),
(605,463,o),
(559,499,o),
(488,499,cs),
(364,499,o),
(274,392,o),
(274,246,cs),
(274,130,o),
(335,59,o),
(442,59,cs),
(514,59,o),
(579,105,o),
(613,196,c),
(582,186,l),
(584,106,o),
(631,59,o),
(712,59,cs),
(828,59,o),
(906,169,o),
(906,342,cs),
(906,567,o),
(749,715,o),
(513,715,cs),
(245,715,o),
(64,536,o),
(64,268,cs),
(64,7,o),
(239,-165,o),
(496,-165,cs)
);
},
{
closed = 1;
nodes = (
(404,138,o),
(372,176,o),
(372,247,cs),
(372,348,o),
(427,419,o),
(504,419,cs),
(563,419,o),
(590,386,o),
(590,322,cs),
(590,213,o),
(536,138,o),
(460,138,cs)
);
}
);
};
layerId = "8FF16B21-C988-4EC9-A448-39B9B4A4BD78";
shapes = (
{
closed = 1;
nodes = (
(598,-165,o),
(687,-140,o),
(752,-93,cs),
(799,-59,o),
(765,5,o),
(713,-26,cs),
(657,-66,o),
(584,-88,o),
(496,-88,cs),
(285,-88,o),
(151,46,o),
(151,268,cs),
(151,493,o),
(294,638,o),
(512,638,cs),
(707,638,o),
(828,527,o),
(828,342,cs),
(828,217,o),
(782,133,o),
(718,133,cs),
(683,133,o),
(666,152,o),
(666,194,cs),
(666,208,o),
(668,226,o),
(672,248,cs),
(705,441,ls),
(711,474,o),
(696,492,o),
(665,492,cs),
(636,492,o),
(619,479,o),
(613,449,cs),
(603,395,l),
(621,395,l),
(605,463,o),
(559,499,o),
(487,499,cs),
(364,499,o),
(273,392,o),
(273,246,cs),
(273,130,o),
(335,59,o),
(441,59,cs),
(514,59,o),
(579,105,o),
(612,196,c),
(582,186,l),
(583,106,o),
(631,59,o),
(711,59,cs),
(828,59,o),
(906,169,o),
(906,342,cs),
(906,567,o),
(749,715,o),
(512,715,cs),
(244,715,o),
(64,536,o),
(64,268,cs),
(64,7,o),
(238,-165,o),
(496,-165,cs)
);
},
{
closed = 1;
nodes = (
(404,138,o),
(372,176,o),
(372,247,cs),
(372,348,o),
(427,419,o),
(504,419,cs),
(563,419,o),
(590,386,o),
(590,322,cs),
(590,213,o),
(536,138,o),
(460,138,cs)
);
}
);
width = 950;
}
);
unicode = 64;
}
{
color = 6;
glyphname = A;
kernLeft = A;
kernRight = A;
layers = (
{
anchors = (
{
name = bottom;
pos = (333,0);
},
{
name = ogonek;
pos = (656,0);
},
{
name = top;
pos = (332,670);
}
);
background = {
anchors = (
{
name = bottom;
pos = (333,0);
},
{
name = ogonek;
pos = (656,0);
},
{
name = top;
pos = (333,705);
}
);
shapes = (
{
closed = 1;
nodes = (
(54,0,l),
(141,204,l),
(113,195,l),
(549,195,l),
(522,204,l),
(610,0,l),
(655,0,l),
(352,705,l),
(312,705,l),
(9,0,l)
);
},
{
closed = 1;
nodes = (
(333,648,l),
(512,228,l),
(532,234,l),
(130,234,l),
(152,228,l),
(331,648,l)
);
}
);
};
layerId = "F1F93986-3ED8-4AAE-84C4-CA3EEECDDFA0";
shapes = (
{
closed = 1;
nodes = (
(59,-10,o),
(74,-11,o),
(85,15,cs),
(155,184,l),
(126,175,l),
(536,175,l),
(508,184,l),
(578,15,ls),
(583,2,o),
(593,-13,o),
(611,-6,cs),
(627,0,o),
(624,19,o),
(620,30,cs),
(379,638,ls),
(366,670,o),
(350,676,o),
(332,676,cs),
(314,676,o),
(298,670,o),
(285,638,cs),
(44,30,ls),
(35,7,o),
(43,-3,o),
(52,-7,cs)
);
},
{
closed = 1;
nodes = (
(332,629,l),
(500,210,l),
(521,216,l),
(141,216,l),
(164,210,l),
(332,629,l)
);
}
);
width = 663;
},
{
anchors = (
{
name = bottom;
pos = (375,0);
},
{
name = ogonek;
pos = (714,0);
},
{
name = top;
pos = (374,705);
}
);
background = {
anchors = (
{
name = bottom;
pos = (375,0);
},
{
name = ogonek;
pos = (714,0);
},
{
name = top;
pos = (374,705);
}
);
shapes = (
{
closed = 1;
nodes = (
(169,0,l),
(251,191,l),
(171,131,l),
(578,131,l),
(498,191,l),
(580,0,l),
(794,0,l),
(459,705,l),
(290,705,l),
(-45,0,l)
);
},
{
closed = 1;
nodes = (
(375,483,l),
(478,238,l),
(508,295,l),
(241,295,l),
(271,238,l),
(373,483,l)
);
}
);
};
layerId = "4121B50C-FD42-45C5-8FBE-41E76D98F91E";
shapes = (
{
closed = 1;
nodes = (
(189,-10,o),
(212,27,o),
(238,89,cs),
(268,161,l),
(207,101,l),
(556,101,l),
(481,161,l),
(510,89,ls),
(535,26,o),
(564,-10,o),
(626,-10,cs),
(696,-10,o),
(729,44,o),
(696,120,cs),
(491,593,ls),
(465,652,o),
(428,680,o),
(375,680,cs),
(321,680,o),
(284,652,o),
(258,593,cs),
(52,120,ls),
(20,47,o),
(55,-10,o),
(128,-10,cs)
);
},
{
closed = 1;
nodes = (
(374,448,l),
(465,208,l),
(495,265,l),
(253,265,l),
(283,208,l),
(374,448,l)
);
}
);
width = 749;
},
{
anchors = (
{
name = bottom;
pos = (337,0);
},
{
name = ogonek;
pos = (645,0);
},
{
name = top;
pos = (434,705);
}
);
background = {
anchors = (
{
name = bottom;
pos = (337,0);
},
{
name = ogonek;
pos = (643,0);
},
{
name = top;
pos = (434,705);
}
);
shapes = (
{
closed = 1;
nodes = (
(46,0,l),
(166,204,l),
(134,195,l),
(570,195,l),
(546,204,l),
(601,0,l),
(643,0,l),
(452,705,l),
(412,705,l),
(-3,0,l)
);
},
{
closed = 1;
nodes = (
(427,648,l),
(539,228,l),
(559,234,l),
(157,234,l),
(180,228,l),
(425,648,l)
);
}
);
};
layerId = "D8D4984A-F5A5-43C0-BF2B-5708C10C5E92";
shapes = (
{
closed = 1;
nodes = (
(38,-6,o),
(46,-1,o),
(52,10,cs),
(166,204,l),
(134,195,l),
(570,195,l),
(546,204,l),
(596,16,ls),
(599,3,o),
(609,-6,o),
(620,-6,cs),
(633,-6,o),
(642,3,o),
(635,29,cs),
(455,660,ls),
(452,670,o),
(445,676,o),
(433,676,cs),
(422,676,o),
(413,672,o),
(407,661,cs),
(13,27,ls),
(2,8,o),
(13,-6,o),
(29,-6,cs)
);
},
{
closed = 1;
nodes = (
(427,613,l),
(539,228,l),
(559,234,l),
(157,234,l),
(180,228,l),
(425,613,l)
);
}
);
width = 716;
},
{
anchors = (
{
name = bottom;
pos = (368,0);
},
{
name = ogonek;
pos = (693,0);
},
{
name = top;
pos = (456,705);
}
);
background = {
anchors = (
{
name = bottom;
pos = (368,0);
},
{
name = ogonek;
pos = (693,0);
},
{
name = top;
pos = (456,705);
}
);
shapes = (
{
closed = 1;
nodes = (
(150,0,l),
(250,170,l),
(182,131,l),
(573,131,l),
(517,175,l),
(562,0,l),
(767,0,l),
(545,705,l),
(375,705,l),
(-72,0,l)
);
},
{
closed = 1;
nodes = (
(436,483,l),
(497,251,l),
(531,295,l),
(278,295,l),
(300,256,l),
(434,483,l)
);
}
);
};
layerId = "C92D7C27-2246-4784-91DF-7F4E0C5E615D";
shapes = (
{
closed = 1;
nodes = (
(124,-10,o),
(157,11,o),
(179,49,cs),
(250,170,l),
(182,131,l),
(573,131,l),
(517,175,l),
(540,82,ls),
(557,17,o),
(585,-10,o),
(648,-10,cs),
(712,-10,o),
(757,32,o),
(731,115,cs),
(570,589,ls),
(551,649,o),
(515,678,o),
(457,678,cs),
(399,678,o),
(368,657,o),
(336,607,cs),
(-1,111,ls),
(-44,43,o),
(-1,-10,o),
(75,-10,cs)
);
},
{
closed = 1;
nodes = (
(436,483,l),
(497,251,l),
(531,295,l),
(278,295,l),
(300,256,l),
(434,483,l)
);
}
);
width = 773;
},
{
anchors = (
{
name = bottom;
pos = (354,0);
},
{
name = ogonek;
pos = (685,0);
},
{
name = top;
pos = (354,705);
}
);
background = {
anchors = (
{
name = bottom;
pos = (354,0);
},
{
name = ogonek;
pos = (685,0);
},
{
name = top;
pos = (354,705);
}
);
shapes = (
{
closed = 1;
nodes = (
(112,0,l),
(196,198,l),
(142,163,l),
(564,163,l),
(510,198,l),
(595,0,l),
(725,0,l),
(406,705,l),
(301,705,l),
(-18,0,l)
);
},
{
closed = 1;
nodes = (
(354,566,l),
(495,233,l),
(520,265,l),
(186,265,l),
(212,233,l),
(352,566,l)
);
}
);
};
layerId = "18203F29-5161-4D9B-8394-C173CC5E27D4";
shapes = (
{
closed = 1;
nodes = (
(130,-8,o),
(146,6,o),
(163,47,cs),
(217,178,l),
(159,143,l),
(549,143,l),
(489,178,l),
(542,47,ls),
(557,9,o),
(576,-8,o),
(613,-8,cs),
(658,-8,o),
(678,28,o),
(659,74,cs),
(427,624,ls),
(411,662,o),
(385,678,o),
(354,678,cs),
(322,678,o),
(296,662,o),
(280,624,cs),
(47,74,ls),
(27,28,o),
(49,-8,o),
(96,-8,cs)
);
},
{
closed = 1;
nodes = (
(353,533,l),
(475,216,l),
(503,248,l),
(202,248,l),
(231,216,l),
(353,533,l)
);
}
);
width = 706;
},
{
anchors = (
{
name = bottom;
pos = (353,0);
},
{
name = ogonek;
pos = (664,0);
},
{
name = top;
pos = (445,705);
}
);
background = {
anchors = (
{
name = bottom;
pos = (353,0);
},
{
name = ogonek;
pos = (664,0);
},
{
name = top;
pos = (445,705);
}
);
shapes = (
{
closed = 1;
nodes = (
(98,0,l),
(208,187,l),
(158,163,l),
(572,163,l),
(532,190,l),
(582,0,l),
(705,0,l),
(499,705,l),
(394,705,l),
(-38,0,l)
);
},
{
closed = 1;
nodes = (
(432,566,l),
(518,240,l),
(545,265,l),
(218,265,l),
(240,242,l),
(430,566,l)
);
}
);
};
layerId = "8FF16B21-C988-4EC9-A448-39B9B4A4BD78";
shapes = (
{
closed = 1;
nodes = (
(81,-8,o),
(101,5,o),
(116,30,cs),
(208,187,l),
(158,163,l),
(572,163,l),
(532,190,l),
(569,49,ls),
(579,10,o),
(597,-8,o),
(634,-8,cs),
(673,-8,o),
(701,18,o),
(684,72,cs),
(512,626,ls),
(501,661,o),
(480,678,o),
(445,678,cs),
(411,678,o),
(392,664,o),
(372,634,cs),
(5,69,ls),
(-22,27,o),
(6,-8,o),
(52,-8,cs)
);
},
{
closed = 1;
nodes = (
(434,556,l),
(518,240,l),
(545,265,l),
(218,265,l),
(240,242,l),
(434,556,l)
);
}
);
width = 744;
}
);
unicode = 65;
userData = {
anchors = (
);
b = {
};
com.typemytype.robofont.layerData = {
b = {
anchors = (
);
components = (
);
contours = (
{
points = (
{
segmentType = line;
smooth = 0;
x = 403;
y = 502;
},
{
segmentType = line;
smooth = 0;
x = 703;
y = 1275;
},
{
segmentType = line;
smooth = 0;
x = 705;
y = 1275;
},
{
segmentType = line;
smooth = 0;
x = 1004;
y = 502;
}
);
},
{
points = (
{
segmentType = curve;
smooth = 1;
x = 150;
y = 0;
},
{
smooth = 0;
x = 181;
y = 0;
},
{
smooth = 0;
x = 214;
y = 15;
},
{
segmentType = curve;
smooth = 1;
x = 229;
y = 53;
},
{
segmentType = line;
smooth = 0;
x = 356;
y = 373;
},
{
segmentType = line;
smooth = 0;
x = 1051;
y = 373;
},
{
segmentType = line;
smooth = 1;
x = 1179;
y = 53;
},
{
smooth = 0;
x = 1193;
y = 17;
},
{
smooth = 0;
x = 1228;
y = 0;
},
{
segmentType = curve;
smooth = 1;
x = 1260;
y = 0;
},
{
smooth = 0;
x = 1306;
y = 0;
},
{
smooth = 0;
x = 1354;
y = 31;
},
{
segmentType = curve;
smooth = 1;
x = 1354;
y = 80;
},
{
smooth = 0;
x = 1354;
y = 87;
},
{
smooth = 0;
x = 1352;
y = 97;
},
{
segmentType = curve;
smooth = 0;
x = 1349;
y = 108;
},
{
segmentType = line;
smooth = 1;
x = 871;
y = 1288;
},
{
smooth = 0;
x = 817;
y = 1420;
},
{
smooth = 0;
x = 777;
y = 1430;
},
{
segmentType = curve;
smooth = 1;
x = 710;
y = 1430;
},
{
smooth = 0;
x = 644;
y = 1430;
},
{
smooth = 0;
x = 596;
y = 1413;
},
{
segmentType = curve;
smooth = 1;
x = 542;
y = 1280;
},
{
segmentType = line;
smooth = 1;
x = 66;
y = 108;
},
{
smooth = 0;
x = 62;
y = 97;
},
{
smooth = 0;
x = 60;
y = 87;
},
{
segmentType = curve;
smooth = 1;
x = 60;
y = 78;
},
{
smooth = 0;
x = 60;
y = 32;
},
{
smooth = 0;
x = 106;
y = 0;
}
);
}
);
lib = {
};
name = A;
unicodes = (
);
width = 1414;
};
};
components = (
);
contours = {
};
lib = {
};
name = A;
points = {
};
segmentType = line;
unicodes = (
);
width = 1445;
x = 718;
y = 1232;
};
}
{
color = 6;
glyphname = B;
kernLeft = H;
kernRight = B;
layers = (
{
anchors = (
{
name = bottom;
pos = (337,0);
},
{
name = top;
pos = (336,670);
}
);
background = {
anchors = (
{
name = bottom;
pos = (337,0);
},
{
name = top;
pos = (336,705);
}
);
shapes = (
{
closed = 1;
nodes = (
(367,0,ls),
(513,0,o),
(595,65,o),
(595,191,cs),
(595,292,o),
(531,355,o),
(431,365,c),
(431,351,l),
(521,370,o),
(579,431,o),
(579,520,cs),
(579,639,o),
(497,705,o),
(354,705,cs),
(96,705,l),
(96,0,l)
);
},
{
closed = 1;
nodes = (
(138,337,l),
(366,337,ls),
(489,337,o),
(551,290,o),
(551,188,cs),
(551,86,o),
(489,39,o),
(366,39,cs),
(138,39,l)
);
},
{
closed = 1;
nodes = (
(138,666,l),
(351,666,ls),
(471,666,o),
(535,615,o),
(535,521,cs),
(535,427,o),
(471,376,o),
(351,376,cs),
(138,376,l)
);
}
);
};
layerId = "F1F93986-3ED8-4AAE-84C4-CA3EEECDDFA0";
shapes = (
{
closed = 1;
nodes = (
(367,0,ls),
(513,0,o),
(595,65,o),
(595,191,cs),
(595,292,o),
(531,349,o),
(431,359,c),
(431,345,l),
(521,364,o),
(579,408,o),
(579,503,cs),
(579,587,o),
(497,670,o),
(354,670,cs),
(121,670,ls),
(105,670,o),
(96,661,o),
(96,645,cs),
(96,25,ls),
(96,9,o),
(105,0,o),
(121,0,cs)
);
},
{
closed = 1;
nodes = (
(138,331,l),
(366,331,ls),
(489,331,o),
(551,290,o),
(551,188,cs),
(551,86,o),
(489,39,o),
(366,39,cs),
(138,39,l)
);
},
{
closed = 1;
nodes = (
(138,631,l),
(351,631,ls),
(471,631,o),
(535,563,o),
(535,504,cs),
(535,404,o),
(471,370,o),
(351,370,cs),
(138,370,l)
);
}
);
width = 666;
},
{
anchors = (
{
name = bottom;
pos = (353,0);
},
{
name = top;
pos = (353,705);
}
);
background = {
anchors = (
{
name = bottom;
pos = (353,0);
},
{
name = top;
pos = (353,705);
}
);
shapes = (
{
closed = 1;
nodes = (
(424,0,ls),
(579,0,o),
(676,79,o),
(676,202,cs),
(676,294,o),
(624,355,o),
(529,375,c),
(529,358,l),
(608,379,o),
(657,441,o),
(657,523,cs),
(657,633,o),
(569,705,o),
(415,705,cs),
(57,705,l),
(57,0,l)
);
},
{
closed = 1;
nodes = (
(262,280,l),
(394,280,ls),
(450,280,o),
(473,259,o),
(473,218,cs),
(473,177,o),
(450,156,o),
(394,156,cs),
(262,156,l)
);
},
{
closed = 1;
nodes = (
(262,549,l),
(375,549,ls),
(431,549,o),
(453,533,o),
(453,493,cs),
(453,453,o),
(431,436,o),
(375,436,cs),
(262,436,l)
);
}
);
};
layerId = "4121B50C-FD42-45C5-8FBE-41E76D98F91E";
shapes = (
{
closed = 1;
nodes = (
(414,0,ls),
(569,0,o),
(666,79,o),
(666,202,cs),
(666,294,o),
(614,338,o),
(519,358,c),
(519,341,l),
(598,362,o),
(647,424,o),
(647,506,cs),
(647,616,o),
(559,670,o),
(405,670,cs),
(168,670,ls),
(96,670,o),
(57,631,o),
(57,559,cs),
(57,111,ls),
(57,39,o),
(96,0,o),
(168,0,cs)
);
},
{
closed = 1;
nodes = (
(262,280,l),
(384,280,ls),
(440,280,o),
(463,259,o),
(463,218,cs),
(463,177,o),
(440,156,o),
(384,156,cs),
(262,156,l)
);
},
{
closed = 1;
nodes = (
(262,532,l),
(365,532,ls),
(421,532,o),
(443,516,o),
(443,476,cs),
(443,436,o),
(421,419,o),
(365,419,cs),
(262,419,l)
);
}
);
width = 700;
},
{
anchors = (
{
name = bottom;
pos = (300,0);
},
{
name = top;
pos = (411,670);
}
);
background = {
anchors = (
{
name = bottom;
pos = (300,0);
},
{
name = top;
pos = (411,705);
}
);
shapes = (
{
closed = 1;
nodes = (
(346,0,ls),
(503,0,o),
(588,70,o),
(588,207,cs),
(588,290,o),
(532,349,o),
(443,363,c),
(443,349,l),
(554,363,o),
(625,434,o),
(625,541,cs),
(625,643,o),
(555,705,o),
(417,705,cs),
(170,705,l),
(58,0,l)
);
},
{
closed = 1;
nodes = (
(154,337,l),
(379,337,ls),
(485,337,o),
(544,292,o),
(544,206,cs),
(544,96,o),
(479,39,o),
(350,39,cs),
(107,39,l)
);
},
{
closed = 1;
nodes = (
(206,666,l),
(414,666,ls),
(527,666,o),
(581,622,o),
(581,540,cs),
(581,435,o),
(505,376,o),
(387,376,cs),
(160,376,l)
);
}
);
};
layerId = "D8D4984A-F5A5-43C0-BF2B-5708C10C5E92";
shapes = (
{
closed = 1;
nodes = (
(346,0,ls),
(503,0,o),
(588,70,o),
(588,207,cs),
(588,290,o),
(532,343,o),
(443,357,c),
(443,343,l),
(554,357,o),
(620,385,o),
(620,506,cs),
(620,594,o),
(550,670,o),
(412,670,cs),
(188,670,ls),
(173,670,o),
(164,663,o),
(161,647,cs),
(62,27,ls),
(59,10,o),
(68,0,o),
(85,0,cs)
);
},
{
closed = 1;
nodes = (
(153,331,l),
(378,331,ls),
(484,331,o),
(544,292,o),
(544,206,cs),
(544,96,o),
(479,39,o),
(350,39,cs),
(107,39,l)
);
},
{
closed = 1;
nodes = (
(201,631,l),
(409,631,ls),
(522,631,o),
(576,587,o),
(576,505,cs),
(576,394,o),
(505,370,o),
(387,370,cs),
(159,370,l)
);
}
);
width = 666;
},
{
anchors = (
{
name = bottom;
pos = (315,0);
},
{
name = top;
pos = (426,705);
}
);
background = {
anchors = (
{
name = bottom;
pos = (315,0);
},
{
name = top;
pos = (426,705);
}
);
shapes = (
{
closed = 1;
nodes = (
(397,0,ls),
(561,0,o),
(668,76,o),
(668,212,cs),
(668,293,o),
(619,355,o),
(532,372,c),
(532,355,l),
(630,373,o),
(699,437,o),
(699,534,cs),
(699,628,o),
(636,705,o),
(463,705,cs),
(130,705,l),
(18,0,l)
);
},
{
closed = 1;
nodes = (
(268,280,l),
(393,280,ls),
(440,280,o),
(465,263,o),
(465,227,cs),
(465,183,o),
(439,156,o),
(383,156,cs),
(248,156,l)
);
},
{
closed = 1;
nodes = (
(310,549,l),
(426,549,ls),
(475,549,o),
(495,533,o),
(495,505,cs),
(495,458,o),
(467,436,o),
(406,436,cs),
(292,436,l)
);
}
);
};
layerId = "C92D7C27-2246-4784-91DF-7F4E0C5E615D";
shapes = (
{
closed = 1;
nodes = (
(397,0,ls),
(561,0,o),
(668,76,o),
(668,212,cs),
(668,293,o),
(617,338,o),
(530,355,c),
(530,338,l),
(628,356,o),
(697,420,o),
(697,517,cs),
(697,611,o),
(630,670,o),
(457,670,cs),
(227,670,ls),
(159,670,o),
(119,635,o),
(108,568,cs),
(37,119,ls),
(25,43,o),
(63,0,o),
(139,0,cs)
);
},
{
closed = 1;
nodes = (
(268,280,l),
(393,280,ls),
(440,280,o),
(465,263,o),
(465,227,cs),
(465,183,o),
(439,156,o),
(383,156,cs),
(248,156,l)
);
},
{
closed = 1;
nodes = (
(307,532,l),
(423,532,ls),
(472,532,o),
(492,516,o),
(492,488,cs),
(492,441,o),
(464,419,o),
(403,419,cs),
(289,419,l)
);
}
);
width = 710;
},
{
anchors = (
{
name = bottom;
pos = (345,0);
},
{
name = top;
pos = (345,670);
}
);
background = {
anchors = (
{
name = bottom;
pos = (345,0);
},
{
name = top;
pos = (345,705);
}
);
shapes = (
{
closed = 1;
nodes = (
(396,0,ls),
(546,0,o),
(636,72,o),
(636,197,cs),
(636,293,o),
(578,355,o),
(480,370,c),
(480,355,l),
(565,375,o),
(618,436,o),
(618,522,cs),
(618,636,o),
(533,705,o),
(385,705,cs),
(77,705,l),
(77,0,l)
);
},
{
closed = 1;
nodes = (
(200,309,l),
(380,309,ls),
(470,309,o),
(512,275,o),
(512,203,cs),
(512,132,o),
(470,97,o),
(380,97,cs),
(200,97,l)
);
},
{
closed = 1;
nodes = (
(200,608,l),
(363,608,ls),
(451,608,o),
(494,574,o),
(494,507,cs),
(494,440,o),
(451,406,o),
(363,406,cs),
(200,406,l)
);
}
);
};
layerId = "18203F29-5161-4D9B-8394-C173CC5E27D4";
shapes = (
{
closed = 1;
nodes = (
(391,0,ls),
(541,0,o),
(621,72,o),
(621,197,cs),
(621,287,o),
(568,345,o),
(470,360,c),
(470,345,l),
(555,365,o),
(601,432,o),
(601,505,cs),
(601,584,o),
(528,670,o),
(380,670,cs),
(145,670,ls),
(101,670,o),
(77,646,o),
(77,602,cs),
(77,68,ls),
(77,24,o),
(101,0,o),
(145,0,cs)
);
},
{
closed = 1;
nodes = (
(200,294,l),
(375,294,ls),
(460,294,o),
(502,275,o),
(502,203,cs),
(502,132,o),
(460,102,o),
(375,102,cs),
(200,102,l)
);
},
{
closed = 1;
nodes = (
(200,568,l),
(358,568,ls),
(446,568,o),
(482,533,o),
(482,490,cs),
(482,436,o),
(441,401,o),
(358,401,cs),
(200,401,l)
);
}
);
width = 678;
},
{
anchors = (
{
name = bottom;
pos = (308,0);
},
{
name = top;
pos = (419,670);
}
);
background = {
anchors = (
{
name = bottom;
pos = (308,0);
},
{
name = top;
pos = (419,705);
}
);
shapes = (
{
closed = 1;
nodes = (
(372,0,ls),
(532,0,o),
(628,73,o),
(628,210,cs),
(628,292,o),
(576,352,o),
(488,368,c),
(488,352,l),
(592,368,o),
(662,436,o),
(662,538,cs),
(662,636,o),
(596,705,o),
(440,705,cs),
(150,705,l),
(38,0,l)
);
},
{
closed = 1;
nodes = (
(210,309,l),
(385,309,ls),
(462,309,o),
(504,278,o),
(504,217,cs),
(504,140,o),
(458,97,o),
(366,97,cs),
(176,97,l)
);
},
{
closed = 1;
nodes = (
(258,608,l),
(420,608,ls),
(501,608,o),
(538,578,o),
(538,523,cs),
(538,447,o),
(486,406,o),
(397,406,cs),
(226,406,l)
);
}
);
};
layerId = "8FF16B21-C988-4EC9-A448-39B9B4A4BD78";
shapes = (
{
closed = 1;
nodes = (
(372,0,ls),
(532,0,o),
(628,73,o),
(628,210,cs),
(628,292,o),
(576,352,o),
(488,368,c),
(488,352,l),
(592,368,o),
(662,419,o),
(662,521,cs),
(662,584,o),
(596,670,o),
(440,670,cs),
(207,670,ls),
(166,670,o),
(140,649,o),
(134,608,cs),
(50,73,ls),
(43,27,o),
(66,0,o),
(112,0,cs)
);
},
{
closed = 1;
nodes = (
(210,309,l),
(385,309,ls),
(462,309,o),
(504,278,o),
(504,217,cs),
(504,140,o),
(458,97,o),
(366,97,cs),
(176,97,l)
);
},
{
closed = 1;
nodes = (
(252,573,l),
(414,573,ls),
(495,573,o),
(538,540,o),
(538,506,cs),
(538,439,o),
(486,406,o),
(397,406,cs),
(226,406,l)
);
}
);
width = 688;
}
);
unicode = 66;
userData = {
anchors = (
);
b = {
};
com.typemytype.robofont.layerData = {
b = {
anchors = (
);
components = (
);
contours = (
{
points = (
{
segmentType = curve;
smooth = 1;
x = 266;
y = 0;
},
{
segmentType = line;
smooth = 1;
x = 1035;
y = 0;
},
{
smooth = 0;
x = 1084;
y = 0;
},
{
smooth = 0;
x = 1108;
y = 36;
},
{
segmentType = curve;
smooth = 1;
x = 1108;
y = 73;
},
{
smooth = 0;
x = 1108;
y = 109;
},
{
smooth = 0;
x = 1084;
y = 145;
},
{
segmentType = curve;
smooth = 1;
x = 1035;
y = 145;
},
{
segmentType = line;
smooth = 0;
x = 353;
y = 145;
},
{
segmentType = line;
smooth = 0;
x = 353;
y = 662;
},
{
segmentType = line;
smooth = 1;
x = 975;
y = 662;
},
{
smooth = 0;
x = 1024;
y = 662;
},
{
smooth = 0;
x = 1049;
y = 698;
},
{
segmentType = curve;
smooth = 1;
x = 1049;
y = 734;
},
{
smooth = 0;
x = 1049;
y = 770;
},
{
smooth = 0;
x = 1026;
y = 806;
},
{
segmentType = curve;
smooth = 1;
x = 975;
y = 806;
},
{
segmentType = line;
smooth = 0;
x = 353;
y = 806;
},
{
segmentType = line;
smooth = 0;
x = 353;
y = 1281;
},
{
segmentType = line;
smooth = 1;
x = 1007;
y = 1281;
},
{
smooth = 0;
x = 1056;
y = 1281;
},
{
smooth = 0;
x = 1080;
y = 1317;
},
{
segmentType = curve;
smooth = 1;
x = 1080;
y = 1354;
},
{
smooth = 0;
x = 1080;
y = 1390;
},
{
smooth = 0;
x = 1056;
y = 1426;
},
{
segmentType = curve;
smooth = 1;
x = 1007;
y = 1426;
},
{
segmentType = line;
smooth = 1;
x = 261;
y = 1426;
},
{
smooth = 0;
x = 213;
y = 1426;
},
{
smooth = 0;
x = 178;
y = 1383;
},
{
segmentType = curve;
smooth = 1;
x = 178;
y = 1340;
},
{
segmentType = line;
smooth = 1;
x = 178;
y = 86;
},
{
smooth = 0;
x = 178;
y = 41;
},
{
smooth = 0;
x = 222;
y = 0;
}
);
}
);
lib = {
};
name = B;
unicodes = (
);
width = 1292;
};
};
components = (
);
contours = {
};
lib = {
};
name = B;
points = {
};
segmentType = curve;
unicodes = (
);
width = 1395;
x = 676;
y = 1260;
};
}
{
color = 6;
glyphname = C;
kernLeft = O;
kernRight = C;
layers = (
{
anchors = (
{
name = bottom;
pos = (380,0);
},
{
name = top;
pos = (382,670);
}
);
background = {
anchors = (
{
name = bottom;
pos = (380,0);
},
{
name = top;
pos = (382,705);
}
);
shapes = (
{
closed = 1;
nodes = (
(479,-8,o),
(561,24,o),
(619,87,c),
(597,122,l),
(534,59,o),
(468,33,o),
(380,33,cs),
(208,33,o),
(112,150,o),
(112,353,cs),
(112,555,o),
(208,672,o),
(380,672,cs),
(468,672,o),
(534,646,o),
(597,583,c),
(619,618,l),
(561,681,o),
(479,713,o),
(381,713,cs),
(183,713,o),
(67,576,o),
(67,353,cs),
(67,129,o),
(183,-8,o),
(381,-8,cs)
);
}
);
};
layerId = "F1F93986-3ED8-4AAE-84C4-CA3EEECDDFA0";
shapes = (
{
closed = 1;
nodes = (
(474,-8,o),
(554,23,o),
(608,84,cs),
(628,106,o),
(600,137,o),
(577,112,cs),
(527,58,o),
(460,33,o),
(380,33,cs),
(213,33,o),
(101,136,o),
(101,334,cs),
(101,496,o),
(213,637,o),
(380,637,cs),
(462,637,o),
(527,613,o),
(577,560,cs),
(600,535,o),
(628,564,o),
(606,589,cs),
(556,647,o),
(472,678,o),
(381,678,cs),
(188,678,o),
(56,517,o),
(56,334,cs),
(56,115,o),
(188,-8,o),
(381,-8,cs)
);
}
);
width = 673;
},
{
anchors = (
{
name = bottom;
pos = (387,0);
},
{
name = top;
pos = (386,670);
}
);
background = {
anchors = (
{
name = bottom;
pos = (387,0);
},
{
name = top;
pos = (386,705);
}
);
shapes = (
{
closed = 1;
nodes = (
(506,-12,o),
(602,19,o),
(654,63,c),
(592,232,l),
(534,193,o),
(478,175,o),
(422,175,cs),
(308,175,o),
(253,237,o),
(253,353,cs),
(253,468,o),
(308,530,o),
(422,530,cs),
(478,530,o),
(534,512,o),
(592,473,c),
(654,642,l),
(602,686,o),
(506,717,o),
(414,717,cs),
(172,717,o),
(26,572,o),
(26,353,cs),
(26,133,o),
(172,-12,o),
(414,-12,cs)
);
}
);
};
layerId = "4121B50C-FD42-45C5-8FBE-41E76D98F91E";
shapes = (
{
closed = 1;
nodes = (
(476,-12,o),
(542,4,o),
(589,36,cs),
(684,101,o),
(613,254,o),
(502,198,cs),
(469,181,o),
(440,175,o),
(414,175,cs),
(305,175,o),
(248,250,o),
(248,336,cs),
(248,424,o),
(299,503,o),
(412,498,cs),
(460,496,o),
(478,485,o),
(521,459,cs),
(605,409,o),
(689,539,o),
(605,607,cs),
(565,640,o),
(495,674,o),
(406,679,cs),
(193,690,o),
(42,533,o),
(42,336,cs),
(42,139,o),
(177,-12,o),
(414,-12,cs)
);
}
);
width = 677;
},
{
anchors = (
{
name = bottom;
pos = (364,0);
},
{
name = top;
pos = (433,670);
}
);
background = {
anchors = (
{
name = bottom;
pos = (364,0);
},
{
name = top;
pos = (433,705);
}
);
shapes = (
{
closed = 1;
nodes = (
(463,-8,o),
(540,24,o),
(604,87,c),
(580,121,l),
(514,59,o),
(454,33,o),
(372,33,cs),
(224,33,o),
(128,109,o),
(128,304,cs),
(128,518,o),
(245,672,o),
(431,672,cs),
(520,672,o),
(583,644,o),
(638,583,c),
(663,618,l),
(611,678,o),
(532,713,o),
(434,713,cs),
(219,713,o),
(83,537,o),
(83,305,cs),
(83,89,o),
(199,-8,o),
(371,-8,cs)
);
}
);
};
layerId = "D8D4984A-F5A5-43C0-BF2B-5708C10C5E92";
shapes = (
{
closed = 1;
nodes = (
(459,-8,o),
(527,17,o),
(591,75,cs),
(614,96,o),
(588,129,o),
(564,107,cs),
(506,53,o),
(448,33,o),
(376,33,cs),
(224,33,o),
(128,109,o),
(128,304,cs),
(128,518,o),
(245,637,o),
(430,637,cs),
(510,637,o),
(571,615,o),
(623,563,cs),
(647,539,o),
(673,573,o),
(652,594,cs),
(599,647,o),
(522,678,o),
(433,678,cs),
(219,678,o),
(83,537,o),
(83,305,cs),
(83,89,o),
(199,-8,o),
(373,-8,cs)
);
}
);
width = 667;
},
{
anchors = (
{
name = bottom;
pos = (378,0);
},
{
name = top;
pos = (451,705);
}
);
background = {
anchors = (
{
name = bottom;
pos = (378,0);
},
{
name = top;
pos = (451,705);
}
);
shapes = (
{
closed = 1;
nodes = (
(493,-12,o),
(596,14,o),
(650,54,c),
(599,223,l),
(540,189,o),
(484,175,o),
(439,175,cs),
(328,175,o),
(286,223,o),
(286,324,cs),
(286,437,o),
(341,530,o),
(464,530,cs),
(517,530,o),
(576,510,o),
(628,475,c),
(707,644,l),
(658,685,o),
(564,717,o),
(468,717,cs),
(200,717,o),
(59,539,o),
(59,315,cs),
(59,102,o),
(211,-12,o),
(412,-12,cs)
);
}
);
};
layerId = "C92D7C27-2246-4784-91DF-7F4E0C5E615D";
shapes = (
{
closed = 1;
nodes = (
(461,-12,o),
(533,-2,o),
(585,20,cs),
(695,66,o),
(640,232,o),
(530,191,cs),
(499,180,o),
(465,175,o),
(439,175,cs),
(328,175,o),
(286,241,o),
(286,324,cs),
(286,417,o),
(341,495,o),
(464,495,cs),
(495,495,o),
(527,489,o),
(577,470,cs),
(673,433,o),
(747,600,o),
(641,647,cs),
(584,672,o),
(518,682,o),
(468,682,cs),
(200,682,o),
(59,504,o),
(59,315,cs),
(59,102,o),
(211,-12,o),
(412,-12,cs)
);
}
);
width = 692;
},
{
anchors = (
{
name = bottom;
pos = (391,0);
},
{
name = top;
pos = (392,670);
}
);
background = {
anchors = (
{
name = bottom;
pos = (391,0);
},
{
name = top;
pos = (392,705);
}
);
shapes = (
{
closed = 1;
nodes = (
(500,-10,o),
(589,22,o),
(644,75,c),
(602,177,l),
(542,126,o),
(481,104,o),
(409,104,cs),
(266,104,o),
(190,194,o),
(190,353,cs),
(190,512,o),
(266,601,o),
(409,601,cs),
(481,601,o),
(542,579,o),
(602,528,c),
(644,630,l),
(589,684,o),
(500,715,o),
(405,715,cs),
(185,715,o),
(54,574,o),
(54,353,cs),
(54,131,o),
(185,-10,o),
(405,-10,cs)
);
}
);
};
layerId = "18203F29-5161-4D9B-8394-C173CC5E27D4";
shapes = (
{
closed = 1;
nodes = (
(479,-8,o),
(573,21,o),
(620,69,cs),
(672,123,o),
(609,207,o),
(546,151,cs),
(507,117,o),
(446,104,o),
(395,104,cs),
(261,104,o),
(184,199,o),
(184,336,cs),
(184,461,o),
(261,566,o),
(395,566,cs),
(463,566,o),
(500,546,o),
(535,520,cs),
(606,467,o),
(669,547,o),
(608,603,cs),
(566,642,o),
(502,680,o),
(405,680,cs),
(185,680,o),
(54,534,o),
(54,336,cs),
(54,136,o),
(185,-16,o),
(405,-10,cs)
);
}
);
width = 689;
},
{
anchors = (
{
name = bottom;
pos = (371,0);
},
{
name = top;
pos = (442,670);
}
);
background = {
anchors = (
{
name = bottom;
pos = (371,0);
},
{
name = top;
pos = (442,705);
}
);
shapes = (
{
closed = 1;
nodes = (
(478,-10,o),
(568,19,o),
(627,71,c),
(590,172,l),
(527,124,o),
(469,104,o),
(406,104,cs),
(276,104,o),
(207,166,o),
(207,314,cs),
(207,478,o),
(293,601,o),
(448,601,cs),
(519,601,o),
(580,577,o),
(633,529,c),
(685,631,l),
(635,682,o),
(548,715,o),
(451,715,cs),
(210,715,o),
(71,538,o),
(71,310,cs),
(71,96,o),
(205,-10,o),
(392,-10,cs)
);
}
);
};
layerId = "8FF16B21-C988-4EC9-A448-39B9B4A4BD78";
shapes = (
{
closed = 1;
nodes = (
(460,-10,o),
(538,9,o),
(597,48,cs),
(657,88,o),
(613,182,o),
(546,143,cs),
(498,115,o),
(454,104,o),
(405,104,cs),
(276,104,o),
(207,177,o),
(207,314,cs),
(207,478,o),
(306,566,o),
(447,566,cs),
(500,566,o),
(538,553,o),
(581,524,cs),
(664,468,o),
(722,570,o),
(645,620,cs),
(589,657,o),
(528,680,o),
(451,680,cs),
(210,680,o),
(71,538,o),
(71,310,cs),
(71,96,o),
(205,-10,o),
(393,-10,cs)
);
}
);
width = 680;
}
);
unicode = 67;
userData = {
anchors = (
);
b = {
};
com.typemytype.robofont.layerData = {
b = {
anchors = (
);
components = (
);
contours = (
);
lib = {
};
name = C;
unicodes = (
);
width = 1353.89001;
};
};
components = (
);
contours = (
);
lib = {
};
name = C;
unicodes = (
);
width = 1354;
};
}
{
color = 6;
glyphname = D;
kernLeft = H;
kernRight = O;
layers = (
{
anchors = (
{
name = bottom;
pos = (363,0);
},
{
name = center;
pos = (173,358);
},
{
name = top;
pos = (362,705);
}
);
background = {
anchors = (
{
name = bottom;
pos = (363,0);
},
{
name = center;
pos = (173,358);
},
{
name = top;
pos = (362,705);
}
);
shapes = (
{
closed = 1;
nodes = (
(313,0,ls),
(534,0,o),
(658,123,o),
(658,353,cs),
(658,583,o),
(534,705,o),
(313,705,cs),
(96,705,l),
(96,0,l)
);
},
{
closed = 1;
nodes = (
(138,666,l),
(309,666,ls),
(512,666,o),
(613,561,o),
(613,353,cs),
(613,145,o),
(512,39,o),
(309,39,cs),
(138,39,l)
);
}
);
};
layerId = "F1F93986-3ED8-4AAE-84C4-CA3EEECDDFA0";
shapes = (
{
closed = 1;
nodes = (
(293,0,ls),
(514,0,o),
(633,108,o),
(633,334,cs),
(633,560,o),
(514,670,o),
(293,670,cs),
(121,670,ls),
(105,670,o),
(96,661,o),
(96,645,cs),
(96,25,ls),
(96,9,o),
(105,0,o),
(121,0,cs)
);
},
{
closed = 1;
nodes = (
(138,631,l),
(289,631,ls),
(492,631,o),
(588,538,o),
(588,334,cs),
(588,130,o),
(492,39,o),
(289,39,cs),
(138,39,l)
);
}
);
width = 676;
},
{
anchors = (
{
name = bottom;
pos = (395,0);
},
{
name = center;
pos = (214,358);
},
{
name = top;
pos = (395,705);
}
);
background = {
anchors = (
{
name = bottom;
pos = (395,0);
},
{
name = center;
pos = (214,358);
},
{
name = top;
pos = (395,705);
}
);
shapes = (
{
closed = 1;
nodes = (
(365,0,ls),
(615,0,o),
(759,130,o),
(759,353,cs),
(759,575,o),
(615,705,o),
(365,705,cs),
(57,705,l),
(57,0,l)
);
},
{
closed = 1;
nodes = (
(272,531,l),
(352,531,ls),
(476,531,o),
(536,475,o),
(536,353,cs),
(536,231,o),
(477,174,o),
(352,174,cs),
(272,174,l)
);
}
);
};
layerId = "4121B50C-FD42-45C5-8FBE-41E76D98F91E";
shapes = (
{
closed = 1;
nodes = (
(325,0,ls),
(575,0,o),
(710,113,o),
(710,336,cs),
(710,558,o),
(575,670,o),
(325,670,cs),
(168,670,ls),
(96,670,o),
(57,631,o),
(57,559,cs),
(57,111,ls),
(57,39,o),
(96,0,o),
(168,0,cs)
);
},
{
closed = 1;
nodes = (
(272,514,l),
(312,514,ls),
(436,514,o),
(506,458,o),
(506,336,cs),
(506,214,o),
(437,174,o),
(312,174,cs),
(272,174,l)
);
}
);
width = 760;
},
{
anchors = (
{
name = bottom;
pos = (325,0);
},
{
name = center;
pos = (192,358);
},
{
name = top;
pos = (426,670);
}
);
background = {
anchors = (
{
name = bottom;
pos = (325,0);
},
{
name = center;
pos = (192,358);
},
{
name = top;
pos = (426,705);
}
);
shapes = (
{
closed = 1;
nodes = (
(284,0,ls),
(563,0,o),
(679,190,o),
(679,416,cs),
(679,600,o),
(564,705,o),
(360,705,cs),
(170,705,l),
(58,0,l)
);
},
{
closed = 1;
nodes = (
(206,666,l),
(359,666,ls),
(542,666,o),
(634,578,o),
(634,416,cs),
(634,215,o),
(541,39,o),
(286,39,cs),
(106,39,l)
);
}
);
};
layerId = "D8D4984A-F5A5-43C0-BF2B-5708C10C5E92";
shapes = (
{
closed = 1;
nodes = (
(284,0,ls),
(563,0,o),
(679,173,o),
(679,399,cs),
(679,583,o),
(564,670,o),
(360,670,cs),
(193,670,ls),
(178,670,o),
(169,663,o),
(166,647,cs),
(62,27,ls),
(59,10,o),
(68,0,o),
(85,0,cs)
);
},
{
closed = 1;
nodes = (
(206,631,l),
(359,631,ls),
(542,631,o),
(634,561,o),
(634,399,cs),
(634,198,o),
(541,39,o),
(286,39,cs),
(106,39,l)
);
}
);
width = 725;
},
{
anchors = (
{
name = bottom;
pos = (365,0);
},
{
name = center;
pos = (230,358);
},
{
name = top;
pos = (459,705);
}
);
background = {
anchors = (
{
name = bottom;
pos = (365,0);
},
{
name = center;
pos = (230,358);
},
{
name = top;
pos = (459,705);
}
);
shapes = (
{
closed = 1;
nodes = (
(364,0,ls),
(627,0,o),
(777,164,o),
(776,392,cs),
(775,587,o),
(638,705,o),
(394,705,cs),
(130,705,l),
(18,0,l)
);
},
{
closed = 1;
nodes = (
(318,531,l),
(394,531,ls),
(499,531,o),
(553,481,o),
(553,388,cs),
(553,250,o),
(484,174,o),
(366,174,cs),
(260,174,l)
);
}
);
};
layerId = "C92D7C27-2246-4784-91DF-7F4E0C5E615D";
shapes = (
{
closed = 1;
nodes = (
(364,0,ls),
(627,0,o),
(777,146,o),
(776,374,cs),
(775,569,o),
(638,670,o),
(394,670,cs),
(233,670,ls),
(165,670,o),
(125,635,o),
(114,568,cs),
(37,119,ls),
(24,43,o),
(63,0,o),
(139,0,cs)
);
},
{
closed = 1;
nodes = (
(318,513,l),
(394,513,ls),
(499,513,o),
(553,464,o),
(553,371,cs),
(553,242,o),
(481,174,o),
(366,174,cs),
(260,174,l)
);
}
);
width = 800;
},
{
anchors = (
{
name = bottom;
pos = (369,0);
},
{
name = center;
pos = (184,358);
},
{
name = top;
pos = (369,670);
}
);
background = {
anchors = (
{
name = bottom;
pos = (369,0);
},
{
name = center;
pos = (182,358);
},
{
name = top;
pos = (369,705);
}
);
shapes = (
{
closed = 1;
nodes = (
(329,0,ls),
(565,0,o),
(699,127,o),
(699,353,cs),
(699,579,o),
(565,705,o),
(329,705,cs),
(67,705,l),
(67,0,l)
);
},
{
closed = 1;
nodes = (
(195,599,l),
(321,599,ls),
(484,599,o),
(565,518,o),
(565,353,cs),
(565,188,o),
(485,106,o),
(321,106,cs),
(195,106,l)
);
}
);
};
layerId = "18203F29-5161-4D9B-8394-C173CC5E27D4";
shapes = (
{
closed = 1;
nodes = (
(309,0,ls),
(545,0,o),
(670,110,o),
(670,336,cs),
(670,527,o),
(545,670,o),
(309,670,cs),
(135,670,ls),
(91,670,o),
(67,646,o),
(67,602,cs),
(67,68,ls),
(67,24,o),
(91,0,o),
(135,0,cs)
);
},
{
closed = 1;
nodes = (
(192,564,l),
(301,564,ls),
(464,564,o),
(545,466,o),
(545,336,cs),
(545,171,o),
(465,106,o),
(301,106,cs),
(192,106,l)
);
}
);
width = 710;
},
{
anchors = (
{
name = bottom;
pos = (345,0);
},
{
name = center;
pos = (211,358);
},
{
name = top;
pos = (443,670);
}
);
background = {
anchors = (
{
name = bottom;
pos = (345,0);
},
{
name = center;
pos = (211,358);
},
{
name = top;
pos = (443,705);
}
);
shapes = (
{
closed = 1;
nodes = (
(323,0,ls),
(594,0,o),
(727,177,o),
(727,404,cs),
(726,594,o),
(600,705,o),
(376,705,cs),
(150,705,l),
(38,0,l)
);
},
{
closed = 1;
nodes = (
(261,599,l),
(376,599,ls),
(520,599,o),
(593,530,o),
(593,402,cs),
(593,233,o),
(512,106,o),
(325,106,cs),
(183,106,l)
);
}
);
};
layerId = "8FF16B21-C988-4EC9-A448-39B9B4A4BD78";
shapes = (
{
closed = 1;
nodes = (
(323,0,ls),
(594,0,o),
(727,160,o),
(727,387,cs),
(727,577,o),
(600,670,o),
(376,670,cs),
(213,670,ls),
(172,670,o),
(147,649,o),
(140,608,cs),
(50,73,ls),
(42,27,o),
(66,0,o),
(112,0,cs)
);
},
{
closed = 1;
nodes = (
(261,564,l),
(376,564,ls),
(520,564,o),
(593,513,o),
(593,385,cs),
(593,216,o),
(512,106,o),
(325,106,cs),
(183,106,l)
);
}
);
width = 762;
}
);
unicode = 68;
userData = {
anchors = (
);
b = {
};
com.typemytype.robofont.layerData = {
b = {
anchors = (
);
components = (
);
contours = (
{
points = (
{
segmentType = curve;
smooth = 1;
x = 266;
y = 0;
},
{
segmentType = line;
smooth = 1;
x = 1035;
y = 0;
},
{
smooth = 0;
x = 1084;
y = 0;
},
{
smooth = 0;
x = 1108;
y = 34;
},
{
segmentType = curve;
smooth = 1;
x = 1108;
y = 71;
},
{
smooth = 0;
x = 1108;
y = 107;
},
{
smooth = 0;
x = 1084;
y = 141;
},
{
segmentType = curve;
smooth = 1;
x = 1035;
y = 141;
},
{
segmentType = line;
smooth = 0;
x = 356;
y = 141;
},
{
segmentType = line;
smooth = 0;
x = 356;
y = 665;
},
{
segmentType = line;
smooth = 1;
x = 975;
y = 665;
},
{
smooth = 0;
x = 1024;
y = 665;
},
{
smooth = 0;
x = 1049;
y = 698;
},
{
segmentType = curve;
smooth = 1;
x = 1049;
y = 734;
},
{
smooth = 0;
x = 1049;
y = 770;
},
{
smooth = 0;
x = 1026;
y = 803;
},
{
segmentType = curve;
smooth = 1;
x = 975;
y = 803;
},
{
segmentType = line;
smooth = 0;
x = 356;
y = 803;
},
{
segmentType = line;
smooth = 0;
x = 356;
y = 1285;
},
{
segmentType = line;
smooth = 1;
x = 1007;
y = 1285;
},
{
smooth = 0;
x = 1056;
y = 1285;
},
{
smooth = 0;
x = 1080;
y = 1319;
},
{
segmentType = curve;
smooth = 1;
x = 1080;
y = 1356;
},
{
smooth = 0;
x = 1080;
y = 1392;
},
{
smooth = 0;
x = 1056;
y = 1426;
},
{
segmentType = curve;
smooth = 1;
x = 1007;
y = 1426;
},
{
segmentType = line;
smooth = 1;
x = 261;
y = 1426;
},
{
smooth = 0;
x = 213;
y = 1426;
},
{
smooth = 0;
x = 178;
y = 1383;
},
{
segmentType = curve;
smooth = 1;
x = 178;
y = 1340;
},
{
segmentType = line;
smooth = 1;
x = 178;
y = 86;
},
{
smooth = 0;
x = 178;
y = 41;
},
{
smooth = 0;
x = 222;
y = 0;
}
);
}
);
lib = {
};
name = D;
unicodes = (
);
width = 1499;
};
};
components = (
);
contours = (
);
lib = {
};
name = D;
unicodes = (
);
width = 1535;
};
}
{
color = 6;
glyphname = E;
kernLeft = H;
kernRight = E;
layers = (
{
anchors = (
{
name = bottom;
pos = (320,0);
},
{
name = ogonek;
pos = (490,0);
},
{
name = top;
pos = (320,670);
},
{
name = topleft;
pos = (27,670);
}
);
background = {
anchors = (
{
name = bottom;
pos = (320,0);
},
{
name = ogonek;
pos = (490,0);
},
{
name = top;
pos = (320,705);
},
{
name = topleft;
pos = (27,705);
}
);
shapes = (
{
closed = 1;
nodes = (
(520,0,l),
(520,39,l),
(138,39,l),
(138,338,l),
(500,338,l),
(500,377,l),
(138,377,l),
(138,666,l),
(520,666,l),
(520,705,l),
(96,705,l),
(96,0,l)
);
}
);
};
layerId = "F1F93986-3ED8-4AAE-84C4-CA3EEECDDFA0";
shapes = (
{
closed = 1;
nodes = (
(505,0,ls),
(518,0,o),
(526,7,o),
(526,20,cs),
(526,32,o),
(518,39,o),
(505,39,cs),
(138,39,l),
(138,335,l),
(485,335,ls),
(498,335,o),
(506,342,o),
(506,355,cs),
(506,367,o),
(498,374,o),
(485,374,cs),
(138,374,l),
(138,631,l),
(505,631,ls),
(518,631,o),
(526,638,o),
(526,651,cs),
(526,663,o),
(518,670,o),
(505,670,cs),
(121,670,ls),
(105,670,o),
(96,661,o),
(96,645,cs),
(96,25,ls),
(96,9,o),
(105,0,o),
(121,0,cs)
);
}
);
width = 570;
},
{
anchors = (
{
name = bottom;
pos = (336,0);
},
{
name = ogonek;
pos = (506,0);
},
{
name = top;
pos = (336,670);
},
{
name = topleft;
pos = (18,670);
}
);
background = {
anchors = (
{
name = bottom;
pos = (336,0);
},
{
name = ogonek;
pos = (506,0);
},
{
name = top;
pos = (336,705);
},
{
name = topleft;
pos = (18,705);
}
);
shapes = (
{
closed = 1;
nodes = (
(571,0,l),
(571,164,l),
(262,164,l),
(262,276,l),
(548,276,l),
(548,440,l),
(262,440,l),
(262,541,l),
(571,541,l),
(571,705,l),
(57,705,l),
(57,0,l)
);
}
);
};
layerId = "4121B50C-FD42-45C5-8FBE-41E76D98F91E";
shapes = (
{
closed = 1;
nodes = (
(498,0,ls),
(552,0,o),
(581,29,o),
(581,82,cs),
(581,135,o),
(552,164,o),
(498,164,cs),
(262,164,l),
(262,259,l),
(475,259,ls),
(529,259,o),
(558,288,o),
(558,341,cs),
(558,394,o),
(529,423,o),
(475,423,cs),
(262,423,l),
(262,506,l),
(498,506,ls),
(552,506,o),
(581,535,o),
(581,588,cs),
(581,641,o),
(552,670,o),
(498,670,cs),
(168,670,ls),
(96,670,o),
(57,631,o),
(57,559,cs),
(57,111,ls),
(57,39,o),
(96,0,o),
(168,0,cs)
);
}
);
width = 624;
},
{
anchors = (
{
name = bottom;
pos = (289,0);
},
{
name = ogonek;
pos = (449,0);
},
{
name = top;
pos = (396,670);
},
{
name = topleft;
pos = (101,670);
}
);
background = {
anchors = (
{
name = bottom;
pos = (289,0);
},
{
name = ogonek;
pos = (449,0);
},
{
name = top;
pos = (396,705);
},
{
name = topleft;
pos = (101,705);
}
);
shapes = (
{
closed = 1;
nodes = (
(482,0,l),
(488,39,l),
(106,39,l),
(153,338,l),
(516,338,l),
(522,377,l),
(160,377,l),
(206,666,l),
(588,666,l),
(594,705,l),
(170,705,l),
(58,0,l)
);
}
);
};
layerId = "D8D4984A-F5A5-43C0-BF2B-5708C10C5E92";
shapes = (
{
closed = 1;
nodes = (
(468,0,ls),
(480,0,o),
(491,6,o),
(491,24,cs),
(491,34,o),
(483,39,o),
(470,39,cs),
(106,39,l),
(153,335,l),
(502,335,ls),
(514,335,o),
(525,341,o),
(525,359,cs),
(525,369,o),
(517,374,o),
(504,374,cs),
(160,374,l),
(201,631,l),
(569,631,ls),
(581,631,o),
(592,637,o),
(592,655,cs),
(592,665,o),
(584,670,o),
(571,670,cs),
(188,670,ls),
(173,670,o),
(164,663,o),
(161,647,cs),
(62,27,ls),
(59,10,o),
(68,0,o),
(85,0,cs)
);
}
);
width = 570;
},
{
anchors = (
{
name = bottom;
pos = (300,0);
},
{
name = ogonek;
pos = (462,0);
},
{
name = top;
pos = (405,705);
},
{
name = topleft;
pos = (90,705);
}
);
background = {
anchors = (
{
name = bottom;
pos = (300,0);
},
{
name = ogonek;
pos = (462,0);
},
{
name = top;
pos = (405,705);
},
{
name = topleft;
pos = (90,705);
}
);
shapes = (
{
closed = 1;
nodes = (
(532,0,l),
(558,164,l),
(249,164,l),
(267,276,l),
(553,276,l),
(579,440,l),
(293,440,l),
(309,541,l),
(618,541,l),
(644,705,l),
(130,705,l),
(19,0,l)
);
}
);
};
layerId = "C92D7C27-2246-4784-91DF-7F4E0C5E615D";
shapes = (
{
closed = 1;
nodes = (
(459,0,ls),
(519,0,o),
(556,37,o),
(556,97,cs),
(556,139,o),
(526,164,o),
(470,164,cs),
(249,164,l),
(265,259,l),
(480,259,ls),
(540,259,o),
(577,296,o),
(577,356,cs),
(577,398,o),
(547,423,o),
(491,423,cs),
(291,423,l),
(303,506,l),
(545,506,ls),
(605,506,o),
(642,543,o),
(642,603,cs),
(642,645,o),
(612,670,o),
(556,670,cs),
(228,670,ls),
(160,670,o),
(120,635,o),
(109,568,cs),
(37,119,ls),
(25,42,o),
(61,0,o),
(140,0,cs)
);
}
);
width = 624;
},
{
anchors = (
{
name = bottom;
pos = (308,0);
},
{
name = ogonek;
pos = (478,0);
},
{
name = top;
pos = (308,670);
},
{
name = topleft;
pos = (3,670);
}
);
background = {
anchors = (
{
name = bottom;
pos = (308,0);
},
{
name = ogonek;
pos = (478,0);
},
{
name = top;
pos = (308,705);
},
{
name = topleft;
pos = (3,705);
}
);
shapes = (
{
closed = 1;
nodes = (
(526,0,l),
(526,102,l),
(180,102,l),
(180,307,l),
(504,307,l),
(504,409,l),
(180,409,l),
(180,603,l),
(526,603,l),
(526,705,l),
(57,705,l),
(57,0,l)
);
}
);
};
layerId = "18203F29-5161-4D9B-8394-C173CC5E27D4";
shapes = (
{
closed = 1;
nodes = (
(477,0,ls),
(510,0,o),
(534,18,o),
(534,51,cs),
(534,84,o),
(510,102,o),
(477,102,cs),
(176,102,l),
(176,303,l),
(454,303,ls),
(488,303,o),
(512,321,o),
(512,354,cs),
(512,387,o),
(488,405,o),
(454,405,cs),
(176,405,l),
(176,568,l),
(477,568,ls),
(510,568,o),
(534,587,o),
(534,620,cs),
(534,652,o),
(510,670,o),
(477,670,cs),
(125,670,ls),
(81,670,o),
(57,646,o),
(57,602,cs),
(57,68,ls),
(57,24,o),
(81,0,o),
(125,0,cs)
);
}
);
width = 577;
},
{
anchors = (
{
name = bottom;
pos = (295,0);
},
{
name = ogonek;
pos = (456,0);
},
{
name = top;
pos = (401,670);
},
{
name = topleft;
pos = (96,670);
}
);
background = {
anchors = (
{
name = bottom;
pos = (295,0);
},
{
name = ogonek;
pos = (456,0);
},
{
name = top;
pos = (401,705);
},
{
name = topleft;
pos = (96,705);
}
);
shapes = (
{
closed = 1;
nodes = (
(507,0,l),
(523,102,l),
(177,102,l),
(210,307,l),
(535,307,l),
(551,409,l),
(226,409,l),
(257,603,l),
(603,603,l),
(619,705,l),
(150,705,l),
(39,0,l)
);
}
);
};
layerId = "8FF16B21-C988-4EC9-A448-39B9B4A4BD78";
shapes = (
{
closed = 1;
nodes = (
(464,0,ls),
(500,0,o),
(524,22,o),
(524,61,cs),
(524,87,o),
(505,102,o),
(470,102,cs),
(177,102,l),
(210,303,l),
(491,303,ls),
(527,303,o),
(551,325,o),
(551,364,cs),
(551,390,o),
(532,405,o),
(498,405,cs),
(226,405,l),
(251,568,l),
(554,568,ls),
(590,568,o),
(614,590,o),
(614,629,cs),
(614,655,o),
(595,670,o),
(560,670,cs),
(207,670,ls),
(166,670,o),
(140,649,o),
(134,608,cs),
(50,73,ls),
(43,26,o),
(65,0,o),
(113,0,cs)
);
}
);
width = 597;
}
);
unicode = 69;
userData = {
anchors = (
);
b = {
};
com.typemytype.robofont.layerData = {
b = {
anchors = (
);
components = (
);
contours = (
);
lib = {
};
name = E;
unicodes = (
);
width = 1234;
};
};
components = (
);
contours = (
);
lib = {
};
name = E;
unicodes = (
);
width = 1258;
};
}
{
color = 6;
glyphname = F;
kernLeft = H;
kernRight = F;
layers = (
{
anchors = (
{
name = bottom;
pos = (293,0);
},
{
name = top;
pos = (293,670);
}
);
background = {
anchors = (
{
name = bottom;
pos = (293,0);
},
{
name = top;
pos = (293,705);
}
);
shapes = (
{
closed = 1;
nodes = (
(138,0,l),
(138,338,l),
(490,338,l),
(490,377,l),
(138,377,l),
(138,666,l),
(510,666,l),
(510,705,l),
(96,705,l),
(96,0,l)
);
}
);
};
layerId = "F1F93986-3ED8-4AAE-84C4-CA3EEECDDFA0";
shapes = (
{
closed = 1;
nodes = (
(128,-2,o),
(138,4,o),
(138,19,cs),
(138,334,l),
(470,334,ls),
(483,334,o),
(491,341,o),
(491,354,cs),
(491,366,o),
(483,373,o),
(470,373,cs),
(138,373,l),
(138,631,l),
(495,631,ls),
(508,631,o),
(516,638,o),
(516,651,cs),
(516,663,o),
(508,670,o),
(495,670,cs),
(121,670,ls),
(105,670,o),
(96,661,o),
(96,645,cs),
(96,19,ls),
(96,3,o),
(108,-2,o),
(118,-2,cs)
);
}
);
width = 536;
},
{
anchors = (
{
name = bottom;
pos = (306,0);
},
{
name = top;
pos = (312,670);
}
);
background = {
anchors = (
{
name = bottom;
pos = (306,0);
},
{
name = top;
pos = (312,705);
}
);
shapes = (
{
closed = 1;
nodes = (
(272,0,l),
(272,267,l),
(543,267,l),
(543,431,l),
(272,431,l),
(272,541,l),
(566,541,l),
(566,705,l),
(57,705,l),
(57,0,l)
);
}
);
};
layerId = "4121B50C-FD42-45C5-8FBE-41E76D98F91E";
shapes = (
{
closed = 1;
nodes = (
(235,-10,o),
(272,29,o),
(272,101,cs),
(272,252,l),
(460,252,ls),
(514,252,o),
(548,281,o),
(548,334,cs),
(548,387,o),
(514,416,o),
(460,416,cs),
(272,416,l),
(272,506,l),
(487,506,ls),
(541,506,o),
(576,535,o),
(576,588,cs),
(576,641,o),
(541,670,o),
(487,670,cs),
(168,670,ls),
(96,670,o),
(57,631,o),
(57,559,cs),
(57,101,ls),
(57,29,o),
(96,-10,o),
(165,-10,cs)
);
}
);
width = 588;
},
{
anchors = (
{
name = bottom;
pos = (255,0);
},
{
name = top;
pos = (367,670);
}
);
background = {
anchors = (
{
name = bottom;
pos = (255,0);
},
{
name = top;
pos = (367,705);
}
);
shapes = (
{
closed = 1;
nodes = (
(100,0,l),
(154,338,l),
(506,338,l),
(512,377,l),
(160,377,l),
(206,666,l),
(578,666,l),
(584,705,l),
(170,705,l),
(58,0,l)
);
}
);
};
layerId = "D8D4984A-F5A5-43C0-BF2B-5708C10C5E92";
shapes = (
{
closed = 1;
nodes = (
(92,-6,o),
(100,1,o),
(103,17,cs),
(153,333,l),
(484,333,ls),
(499,333,o),
(508,341,o),
(508,356,cs),
(508,367,o),
(500,372,o),
(486,372,cs),
(159,372,l),
(200,631,l),
(551,631,ls),
(566,631,o),
(575,639,o),
(575,654,cs),
(575,665,o),
(567,670,o),
(553,670,cs),
(187,670,ls),
(172,670,o),
(163,663,o),
(160,647,cs),
(61,21,ls),
(58,4,o),
(65,-6,o),
(82,-6,cs)
);
}
);
width = 536;
},
{
anchors = (
{
name = bottom;
pos = (266,0);
},
{
name = top;
pos = (376,670);
}
);
background = {
anchors = (
{
name = bottom;
pos = (266,0);
},
{
name = top;
pos = (383,705);
}
);
shapes = (
{
closed = 1;
nodes = (
(234,0,l),
(276,267,l),
(547,267,l),
(573,431,l),
(302,431,l),
(319,541,l),
(613,541,l),
(639,705,l),
(130,705,l),
(19,0,l)
);
}
);
};
layerId = "C92D7C27-2246-4784-91DF-7F4E0C5E615D";
shapes = (
{
closed = 1;
nodes = (
(198,-10,o),
(237,22,o),
(248,92,cs),
(275,261,l),
(468,261,ls),
(529,261,o),
(570,300,o),
(570,358,cs),
(570,400,o),
(535,425,o),
(479,425,cs),
(301,425,l),
(313,506,l),
(529,506,ls),
(590,506,o),
(631,545,o),
(631,603,cs),
(631,645,o),
(596,670,o),
(540,670,cs),
(227,670,ls),
(159,670,o),
(119,635,o),
(108,568,cs),
(36,109,ls),
(24,33,o),
(60,-10,o),
(131,-10,cs)
);
}
);
width = 588;
},
{
anchors = (
{
name = bottom;
pos = (300,0);
},
{
name = top;
pos = (303,670);
}
);
background = {
anchors = (
{
name = bottom;
pos = (300,0);
},
{
name = top;
pos = (303,705);
}
);
shapes = (
{
closed = 1;
nodes = (
(205,0,l),
(205,302,l),
(517,302,l),
(517,404,l),
(205,404,l),
(205,603,l),
(538,603,l),
(538,705,l),
(77,705,l),
(77,0,l)
);
}
);
};
layerId = "18203F29-5161-4D9B-8394-C173CC5E27D4";
shapes = (
{
closed = 1;
nodes = (
(184,-8,o),
(202,19,o),
(202,63,cs),
(202,298,l),
(463,298,ls),
(496,298,o),
(520,317,o),
(520,350,cs),
(520,382,o),
(496,400,o),
(463,400,cs),
(202,400,l),
(202,568,l),
(489,568,ls),
(523,568,o),
(546,587,o),
(546,620,cs),
(546,652,o),
(523,670,o),
(489,670,cs),
(149,670,ls),
(101,670,o),
(77,645,o),
(77,597,cs),
(77,63,ls),
(77,19,o),
(101,-8,o),
(143,-8,cs)
);
}
);
width = 562;
},
{
anchors = (
{
name = bottom;
pos = (261,0);
},
{
name = top;
pos = (375,670);
}
);
background = {
anchors = (
{
name = bottom;
pos = (261,0);
},
{
name = top;
pos = (375,705);
}
);
shapes = (
{
closed = 1;
nodes = (
(167,0,l),
(215,302,l),
(527,302,l),
(543,404,l),
(231,404,l),
(263,603,l),
(596,603,l),
(612,705,l),
(150,705,l),
(39,0,l)
);
}
);
};
layerId = "8FF16B21-C988-4EC9-A448-39B9B4A4BD78";
shapes = (
{
closed = 1;
nodes = (
(145,-8,o),
(169,12,o),
(176,55,cs),
(214,298,l),
(479,298,ls),
(517,298,o),
(539,322,o),
(539,359,cs),
(539,385,o),
(520,400,o),
(485,400,cs),
(230,400,l),
(258,568,l),
(544,568,ls),
(582,568,o),
(604,592,o),
(604,629,cs),
(604,655,o),
(585,670,o),
(550,670,cs),
(208,670,ls),
(167,670,o),
(141,649,o),
(135,608,cs),
(49,65,ls),
(42,19,o),
(63,-8,o),
(107,-8,cs)
);
}
);
width = 562;
}
);
unicode = 70;
userData = {
anchors = (
);
b = {
};
com.typemytype.robofont.layerData = {
b = {
anchors = (
);
components = (
);
contours = (
{
points = (
{
segmentType = curve;
smooth = 1;
x = 266;
y = 0;
},
{
segmentType = line;
smooth = 1;
x = 1035;
y = 0;
},
{
smooth = 0;
x = 1084;
y = 0;
},
{
smooth = 0;
x = 1108;
y = 34;
},
{
segmentType = curve;
smooth = 1;
x = 1108;
y = 71;
},
{
smooth = 0;
x = 1108;
y = 107;
},
{
smooth = 0;
x = 1084;
y = 141;
},
{
segmentType = curve;
smooth = 1;
x = 1035;
y = 141;
},
{
segmentType = line;
smooth = 0;
x = 353;
y = 141;
},
{
segmentType = line;
smooth = 0;
x = 353;
y = 665;
},
{
segmentType = line;
smooth = 1;
x = 975;
y = 665;
},
{
smooth = 0;
x = 1024;
y = 665;
},
{
smooth = 0;
x = 1049;
y = 698;
},
{
segmentType = curve;
smooth = 1;
x = 1049;
y = 734;
},
{
smooth = 0;
x = 1049;
y = 770;
},
{
smooth = 0;
x = 1026;
y = 803;
},
{
segmentType = curve;
smooth = 1;
x = 975;
y = 803;
},
{
segmentType = line;
smooth = 0;
x = 353;
y = 803;
},
{
segmentType = line;
smooth = 0;
x = 353;
y = 1285;
},
{
segmentType = line;
smooth = 1;
x = 1007;
y = 1285;
},
{
smooth = 0;
x = 1056;
y = 1285;
},
{
smooth = 0;
x = 1080;
y = 1319;
},
{
segmentType = curve;
smooth = 1;
x = 1080;
y = 1356;
},
{
smooth = 0;
x = 1080;
y = 1392;
},
{
smooth = 0;
x = 1056;
y = 1426;
},
{
segmentType = curve;
smooth = 1;
x = 1007;
y = 1426;
},
{
segmentType = line;
smooth = 1;
x = 261;
y = 1426;
},
{
smooth = 0;
x = 213;
y = 1426;
},
{
smooth = 0;
x = 178;
y = 1383;
},
{
segmentType = curve;
smooth = 1;
x = 178;
y = 1340;
},
{
segmentType = line;
smooth = 1;
x = 178;
y = 86;
},
{
smooth = 0;
x = 178;
y = 41;
},
{
smooth = 0;
x = 222;
y = 0;
}
);
}
);
lib = {
};
name = F;
unicodes = (
);
width = 1142;
};
};
components = (
);
contours = (
);
lib = {
};
name = F;
unicodes = (
);
width = 1175;
};
}
{
color = 6;
glyphname = G;
kernLeft = O;
kernRight = G;
layers = (
{
anchors = (
{
name = bottom;
pos = (390,0);
},
{
name = top;
pos = (383,670);
}
);
background = {
anchors = (
{
name = bottom;
pos = (390,0);
},
{
name = top;
pos = (383,705);
}
);
shapes = (
{
closed = 1;
nodes = (
(482,-8,o),
(579,13,o),
(628,40,c),
(628,355,l),
(394,355,l),
(394,316,l),
(588,316,l),
(588,35,l),
(600,73,l),
(543,47,o),
(475,33,o),
(401,33,cs),
(208,33,o),
(112,145,o),
(112,353,cs),
(112,555,o),
(208,672,o),
(380,672,cs),
(470,672,o),
(537,646,o),
(602,583,c),
(624,618,l),
(564,681,o),
(481,713,o),
(381,713,cs),
(183,713,o),
(67,576,o),
(67,353,cs),
(67,124,o),
(183,-8,o),
(402,-8,cs)
);
}
);
};
layerId = "F1F93986-3ED8-4AAE-84C4-CA3EEECDDFA0";
shapes = (
{
closed = 1;
nodes = (
(533,-10,o),
(598,53,o),
(618,78,cs),
(629,91,o),
(628,95,o),
(628,127,cs),
(628,250,ls),
(628,323,o),
(586,339,o),
(537,339,cs),
(390,339,ls),
(377,339,o),
(369,332,o),
(369,320,cs),
(369,308,o),
(377,297,o),
(390,297,cs),
(502,297,o),
(551,304,o),
(573,282,cs),
(596,258,o),
(588,203,o),
(588,75,c),
(600,122,l),
(569,91,o),
(533,30,o),
(390,33,cs),
(197,37,o),
(103,148,o),
(103,336,cs),
(103,503,o),
(208,637,o),
(380,637,cs),
(462,637,o),
(533,615,o),
(590,560,cs),
(611,540,o),
(635,573,o),
(616,592,cs),
(558,651,o),
(474,678,o),
(381,678,cs),
(183,678,o),
(58,524,o),
(58,336,cs),
(58,127,o),
(172,-5,o),
(391,-8,cs)
);
}
);
width = 718;
},
{
anchors = (
{
name = bottom;
pos = (406,0);
},
{
name = top;
pos = (399,670);
}
);
background = {
anchors = (
{
name = bottom;
pos = (406,0);
},
{
name = top;
pos = (399,705);
}
);
shapes = (
{
closed = 1;
nodes = (
(505,-12,o),
(601,7,o),
(681,44,c),
(681,406,l),
(377,406,l),
(377,258,l),
(507,258,l),
(507,110,l),
(545,187,l),
(499,174,o),
(455,167,o),
(422,167,cs),
(306,167,o),
(244,228,o),
(244,348,cs),
(244,470,o),
(303,534,o),
(430,534,cs),
(496,534,o),
(555,519,o),
(616,484,c),
(679,649,l),
(625,689,o),
(526,717,o),
(428,717,cs),
(172,717,o),
(21,572,o),
(21,348,cs),
(21,136,o),
(161,-12,o),
(409,-12,cs)
);
}
);
};
layerId = "4121B50C-FD42-45C5-8FBE-41E76D98F91E";
shapes = (
{
closed = 1;
nodes = (
(529,-12,o),
(587,20,o),
(622,37,cs),
(671,61,o),
(681,91,o),
(681,138,cs),
(681,284,ls),
(681,362,o),
(633,395,o),
(570,395,cs),
(462,395,ls),
(408,395,o),
(377,369,o),
(377,321,cs),
(377,273,o),
(408,247,o),
(462,247,cs),
(489,247,o),
(502,243,o),
(509,235,cs),
(520,219,o),
(507,188,o),
(507,134,c),
(545,211,l),
(499,198,o),
(498,167,o),
(422,167,cs),
(294,167,o),
(254,257,o),
(254,348,cs),
(254,428,o),
(303,499,o),
(430,499,cs),
(475,499,o),
(521,490,o),
(554,477,cs),
(668,431,o),
(723,603,o),
(624,645,cs),
(556,674,o),
(490,682,o),
(428,682,cs),
(172,682,o),
(43,537,o),
(43,348,cs),
(43,136,o),
(172,-12,o),
(409,-12,cs)
);
}
);
width = 734;
},
{
anchors = (
{
name = bottom;
pos = (372,0);
},
{
name = top;
pos = (434,670);
}
);
background = {
anchors = (
{
name = bottom;
pos = (372,0);
},
{
name = top;
pos = (434,705);
}
);
shapes = (
{
closed = 1;
nodes = (
(463,-8,o),
(547,10,o),
(595,32,c),
(646,355,l),
(412,355,l),
(406,316,l),
(600,316,l),
(555,35,l),
(573,68,l),
(520,48,o),
(462,33,o),
(386,33,cs),
(215,33,o),
(127,116,o),
(127,289,cs),
(127,525,o),
(244,672,o),
(430,672,cs),
(521,672,o),
(585,644,o),
(642,583,c),
(667,618,l),
(613,678,o),
(533,713,o),
(433,713,cs),
(218,713,o),
(82,545,o),
(82,289,cs),
(82,96,o),
(190,-8,o),
(384,-8,cs)
);
}
);
};
layerId = "D8D4984A-F5A5-43C0-BF2B-5708C10C5E92";
shapes = (
{
closed = 1;
nodes = (
(486,-8,o),
(547,33,o),
(589,63,cs),
(598,69,o),
(602,73,o),
(604,86,cs),
(630,257,ls),
(640,322,o),
(600,355,o),
(532,355,cs),
(427,355,ls),
(413,355,o),
(403,347,o),
(403,333,cs),
(403,322,o),
(411,314,o),
(425,314,cs),
(515,314,o),
(559,318,o),
(577,296,cs),
(598,272,o),
(582,212,o),
(561,71,c),
(579,104,l),
(529,68,o),
(491,33,o),
(386,33,cs),
(215,33,o),
(127,116,o),
(127,289,cs),
(127,525,o),
(244,637,o),
(430,637,cs),
(512,637,o),
(577,615,o),
(627,563,cs),
(652,537,o),
(677,571,o),
(655,595,cs),
(606,649,o),
(524,678,o),
(433,678,cs),
(218,678,o),
(82,545,o),
(82,289,cs),
(82,96,o),
(190,-8,o),
(384,-8,cs)
);
}
);
width = 718;
},
{
anchors = (
{
name = bottom;
pos = (407,0);
},
{
name = top;
pos = (451,670);
}
);
background = {
anchors = (
{
name = bottom;
pos = (407,0);
},
{
name = top;
pos = (460,705);
}
);
shapes = (
{
closed = 1;
nodes = (
(495,-12,o),
(592,1,o),
(672,39,c),
(730,406,l),
(426,406,l),
(403,258,l),
(533,258,l),
(509,110,l),
(556,185,l),
(515,173,o),
(476,167,o),
(445,167,cs),
(345,167,o),
(281,216,o),
(281,326,cs),
(281,429,o),
(345,534,o),
(476,534,cs),
(537,534,o),
(598,516,o),
(652,483,c),
(730,650,l),
(688,685,o),
(596,717,o),
(486,717,cs),
(207,717,o),
(59,539,o),
(59,317,cs),
(59,103,o),
(213,-12,o),
(412,-12,cs)
);
}
);
};
layerId = "C92D7C27-2246-4784-91DF-7F4E0C5E615D";
shapes = (
{
closed = 1;
nodes = (
(472,-12,o),
(540,-6,o),
(603,13,cs),
(652,28,o),
(675,61,o),
(683,109,cs),
(712,292,ls),
(722,354,o),
(699,389,o),
(599,389,cs),
(497,389,ls),
(438,389,o),
(401,358,o),
(401,303,cs),
(401,264,o),
(433,241,o),
(488,241,cs),
(506,241,o),
(517,241,o),
(522,234,cs),
(531,223,o),
(523,195,o),
(505,123,c),
(552,198,l),
(523,188,o),
(491,166,o),
(445,167,cs),
(345,169,o),
(281,216,o),
(281,326,cs),
(281,394,o),
(345,499,o),
(476,499,cs),
(511,499,o),
(555,497,o),
(595,477,cs),
(707,420,o),
(775,611,o),
(658,654,cs),
(614,670,o),
(548,682,o),
(486,682,cs),
(207,682,o),
(59,504,o),
(59,317,cs),
(59,103,o),
(213,-12,o),
(412,-12,cs)
);
}
);
width = 754;
},
{
anchors = (
{
name = bottom;
pos = (408,0);
},
{
name = top;
pos = (401,670);
}
);
background = {
anchors = (
{
name = bottom;
pos = (408,0);
},
{
name = top;
pos = (401,705);
}
);
shapes = (
{
closed = 1;
nodes = (
(504,-10,o),
(600,10,o),
(665,42,c),
(665,381,l),
(396,381,l),
(396,286,l),
(558,286,l),
(558,73,l),
(583,130,l),
(531,111,o),
(475,100,o),
(422,100,cs),
(267,100,o),
(188,187,o),
(188,351,cs),
(188,513,o),
(266,603,o),
(415,603,cs),
(493,603,o),
(556,583,o),
(619,534,c),
(662,634,l),
(605,685,o),
(514,715,o),
(415,715,cs),
(188,715,o),
(54,574,o),
(54,351,cs),
(54,130,o),
(182,-10,o),
(416,-10,cs)
);
}
);
};
layerId = "18203F29-5161-4D9B-8394-C173CC5E27D4";
shapes = (
{
closed = 1;
nodes = (
(489,-10,o),
(575,20,o),
(634,50,cs),
(658,62,o),
(665,83,o),
(665,112,cs),
(665,261,ls),
(665,341,o),
(623,366,o),
(537,366,cs),
(434,366,ls),
(400,366,o),
(379,349,o),
(379,319,cs),
(379,289,o),
(400,272,o),
(434,271,cs),
(504,269,o),
(535,275,o),
(548,262,cs),
(564,246,o),
(556,205,o),
(557,95,c),
(581,154,l),
(529,121,o),
(475,100,o),
(422,100,cs),
(267,100,o),
(186,197,o),
(186,351,cs),
(186,478,o),
(266,568,o),
(415,568,cs),
(479,568,o),
(528,555,o),
(579,526,cs),
(644,489,o),
(692,585,o),
(634,621,cs),
(567,663,o),
(490,680,o),
(415,680,cs),
(188,680,o),
(54,539,o),
(54,351,cs),
(54,140,o),
(182,-10,o),
(416,-10,cs)
);
}
);
width = 736;
},
{
anchors = (
{
name = bottom;
pos = (390,0);
},
{
name = top;
pos = (447,670);
}
);
background = {
anchors = (
{
name = bottom;
pos = (390,0);
},
{
name = top;
pos = (447,705);
}
);
shapes = (
{
closed = 1;
nodes = (
(479,-10,o),
(570,6,o),
(634,36,c),
(688,381,l),
(419,381,l),
(405,286,l),
(567,286,l),
(532,73,l),
(565,127,l),
(518,111,o),
(469,100,o),
(416,100,cs),
(280,100,o),
(204,166,o),
(204,308,cs),
(204,477,o),
(295,603,o),
(453,603,cs),
(529,603,o),
(592,580,o),
(647,533,c),
(699,634,l),
(651,682,o),
(565,715,o),
(460,715,cs),
(213,715,o),
(70,542,o),
(70,303,cs),
(70,100,o),
(202,-10,o),
(398,-10,cs)
);
}
);
};
layerId = "8FF16B21-C988-4EC9-A448-39B9B4A4BD78";
shapes = (
{
closed = 1;
nodes = (
(465,-10,o),
(538,1,o),
(593,20,cs),
(622,30,o),
(636,49,o),
(641,80,cs),
(669,258,ls),
(678,316,o),
(648,362,o),
(569,362,cs),
(444,362,ls),
(407,362,o),
(384,342,o),
(384,308,cs),
(384,283,o),
(404,267,o),
(438,267,cs),
(502,268,o),
(534,265,o),
(548,247,cs),
(566,223,o),
(551,173,o),
(532,73,c),
(565,127,l),
(518,111,o),
(469,100,o),
(416,100,cs),
(280,100,o),
(203,166,o),
(203,308,cs),
(203,477,o),
(295,568,o),
(453,568,cs),
(512,568,o),
(565,554,o),
(611,524,cs),
(676,482,o),
(731,583,o),
(666,626,cs),
(613,661,o),
(540,680,o),
(460,680,cs),
(213,680,o),
(69,542,o),
(69,303,cs),
(69,100,o),
(202,-10,o),
(398,-10,cs)
);
}
);
width = 736;
}
);
unicode = 71;
userData = {
anchors = (
);
b = {
};
com.typemytype.robofont.layerData = {
b = {
anchors = (
);
components = (
);
contours = (
{
points = (
{
segmentType = curve;
smooth = 1;
x = 783;
y = "-22";
},
{
smooth = 0;
x = 965;
y = "-22";
},
{
smooth = 0;
x = 1086;
y = 34;
},
{
segmentType = curve;
smooth = 1;
x = 1166;
y = 86;
},
{
smooth = 0;
x = 1270;
y = 154;
},
{
smooth = 0;
x = 1186;
y = 258;
},
{
segmentType = curve;
smooth = 1;
x = 1112;
y = 214;
},
{
smooth = 0;
x = 1024;
y = 162;
},
{
smooth = 0;
x = 939;
y = 120;
},
{
segmentType = curve;
smooth = 1;
x = 806;
y = 120;
},
{
smooth = 0;
x = 446;
y = 120;
},
{
smooth = 0;
x = 316;
y = 406;
},
{
segmentType = curve;
smooth = 1;
x = 316;
y = 706;
},
{
smooth = 0;
x = 316;
y = 1005;
},
{
smooth = 0;
x = 450;
y = 1296;
},
{
segmentType = curve;
smooth = 1;
x = 801;
y = 1296;
},
{
smooth = 0;
x = 980;
y = 1296;
},
{
smooth = 0;
x = 1053;
y = 1246;
},
{
segmentType = curve;
smooth = 1;
x = 1094;
y = 1225;
},
{
smooth = 0;
x = 1174;
y = 1184;
},
{
smooth = 0;
x = 1231;
y = 1300;
},
{
segmentType = curve;
smooth = 1;
x = 1156;
y = 1343;
},
{
smooth = 0;
x = 1106;
y = 1372;
},
{
smooth = 0;
x = 995;
y = 1438;
},
{
segmentType = curve;
smooth = 1;
x = 797;
y = 1438;
},
{
smooth = 0;
x = 359;
y = 1438;
},
{
smooth = 0;
x = 128;
y = 1093;
},
{
segmentType = curve;
smooth = 1;
x = 128;
y = 704;
},
{
smooth = 0;
x = 128;
y = 307;
},
{
smooth = 0;
x = 350;
y = "-22";
}
);
}
);
lib = {
};
name = G;
unicodes = (
);
width = 1448;
};
};
components = (
);
contours = (
);
lib = {
};
name = G;
unicodes = (
);
width = 1538;
};
}
{
color = 6;
glyphname = H;
kernLeft = H;
kernRight = H;
layers = (
{
anchors = (
{
name = bottom;
pos = (326,0);
},
{
name = center;
pos = (326,511);
},
{
name = top;
pos = (325,670);
},
{
name = topleft;
pos = (-23,670);
}
);
background = {
anchors = (
{
name = bottom;
pos = (326,0);
},
{
name = center;
pos = (326,546);
},
{
name = top;
pos = (325,705);
},
{
name = topleft;
pos = (-23,705);
}
);
shapes = (
{
closed = 1;
nodes = (
(88,0,l),
(88,338,l),
(563,338,l),
(563,0,l),
(605,0,l),
(605,705,l),
(563,705,l),
(563,377,l),
(88,377,l),
(88,705,l),
(46,705,l),
(46,0,l)
);
}
);
};
layerId = "F1F93986-3ED8-4AAE-84C4-CA3EEECDDFA0";
shapes = (
{
closed = 1;
nodes = (
(101,-6,o),
(108,2,o),
(108,16,cs),
(108,338,l),
(543,338,l),
(543,16,ls),
(543,2,o),
(551,-6,o),
(564,-6,cs),
(577,-6,o),
(585,2,o),
(585,16,cs),
(585,654,ls),
(585,668,o),
(577,676,o),
(564,676,cs),
(551,676,o),
(543,668,o),
(543,654,cs),
(543,377,l),
(108,377,l),
(108,654,ls),
(108,668,o),
(100,676,o),
(87,676,cs),
(74,676,o),
(66,668,o),
(66,654,cs),
(66,16,ls),
(66,2,o),
(74,-6,o),
(87,-6,cs)
);
}
);
width = 651;
},
{
anchors = (
{
name = bottom;
pos = (397,0);
},
{
name = center;
pos = (397,575);
},
{
name = top;
pos = (397,670);
},
{
name = topleft;
pos = (18,670);
}
);
background = {
anchors = (
{
name = bottom;
pos = (397,0);
},
{
name = center;
pos = (397,575);
},
{
name = top;
pos = (397,705);
},
{
name = topleft;
pos = (18,705);
}
);
shapes = (
{
closed = 1;
nodes = (
(272,0,l),
(272,269,l),
(522,269,l),
(522,0,l),
(737,0,l),
(737,705,l),
(522,705,l),
(522,445,l),
(272,445,l),
(272,705,l),
(57,705,l),
(57,0,l)
);
}
);
};
layerId = "4121B50C-FD42-45C5-8FBE-41E76D98F91E";
shapes = (
{
closed = 1;
nodes = (
(235,-10,o),
(272,29,o),
(272,100,cs),
(272,269,l),
(522,269,l),
(522,100,ls),
(522,29,o),
(560,-10,o),
(630,-10,cs),
(699,-10,o),
(737,29,o),
(737,100,cs),
(737,570,ls),
(737,641,o),
(699,680,o),
(630,680,cs),
(561,680,o),
(522,641,o),
(522,570,cs),
(522,445,l),
(272,445,l),
(272,570,ls),
(272,641,o),
(234,680,o),
(165,680,cs),
(96,680,o),
(57,641,o),
(57,570,cs),
(57,100,ls),
(57,29,o),
(96,-10,o),
(165,-10,cs)
);
}
);
width = 794;
},
{
anchors = (
{
name = bottom;
pos = (322,0);
},
{
name = center;
pos = (398,511);
},
{
name = top;
pos = (422,670);
},
{
name = topleft;
pos = (74,670);
}
);
background = {
anchors = (
{
name = bottom;
pos = (322,0);
},
{
name = center;
pos = (404,546);
},
{
name = top;
pos = (428,705);
},
{
name = topleft;
pos = (80,705);
}
);
shapes = (
{
closed = 1;
nodes = (
(80,0,l),
(134,338,l),
(608,338,l),
(554,0,l),
(596,0,l),
(708,705,l),
(666,705,l),
(614,377,l),
(140,377,l),
(192,705,l),
(150,705,l),
(38,0,l)
);
}
);
};
layerId = "D8D4984A-F5A5-43C0-BF2B-5708C10C5E92";
shapes = (
{
closed = 1;
nodes = (
(82,-6,o),
(90,2,o),
(92,16,cs),
(144,338,l),
(598,338,l),
(548,20,ls),
(545,3,o),
(553,-6,o),
(566,-6,cs),
(580,-6,o),
(587,2,o),
(589,16,cs),
(695,650,ls),
(698,667,o),
(690,676,o),
(677,676,cs),
(663,676,o),
(656,668,o),
(654,654,cs),
(604,377,l),
(150,377,l),
(198,650,ls),
(201,667,o),
(193,676,o),
(180,676,cs),
(166,676,o),
(159,668,o),
(157,654,cs),
(51,20,ls),
(48,3,o),
(55,-6,o),
(68,-6,cs)
);
}
);
width = 711;
},
{
anchors = (
{
name = bottom;
pos = (365,0);
},
{
name = center;
pos = (450,575);
},
{
name = top;
pos = (468,670);
},
{
name = topleft;
pos = (91,670);
}
);
background = {
anchors = (
{
name = bottom;
pos = (365,0);
},
{
name = center;
pos = (450,575);
},
{
name = top;
pos = (468,705);
},
{
name = topleft;
pos = (91,705);
}
);
shapes = (
{
closed = 1;
nodes = (
(233,0,l),
(276,269,l),
(526,269,l),
(483,0,l),
(698,0,l),
(810,705,l),
(595,705,l),
(554,445,l),
(304,445,l),
(345,705,l),
(130,705,l),
(18,0,l)
);
}
);
};
layerId = "C92D7C27-2246-4784-91DF-7F4E0C5E615D";
shapes = (
{
closed = 1;
nodes = (
(198,-10,o),
(238,25,o),
(249,97,cs),
(276,269,l),
(526,269,l),
(502,116,ls),
(490,37,o),
(518,-10,o),
(592,-10,cs),
(663,-10,o),
(702,25,o),
(713,97,cs),
(785,554,ls),
(798,634,o),
(768,680,o),
(695,680,cs),
(624,680,o),
(585,644,o),
(574,573,cs),
(554,445,l),
(304,445,l),
(321,554,ls),
(333,632,o),
(303,680,o),
(230,680,cs),
(159,680,o),
(119,645,o),
(108,573,cs),
(36,116,ls),
(23,36,o),
(53,-10,o),
(127,-10,cs)
);
}
);
width = 794;
},
{
anchors = (
{
name = bottom;
pos = (357,0);
},
{
name = center;
pos = (357,526);
},
{
name = top;
pos = (356,670);
},
{
name = topleft;
pos = (-7,670);
}
);
background = {
anchors = (
{
name = bottom;
pos = (357,0);
},
{
name = center;
pos = (357,561);
},
{
name = top;
pos = (356,705);
},
{
name = topleft;
pos = (-7,705);
}
);
shapes = (
{
closed = 1;
nodes = (
(175,0,l),
(175,304,l),
(538,304,l),
(538,0,l),
(666,0,l),
(666,705,l),
(538,705,l),
(538,411,l),
(175,411,l),
(175,705,l),
(47,705,l),
(47,0,l)
);
}
);
};
layerId = "18203F29-5161-4D9B-8394-C173CC5E27D4";
shapes = (
{
closed = 1;
nodes = (
(173,-8,o),
(195,17,o),
(195,59,cs),
(195,304,l),
(518,304,l),
(518,59,ls),
(518,17,o),
(541,-8,o),
(582,-8,cs),
(623,-8,o),
(646,17,o),
(646,59,cs),
(646,606,ls),
(646,649,o),
(623,678,o),
(582,678,cs),
(541,678,o),
(518,649,o),
(518,606,cs),
(518,411,l),
(195,411,l),
(195,606,ls),
(195,649,o),
(172,678,o),
(131,678,cs),
(90,678,o),
(67,649,o),
(67,606,cs),
(67,59,ls),
(67,17,o),
(90,-8,o),
(131,-8,cs)
);
}
);
width = 723;
},
{
anchors = (
{
name = bottom;
pos = (334,0);
},
{
name = center;
pos = (411,526);
},
{
name = top;
pos = (432,670);
},
{
name = topleft;
pos = (70,670);
}
);
background = {
anchors = (
{
name = bottom;
pos = (334,0);
},
{
name = center;
pos = (417,561);
},
{
name = top;
pos = (438,705);
},
{
name = topleft;
pos = (76,705);
}
);
shapes = (
{
closed = 1;
nodes = (
(146,0,l),
(194,304,l),
(557,304,l),
(509,0,l),
(637,0,l),
(749,705,l),
(621,705,l),
(574,411,l),
(211,411,l),
(258,705,l),
(130,705,l),
(18,0,l)
);
}
);
};
layerId = "8FF16B21-C988-4EC9-A448-39B9B4A4BD78";
shapes = (
{
closed = 1;
nodes = (
(136,-8,o),
(158,14,o),
(165,57,cs),
(204,304,l),
(547,304,l),
(510,68,ls),
(502,20,o),
(520,-8,o),
(564,-8,cs),
(606,-8,o),
(629,14,o),
(636,57,cs),
(728,602,ls),
(736,651,o),
(717,678,o),
(674,678,cs),
(631,678,o),
(609,657,o),
(602,614,cs),
(564,411,l),
(221,411,l),
(257,602,ls),
(265,650,o),
(247,678,o),
(204,678,cs),
(161,678,o),
(138,657,o),
(131,614,cs),
(39,68,ls),
(31,20,o),
(50,-8,o),
(93,-8,cs)
);
}
);
width = 733;
}
);
unicode = 72;
userData = {
anchors = (
);
b = {
};
com.typemytype.robofont.layerData = {
b = {
anchors = (
);
components = (
);
contours = (
);
lib = {
};
name = H;
unicodes = (
);
width = 1464;
};
};
components = (
);
contours = (
);
lib = {
};
name = H;
unicodes = (
);
width = 1524;
};
}
{
color = 6;
glyphname = I;
kernLeft = H;
kernRight = H;
layers = (
{
anchors = (
{
name = bottom;
pos = (117,0);
},
{
name = ogonek;
pos = (131,0);
},
{
name = top;
pos = (117,670);
},
{
name = topleft;
pos = (28,670);
}
);
background = {
anchors = (
{
name = bottom;
pos = (117,0);
},
{
name = ogonek;
pos = (138,0);
},
{
name = top;
pos = (117,705);
},
{
name = topleft;
pos = (28,705);
}
);
shapes = (
{
closed = 1;
nodes = (
(138,0,l),
(138,705,l),
(96,705,l),
(96,0,l)
);
}
);
};
layerId = "F1F93986-3ED8-4AAE-84C4-CA3EEECDDFA0";
shapes = (
{
closed = 1;
nodes = (
(131,-6,o),
(138,4,o),
(138,18,cs),
(138,652,ls),
(138,666,o),
(130,676,o),
(117,676,cs),
(104,676,o),
(96,666,o),
(96,652,cs),
(96,18,ls),
(96,4,o),
(104,-6,o),
(117,-6,cs)
);
}
);
width = 234;
},
{
anchors = (
{
name = bottom;
pos = (164,0);
},
{
name = ogonek;
pos = (214,0);
},
{
name = top;
pos = (165,670);
},
{
name = topleft;
pos = (19,670);
}
);
background = {
anchors = (
{
name = bottom;
pos = (164,0);
},
{
name = ogonek;
pos = (217,0);
},
{
name = top;
pos = (164,705);
},
{
name = topleft;
pos = (18,705);
}
);
shapes = (
{
closed = 1;
nodes = (
(272,0,l),
(272,705,l),
(57,705,l),
(57,0,l)
);
}
);
};
layerId = "4121B50C-FD42-45C5-8FBE-41E76D98F91E";
shapes = (
{
closed = 1;
nodes = (
(235,-10,o),
(272,39,o),
(272,110,cs),
(272,560,ls),
(272,631,o),
(234,680,o),
(165,680,cs),
(96,680,o),
(57,631,o),
(57,560,cs),
(57,110,ls),
(57,39,o),
(96,-10,o),
(165,-10,cs)
);
}
);
width = 329;
},
{
anchors = (
{
name = bottom;
pos = (79,0);
},
{
name = ogonek;
pos = (93,0);
},
{
name = top;
pos = (185,670);
},
{
name = topleft;
pos = (96,670);
}
);
background = {
anchors = (
{
name = bottom;
pos = (79,0);
},
{
name = ogonek;
pos = (100,0);
},
{
name = top;
pos = (191,705);
},
{
name = topleft;
pos = (102,705);
}
);
shapes = (
{
closed = 1;
nodes = (
(100,0,l),
(212,705,l),
(170,705,l),
(58,0,l)
);
}
);
};
layerId = "D8D4984A-F5A5-43C0-BF2B-5708C10C5E92";
shapes = (
{
closed = 1;
nodes = (
(93,-6,o),
(100,2,o),
(102,16,cs),
(203,650,ls),
(206,667,o),
(198,676,o),
(185,676,cs),
(171,676,o),
(164,668,o),
(162,654,cs),
(61,20,ls),
(58,3,o),
(66,-6,o),
(79,-6,cs)
);
}
);
width = 234;
},
{
anchors = (
{
name = bottom;
pos = (125,0);
},
{
name = ogonek;
pos = (176,0);
},
{
name = top;
pos = (229,670);
},
{
name = topleft;
pos = (82,670);
}
);
background = {
anchors = (
{
name = bottom;
pos = (125,0);
},
{
name = ogonek;
pos = (176,0);
},
{
name = top;
pos = (236,705);
},
{
name = topleft;
pos = (89,705);
}
);
shapes = (
{
closed = 1;
nodes = (
(233,0,l),
(345,705,l),
(130,705,l),
(18,0,l)
);
}
);
};
layerId = "C92D7C27-2246-4784-91DF-7F4E0C5E615D";
shapes = (
{
closed = 1;
nodes = (
(199,-10,o),
(238,25,o),
(249,97,cs),
(320,548,ls),
(333,628,o),
(304,680,o),
(231,680,cs),
(160,680,o),
(119,639,o),
(108,567,cs),
(37,116,ls),
(24,36,o),
(54,-10,o),
(128,-10,cs)
);
}
);
width = 329;
},
{
anchors = (
{
name = bottom;
pos = (141,0);
},
{
name = ogonek;
pos = (174,0);
},
{
name = top;
pos = (141,670);
},
{
name = topleft;
pos = (23,670);
}
);
background = {
anchors = (
{
name = bottom;
pos = (141,0);
},
{
name = ogonek;
pos = (178,0);
},
{
name = top;
pos = (141,705);
},
{
name = topleft;
pos = (23,705);
}
);
shapes = (
{
closed = 1;
nodes = (
(205,0,l),
(205,705,l),
(77,705,l),
(77,0,l)
);
}
);
};
layerId = "18203F29-5161-4D9B-8394-C173CC5E27D4";
shapes = (
{
closed = 1;
nodes = (
(183,-8,o),
(205,21,o),
(205,63,cs),
(205,607,ls),
(205,650,o),
(182,678,o),
(141,678,cs),
(100,678,o),
(77,650,o),
(77,607,cs),
(77,63,ls),
(77,21,o),
(100,-8,o),
(141,-8,cs)
);
}
);
width = 282;
},
{
anchors = (
{
name = bottom;
pos = (102,0);
},
{
name = ogonek;
pos = (138,0);
},
{
name = top;
pos = (209,670);
},
{
name = topleft;
pos = (89,670);
}
);
background = {
anchors = (
{
name = bottom;
pos = (102,0);
},
{
name = ogonek;
pos = (138,0);
},
{
name = top;
pos = (214,705);
},
{
name = topleft;
pos = (96,705);
}
);
shapes = (
{
closed = 1;
nodes = (
(166,0,l),
(278,705,l),
(150,705,l),
(38,0,l)
);
}
);
};
layerId = "8FF16B21-C988-4EC9-A448-39B9B4A4BD78";
shapes = (
{
closed = 1;
nodes = (
(146,-8,o),
(169,21,o),
(176,64,cs),
(260,591,ls),
(268,640,o),
(252,678,o),
(209,678,cs),
(166,678,o),
(141,646,o),
(134,603,cs),
(50,75,ls),
(42,27,o),
(60,-8,o),
(104,-8,cs)
);
}
);
width = 282;
}
);
unicode = 73;
userData = {
anchors = (
);
b = {
};
com.typemytype.robofont.layerData = {
b = {
anchors = (
);
components = (
);
contours = (
);
lib = {
};
name = I;
unicodes = (
);
width = 592;
};
};
components = (
);
contours = (
);
lib = {
};
name = I;
unicodes = (
);
width = 637;
};
}
{
color = 6;
glyphname = J;
kernLeft = J;
kernRight = J;
layers = (
{
anchors = (
{
name = bottom;
pos = (224,0);
},
{
name = top;
pos = (223,670);
}
);
background = {
anchors = (
{
name = bottom;
pos = (224,0);
},
{
name = top;
pos = (223,705);
}
);
shapes = (
{
closed = 1;
nodes = (
(87,-2,ls),
(188,5,o),
(244,70,o),
(244,177,cs),
(244,705,l),
(202,705,l),
(202,179,ls),
(202,96,o),
(159,42,o),
(84,36,cs),
(33,32,l),
(37,-6,l)
);
}
);
};
layerId = "F1F93986-3ED8-4AAE-84C4-CA3EEECDDFA0";
shapes = (
{
closed = 1;
nodes = (
(21,23,ls),
(103,-46,o),
(265,-6,o),
(265,185,cs),
(265,654,ls),
(265,668,o),
(257,676,o),
(244,676,cs),
(231,676,o),
(223,668,o),
(223,654,cs),
(223,187,ls),
(223,39,o),
(116,3,o),
(41,57,cs),
(27,67,ls),
(16,75,o),
(4,74,o),
(-2,65,cs),
(-8,56,o),
(-3,43,o),
(8,34,cs)
);
}
);
width = 354;
},
{
anchors = (
{
name = bottom;
pos = (353,0);
},
{
name = top;
pos = (353,670);
}
);
background = {
anchors = (
{
name = bottom;
pos = (353,0);
},
{
name = top;
pos = (353,705);
}
);
shapes = (
{
closed = 1;
nodes = (
(224,-7,ls),
(384,2,o),
(461,76,o),
(461,221,cs),
(461,705,l),
(246,705,l),
(246,217,ls),
(246,177,o),
(230,166,o),
(187,164,cs),
(98,159,l),
(111,-12,l)
);
}
);
};
layerId = "4121B50C-FD42-45C5-8FBE-41E76D98F91E";
shapes = (
{
closed = 1;
nodes = (
(64,42,ls),
(213,-64,o),
(457,-28,o),
(457,277,cs),
(457,561,ls),
(457,631,o),
(423,670,o),
(354,670,cs),
(285,670,o),
(249,631,o),
(249,561,cs),
(249,273,ls),
(249,163,o),
(193,163,o),
(141,202,cs),
(129,211,ls),
(92,238,o),
(43,234,o),
(15,201,cs),
(-19,158,o),
(-10,95,o),
(43,57,cs)
);
}
);
width = 518;
},
{
anchors = (
{
name = bottom;
pos = (143,0);
},
{
name = top;
pos = (247,670);
}
);
background = {
anchors = (
{
name = bottom;
pos = (143,0);
},
{
name = top;
pos = (254,705);
}
);
shapes = (
{
closed = 1;
nodes = (
(5,-3,ls),
(112,4,o),
(173,68,o),
(190,177,cs),
(274,705,l),
(232,705,l),
(150,187,ls),
(135,92,o),
(86,42,o),
(6,36,cs),
(-44,32,l),
(-43,-6,l)
);
}
);
};
layerId = "D8D4984A-F5A5-43C0-BF2B-5708C10C5E92";
shapes = (
{
closed = 1;
nodes = (
(8,-3,ls),
(115,7,o),
(173,68,o),
(190,177,cs),
(265,651,ls),
(268,667,o),
(261,676,o),
(248,676,cs),
(234,676,o),
(226,669,o),
(224,655,cs),
(150,187,ls),
(135,92,o),
(86,43,o),
(6,36,cs),
(-27,33,ls),
(-41,32,o),
(-49,25,o),
(-49,13,cs),
(-49,0,o),
(-40,-8,o),
(-23,-6,cs)
);
}
);
width = 297;
},
{
anchors = (
{
name = bottom;
pos = (207,0);
},
{
name = top;
pos = (306,670);
}
);
background = {
anchors = (
{
name = bottom;
pos = (207,0);
},
{
name = top;
pos = (318,705);
}
);
shapes = (
{
closed = 1;
nodes = (
(82,-6,ls),
(265,4,o),
(327,74,o),
(349,215,cs),
(427,705,l),
(212,705,l),
(136,227,ls),
(129,182,o),
(109,166,o),
(65,164,cs),
(-27,159,l),
(-33,-12,l)
);
}
);
};
layerId = "C92D7C27-2246-4784-91DF-7F4E0C5E615D";
shapes = (
{
closed = 1;
nodes = (
(82,-6,ls),
(265,6,o),
(326,74,o),
(349,215,cs),
(404,555,ls),
(416,627,o),
(379,670,o),
(306,670,cs),
(240,670,o),
(202,638,o),
(191,572,cs),
(136,227,ls),
(129,182,o),
(109,166,o),
(65,164,cs),
(37,163,ls),
(-15,161,o),
(-38,130,o),
(-40,74,cs),
(-42,20,o),
(-5,-12,o),
(51,-8,cs)
);
}
);
width = 411;
},
{
anchors = (
{
name = bottom;
pos = (320,0);
},
{
name = top;
pos = (319,670);
}
);
background = {
anchors = (
{
name = bottom;
pos = (320,0);
},
{
name = top;
pos = (319,705);
}
);
shapes = (
{
closed = 1;
nodes = (
(187,-5,ls),
(317,4,o),
(384,73,o),
(384,199,cs),
(384,705,l),
(256,705,l),
(256,198,ls),
(256,137,o),
(226,104,o),
(167,100,cs),
(96,96,l),
(105,-9,l)
);
}
);
};
layerId = "18203F29-5161-4D9B-8394-C173CC5E27D4";
shapes = (
{
closed = 1;
nodes = (
(46,26,ls),
(173,-70,o),
(382,0,o),
(382,199,cs),
(382,613,ls),
(382,655,o),
(361,677,o),
(320,677,cs),
(280,677,o),
(257,655,o),
(257,613,cs),
(257,198,ls),
(257,100,o),
(167,74,o),
(104,119,cs),
(80,136,ls),
(58,152,o),
(23,146,o),
(8,125,cs),
(-10,101,o),
(-7,65,o),
(22,44,cs)
);
}
);
width = 460;
},
{
anchors = (
{
name = bottom;
pos = (175,0);
},
{
name = top;
pos = (278,670);
}
);
background = {
anchors = (
{
name = bottom;
pos = (175,0);
},
{
name = top;
pos = (286,705);
}
);
shapes = (
{
closed = 1;
nodes = (
(44,-5,ls),
(189,4,o),
(249,71,o),
(269,196,cs),
(350,705,l),
(222,705,l),
(143,207,ls),
(132,137,o),
(98,104,o),
(36,100,cs),
(-36,96,l),
(-38,-9,l)
);
}
);
};
layerId = "8FF16B21-C988-4EC9-A448-39B9B4A4BD78";
shapes = (
{
closed = 1;
nodes = (
(44,-5,ls),
(189,5,o),
(249,71,o),
(269,196,cs),
(334,608,ls),
(341,652,o),
(320,678,o),
(277,678,cs),
(237,678,o),
(214,659,o),
(208,619,cs),
(143,207,ls),
(132,137,o),
(98,104,o),
(36,100,cs),
(5,98,ls),
(-28,96,o),
(-44,78,o),
(-45,44,cs),
(-46,10,o),
(-23,-9,o),
(14,-7,cs)
);
}
);
width = 354;
}
);
unicode = 74;
userData = {
anchors = (
);
b = {
};
com.typemytype.robofont.layerData = {
b = {
anchors = (
);
components = (
);
contours = (
);
lib = {
};
name = J;
unicodes = (
);
width = 1003;
};
};
components = (
);
contours = (
);
lib = {
};
name = J;
unicodes = (
);
width = 1126;
};
}
{
color = 6;
glyphname = K;
kernLeft = H;
kernRight = K;
layers = (
{
anchors = (
{
name = bottom;
pos = (302,0);
},
{
name = top;
pos = (301,670);
},
{
name = topleft;
pos = (27,670);
}
);
background = {
anchors = (
{
name = bottom;
pos = (302,0);
},
{
name = top;
pos = (301,705);
},
{
name = topleft;
pos = (27,705);
}
);
shapes = (
{
closed = 1;
nodes = (
(138,0,l),
(138,338,l),
(140,338,l),
(532,0,l),
(594,0,l),
(160,374,l),
(158,342,l),
(568,705,l),
(509,705,l),
(140,377,l),
(138,377,l),
(138,705,l),
(96,705,l),
(96,0,l)
);
}
);
};
layerId = "F1F93986-3ED8-4AAE-84C4-CA3EEECDDFA0";
shapes = (
{
closed = 1;
nodes = (
(131,-6,o),
(138,2,o),
(138,16,cs),
(138,288,l),
(170,317,l),
(509,4,ls),
(520,-6,o),
(535,-9,o),
(544,0,cs),
(551,7,o),
(556,17,o),
(536,35,cs),
(187,361,l),
(185,329,l),
(525,634,ls),
(544,651,o),
(546,659,o),
(537,670,cs),
(530,678,o),
(516,675,o),
(503,664,cs),
(140,344,l),
(138,344,l),
(138,654,ls),
(138,668,o),
(130,676,o),
(117,676,cs),
(104,676,o),
(96,668,o),
(96,654,cs),
(96,16,ls),
(96,2,o),
(104,-6,o),
(117,-6,cs)
);
}
);
width = 590;
},
{
anchors = (
{
name = bottom;
pos = (362,0);
},
{
name = top;
pos = (362,670);
},
{
name = topleft;
pos = (18,670);
}
);
background = {
anchors = (
{
name = bottom;
pos = (362,0);
},
{
name = top;
pos = (362,705);
},
{
name = topleft;
pos = (18,705);
}
);
shapes = (
{
closed = 1;
nodes = (
(272,0,l),
(272,314,l),
(274,314,l),
(534,0,l),
(788,0,l),
(446,416,l),
(446,331,l),
(780,705,l),
(527,705,l),
(274,408,l),
(272,408,l),
(272,705,l),
(57,705,l),
(57,0,l)
);
}
);
};
guides = (
{
angle = 42.8545;
pos = (366,494);
}
);
layerId = "4121B50C-FD42-45C5-8FBE-41E76D98F91E";
shapes = (
{
closed = 1;
nodes = (
(235,-10,o),
(272,34,o),
(272,104,cs),
(272,179,l),
(336,239,l),
(490,53,ls),
(525,11,o),
(551,-9,o),
(604,-10,cs),
(666,-11,o),
(727,73,o),
(671,142,cs),
(446,416,l),
(446,331,l),
(641,515,ls),
(716,586,o),
(671,679,o),
(594,679,cs),
(551,679,o),
(523,658,o),
(493,630,cs),
(272,426,l),
(272,426,l),
(272,566,ls),
(272,636,o),
(234,680,o),
(165,680,cs),
(96,680,o),
(57,636,o),
(57,566,cs),
(57,104,ls),
(57,34,o),
(96,-10,o),
(165,-10,cs)
);
}
);
width = 739;
},
{
anchors = (
{
name = bottom;
pos = (274,0);
},
{
name = top;
pos = (365,670);
},
{
name = topleft;
pos = (91,670);
}
);
background = {
anchors = (
{
name = bottom;
pos = (277,0);
},
{
name = top;
pos = (375,705);
},
{
name = topleft;
pos = (101,705);
}
);
shapes = (
{
closed = 1;
nodes = (
(100,0,l),
(154,338,l),
(156,338,l),
(499,0,l),
(556,0,l),
(183,369,l),
(178,339,l),
(645,705,l),
(583,705,l),
(162,377,l),
(160,377,l),
(212,705,l),
(170,705,l),
(58,0,l)
);
}
);
};
layerId = "D8D4984A-F5A5-43C0-BF2B-5708C10C5E92";
shapes = (
{
closed = 1;
nodes = (
(94,-6,o),
(101,1,o),
(103,15,cs),
(154,338,l),
(156,338,l),
(493,6,ls),
(501,-2,o),
(508,-6,o),
(517,-6,cs),
(536,-6,o),
(544,13,o),
(530,26,cs),
(183,369,l),
(178,339,l),
(568,645,ls),
(583,657,o),
(575,676,o),
(557,676,cs),
(548,676,o),
(544,674,o),
(533,666,cs),
(162,377,l),
(160,377,l),
(203,651,ls),
(206,667,o),
(198,676,o),
(185,676,cs),
(171,676,o),
(164,669,o),
(162,655,cs),
(62,19,ls),
(59,3,o),
(67,-6,o),
(80,-6,cs)
);
}
);
width = 590;
},
{
anchors = (
{
name = bottom;
pos = (325,0);
},
{
name = top;
pos = (427,670);
},
{
name = topleft;
pos = (82,670);
}
);
background = {
anchors = (
{
name = bottom;
pos = (325,0);
},
{
name = top;
pos = (433,705);
},
{
name = topleft;
pos = (88,705);
}
);
shapes = (
{
closed = 1;
nodes = (
(233,0,l),
(284,319,l),
(286,319,l),
(510,0,l),
(749,0,l),
(460,416,l),
(474,329,l),
(850,705,l),
(587,705,l),
(300,409,l),
(298,409,l),
(345,705,l),
(130,705,l),
(18,0,l)
);
}
);
};
layerId = "C92D7C27-2246-4784-91DF-7F4E0C5E615D";
shapes = (
{
closed = 1;
nodes = (
(198,-10,o),
(237,23,o),
(248,93,cs),
(284,319,l),
(286,319,l),
(466,62,ls),
(505,6,o),
(532,-10,o),
(584,-10,cs),
(664,-10,o),
(704,66,o),
(659,130,cs),
(460,416,l),
(474,329,l),
(707,533,ls),
(770,589,o),
(734,680,o),
(648,680,cs),
(600,680,o),
(576,661,o),
(542,630,cs),
(300,409,l),
(298,409,l),
(321,556,ls),
(333,635,o),
(299,680,o),
(231,680,cs),
(161,680,o),
(120,645,o),
(109,575,cs),
(36,114,ls),
(24,35,o),
(58,-10,o),
(127,-10,cs)
);
}
);
width = 739;
},
{
anchors = (
{
name = bottom;
pos = (332,0);
},
{
name = top;
pos = (332,670);
},
{
name = topleft;
pos = (23,670);
}
);
background = {
anchors = (
{
name = bottom;
pos = (332,0);
},
{
name = top;
pos = (332,705);
},
{
name = topleft;
pos = (23,705);
}
);
shapes = (
{
closed = 1;
nodes = (
(205,0,l),
(205,326,l),
(207,326,l),
(533,0,l),
(691,0,l),
(303,395,l),
(302,337,l),
(674,705,l),
(518,705,l),
(207,393,l),
(205,393,l),
(205,705,l),
(77,705,l),
(77,0,l)
);
}
);
};
guides = (
{
angle = 90;
pos = (611,328);
}
);
layerId = "18203F29-5161-4D9B-8394-C173CC5E27D4";
shapes = (
{
closed = 1;
nodes = (
(183,-8,o),
(205,16,o),
(205,58,cs),
(205,218,l),
(249,260,l),
(493,31,ls),
(537,-11,o),
(571,-14,o),
(589,0,cs),
(608,14,o),
(630,56,o),
(586,98,cs),
(303,371,l),
(302,313,l),
(559,576,ls),
(597,614,o),
(580,646,o),
(563,663,cs),
(544,681,o),
(503,683,o),
(480,660,cs),
(207,388,l),
(205,388,l),
(205,613,ls),
(205,655,o),
(182,678,o),
(141,678,cs),
(100,678,o),
(77,655,o),
(77,613,cs),
(77,58,ls),
(77,16,o),
(100,-8,o),
(141,-8,cs)
);
}
);
width = 665;
},
{
anchors = (
{
name = bottom;
pos = (300,0);
},
{
name = top;
pos = (399,670);
},
{
name = topleft;
pos = (90,670);
}
);
background = {
anchors = (
{
name = bottom;
pos = (301,0);
},
{
name = top;
pos = (404,705);
},
{
name = topleft;
pos = (95,705);
}
);
shapes = (
{
closed = 1;
nodes = (
(166,0,l),
(218,329,l),
(220,329,l),
(505,0,l),
(653,0,l),
(322,393,l),
(326,334,l),
(748,705,l),
(585,705,l),
(230,393,l),
(228,393,l),
(278,705,l),
(150,705,l),
(38,0,l)
);
}
);
};
layerId = "8FF16B21-C988-4EC9-A448-39B9B4A4BD78";
shapes = (
{
closed = 1;
nodes = (
(145,-8,o),
(168,12,o),
(175,54,cs),
(218,329,l),
(220,329,l),
(475,34,ls),
(501,4,o),
(514,-8,o),
(545,-8,cs),
(594,-8,o),
(619,42,o),
(588,78,cs),
(322,393,l),
(326,334,l),
(616,589,ls),
(657,625,o),
(633,678,o),
(583,678,cs),
(557,678,o),
(543,668,o),
(520,648,cs),
(230,393,l),
(228,393,l),
(261,604,ls),
(268,651,o),
(248,678,o),
(207,678,cs),
(165,678,o),
(142,657,o),
(135,615,cs),
(48,67,ls),
(40,19,o),
(62,-8,o),
(103,-8,cs)
);
}
);
width = 664;
}
);
unicode = 75;
userData = {
anchors = (
);
b = {
};
com.typemytype.robofont.layerData = {
b = {
anchors = (
);
components = (
);
contours = (
);
lib = {
};
name = K;
unicodes = (
);
width = 1210;
};
};
components = (
);
contours = (
);
lib = {
};
name = K;
unicodes = (
);
width = 1329;
};
}
{
color = 6;
glyphname = L;
kernLeft = H;
kernRight = L;
layers = (
{
anchors = (
{
name = bottom;
pos = (305,0);
},
{
name = center;
pos = (161,387);
},
{
name = dot;
pos = (384,386);
},
{
name = top;
pos = (117,670);
},
{
name = topright;
pos = (260,670);
}
);
background = {
anchors = (
{
name = bottom;
pos = (305,0);
},
{
name = center;
pos = (161,387);
},
{
name = dot;
pos = (384,386);
},
{
name = top;
pos = (117,705);
},
{
name = topright;
pos = (260,705);
}
);
shapes = (
{
closed = 1;
nodes = (
(514,0,l),
(514,39,l),
(138,39,l),
(138,705,l),
(96,705,l),
(96,0,l)
);
}
);
};
layerId = "F1F93986-3ED8-4AAE-84C4-CA3EEECDDFA0";
shapes = (
{
closed = 1;
nodes = (
(486,0,ls),
(500,0,o),
(510,7,o),
(510,20,cs),
(510,32,o),
(500,39,o),
(486,39,cs),
(138,39,l),
(138,651,ls),
(138,665,o),
(130,676,o),
(117,676,cs),
(104,676,o),
(96,665,o),
(96,651,cs),
(96,22,ls),
(96,8,o),
(104,0,o),
(118,0,cs)
);
}
);
width = 527;
},
{
anchors = (
{
name = bottom;
pos = (315,0);
},
{
name = center;
pos = (212,387);
},
{
name = dot;
pos = (465,402);
},
{
name = top;
pos = (164,670);
},
{
name = topright;
pos = (362,670);
}
);
background = {
anchors = (
{
name = bottom;
pos = (315,0);
},
{
name = center;
pos = (212,387);
},
{
name = dot;
pos = (465,402);
},
{
name = top;
pos = (164,705);
},
{
name = topright;
pos = (362,705);
}
);
shapes = (
{
closed = 1;
nodes = (
(572,0,l),
(572,178,l),
(272,178,l),
(272,705,l),
(57,705,l),
(57,0,l)
);
}
);
};
layerId = "4121B50C-FD42-45C5-8FBE-41E76D98F91E";
shapes = (
{
closed = 1;
nodes = (
(486,0,ls),
(545,0,o),
(582,32,o),
(582,89,cs),
(582,146,o),
(545,178,o),
(486,178,cs),
(272,178,l),
(272,555,ls),
(272,625,o),
(234,670,o),
(165,670,cs),
(96,670,o),
(57,625,o),
(57,555,cs),
(57,109,ls),
(57,39,o),
(96,0,o),
(166,0,cs)
);
}
);
width = 598;
},
{
anchors = (
{
name = bottom;
pos = (267,0);
},
{
name = center;
pos = (182,387);
},
{
name = dot;
pos = (408,386);
},
{
name = top;
pos = (185,670);
},
{
name = topright;
pos = (328,670);
}
);
background = {
anchors = (
{
name = bottom;
pos = (267,0);
},
{
name = center;
pos = (182,387);
},
{
name = dot;
pos = (408,386);
},
{
name = top;
pos = (191,705);
},
{
name = topright;
pos = (334,705);
}
);
shapes = (
{
closed = 1;
nodes = (
(476,0,l),
(482,39,l),
(106,39,l),
(212,705,l),
(170,705,l),
(58,0,l)
);
}
);
};
layerId = "D8D4984A-F5A5-43C0-BF2B-5708C10C5E92";
shapes = (
{
closed = 1;
nodes = (
(462,0,ls),
(474,0,o),
(485,6,o),
(485,24,cs),
(485,34,o),
(477,39,o),
(464,39,cs),
(107,39,l),
(203,652,ls),
(205,667,o),
(199,676,o),
(185,676,cs),
(172,676,o),
(164,670,o),
(162,656,cs),
(62,24,ls),
(60,9,o),
(67,0,o),
(82,0,cs)
);
}
);
width = 527;
},
{
anchors = (
{
name = bottom;
pos = (278,0);
},
{
name = center;
pos = (233,387);
},
{
name = dot;
pos = (491,402);
},
{
name = top;
pos = (230,670);
},
{
name = topright;
pos = (430,670);
}
);
background = {
anchors = (
{
name = bottom;
pos = (278,0);
},
{
name = center;
pos = (233,387);
},
{
name = dot;
pos = (491,402);
},
{
name = top;
pos = (235,705);
},
{
name = topright;
pos = (435,705);
}
);
shapes = (
{
closed = 1;
nodes = (
(533,0,l),
(561,178,l),
(262,178,l),
(345,705,l),
(130,705,l),
(18,0,l)
);
}
);
};
layerId = "C92D7C27-2246-4784-91DF-7F4E0C5E615D";
shapes = (
{
closed = 1;
nodes = (
(447,0,ls),
(514,0,o),
(558,40,o),
(558,106,cs),
(558,152,o),
(519,178,o),
(459,178,cs),
(262,178,l),
(322,556,ls),
(334,630,o),
(299,680,o),
(227,680,cs),
(160,680,o),
(119,639,o),
(109,573,cs),
(37,117,ls),
(25,43,o),
(62,0,o),
(137,0,cs)
);
}
);
width = 598;
},
{
anchors = (
{
name = bottom;
pos = (310,0);
},
{
name = center;
pos = (187,387);
},
{
name = dot;
pos = (425,394);
},
{
name = top;
pos = (141,670);
},
{
name = topright;
pos = (311,670);
}
);
background = {
anchors = (
{
name = bottom;
pos = (310,0);
},
{
name = center;
pos = (187,387);
},
{
name = dot;
pos = (425,394);
},
{
name = top;
pos = (141,705);
},
{
name = topright;
pos = (311,705);
}
);
shapes = (
{
closed = 1;
nodes = (
(543,0,l),
(543,109,l),
(205,109,l),
(205,705,l),
(77,705,l),
(77,0,l)
);
}
);
};
layerId = "18203F29-5161-4D9B-8394-C173CC5E27D4";
shapes = (
{
closed = 1;
nodes = (
(462,0,ls),
(498,0,o),
(527,20,o),
(527,55,cs),
(527,89,o),
(498,109,o),
(462,109,cs),
(205,109,l),
(205,600,ls),
(205,642,o),
(182,673,o),
(141,673,cs),
(100,673,o),
(77,642,o),
(77,600,cs),
(77,66,ls),
(77,24,o),
(100,0,o),
(142,0,cs)
);
}
);
width = 546;
},
{
anchors = (
{
name = bottom;
pos = (273,0);
},
{
name = center;
pos = (208,387);
},
{
name = dot;
pos = (449,394);
},
{
name = top;
pos = (204,670);
},
{
name = topright;
pos = (376,670);
}
);
background = {
anchors = (
{
name = bottom;
pos = (273,0);
},
{
name = center;
pos = (208,387);
},
{
name = dot;
pos = (449,394);
},
{
name = top;
pos = (213,705);
},
{
name = topright;
pos = (385,705);
}
);
shapes = (
{
closed = 1;
nodes = (
(504,0,l),
(521,109,l),
(184,109,l),
(278,705,l),
(150,705,l),
(38,0,l)
);
}
);
};
layerId = "8FF16B21-C988-4EC9-A448-39B9B4A4BD78";
shapes = (
{
closed = 1;
nodes = (
(456,0,ls),
(496,0,o),
(521,23,o),
(521,65,cs),
(521,93,o),
(500,109,o),
(463,109,cs),
(184,109,l),
(263,608,ls),
(270,652,o),
(249,678,o),
(206,678,cs),
(166,678,o),
(143,659,o),
(137,619,cs),
(49,71,ls),
(42,26,o),
(64,0,o),
(109,0,cs)
);
}
);
width = 562;
}
);
unicode = 76;
userData = {
anchors = (
);
b = {
};
com.typemytype.robofont.layerData = {
b = {
anchors = (
);
components = (
);
contours = (
{
points = (
{
segmentType = curve;
smooth = 1;
x = 266;
y = 0;
},
{
segmentType = line;
smooth = 1;
x = 1035;
y = 0;
},
{
smooth = 0;
x = 1084;
y = 0;
},
{
smooth = 0;
x = 1108;
y = 34;
},
{
segmentType = curve;
smooth = 1;
x = 1108;
y = 71;
},
{
smooth = 0;
x = 1108;
y = 107;
},
{
smooth = 0;
x = 1084;
y = 141;
},
{
segmentType = curve;
smooth = 1;
x = 1035;
y = 141;
},
{
segmentType = line;
smooth = 0;
x = 356;
y = 141;
},
{
segmentType = line;
smooth = 0;
x = 356;
y = 665;
},
{
segmentType = line;
smooth = 1;
x = 975;
y = 665;
},
{
smooth = 0;
x = 1024;
y = 665;
},
{
smooth = 0;
x = 1049;
y = 698;
},
{
segmentType = curve;
smooth = 1;
x = 1049;
y = 734;
},
{
smooth = 0;
x = 1049;
y = 770;
},
{
smooth = 0;
x = 1026;
y = 803;
},
{
segmentType = curve;
smooth = 1;
x = 975;
y = 803;
},
{
segmentType = line;
smooth = 0;
x = 356;
y = 803;
},
{
segmentType = line;
smooth = 0;
x = 356;
y = 1285;
},
{
segmentType = line;
smooth = 1;
x = 1007;
y = 1285;
},
{
smooth = 0;
x = 1056;
y = 1285;
},
{
smooth = 0;
x = 1080;
y = 1319;
},
{
segmentType = curve;
smooth = 1;
x = 1080;
y = 1356;
},
{
smooth = 0;
x = 1080;
y = 1392;
},
{
smooth = 0;
x = 1056;
y = 1426;
},
{
segmentType = curve;
smooth = 1;
x = 1007;
y = 1426;
},
{
segmentType = line;
smooth = 1;
x = 261;
y = 1426;
},
{
smooth = 0;
x = 213;
y = 1426;
},
{
smooth = 0;
x = 178;
y = 1383;
},
{
segmentType = curve;
smooth = 1;
x = 178;
y = 1340;
},
{
segmentType = line;
smooth = 1;
x = 178;
y = 86;
},
{
smooth = 0;
x = 178;
y = 41;
},
{
smooth = 0;
x = 222;
y = 0;
}
);
}
);
lib = {
};
name = L;
unicodes = (
);
width = 1095;
};
};
components = (
);
contours = (
);
lib = {
};
name = L;
unicodes = (
);
width = 1169;
};
}
{
color = 6;
glyphname = O;
kernLeft = O;
kernRight = O;
layers = (
{
anchors = (
{
name = Qtail;
pos = (375,-8);
},
{
name = bottom;
pos = (375,0);
},
{
name = center;
pos = (375,336);
},
{
name = ogonek;
pos = (430,0);
},
{
name = top;
pos = (375,670);
},
{
name = topleft;
pos = (26,670);
},
{
name = topright;
pos = (448,670);
}
);
background = {
anchors = (
{
name = Qtail;
pos = (375,-8);
},
{
name = bottom;
pos = (375,0);
},
{
name = center;
pos = (376,353);
},
{
name = ogonek;
pos = (430,0);
},
{
name = top;
pos = (375,705);
},
{
name = topleft;
pos = (26,705);
},
{
name = topright;
pos = (448,705);
}
);
shapes = (
{
closed = 1;
nodes = (
(566,-8,o),
(684,130,o),
(684,354,cs),
(684,576,o),
(567,713,o),
(375,713,cs),
(183,713,o),
(67,576,o),
(67,353,cs),
(67,130,o),
(185,-8,o),
(375,-8,cs)
);
},
{
closed = 1;
nodes = (
(208,33,o),
(112,151,o),
(112,353,cs),
(112,555,o),
(208,672,o),
(375,672,cs),
(544,672,o),
(639,556,o),
(639,353,cs),
(639,150,o),
(543,33,o),
(375,33,cs)
);
}
);
};
layerId = "F1F93986-3ED8-4AAE-84C4-CA3EEECDDFA0";
shapes = (
{
closed = 1;
nodes = (
(566,-8,o),
(694,133,o),
(694,337,cs),
(694,539,o),
(567,678,o),
(375,678,cs),
(183,678,o),
(57,539,o),
(57,336,cs),
(57,133,o),
(185,-8,o),
(375,-8,cs)
);
},
{
closed = 1;
nodes = (
(208,33,o),
(102,154,o),
(102,336,cs),
(102,518,o),
(208,637,o),
(375,637,cs),
(544,637,o),
(649,519,o),
(649,336,cs),
(649,153,o),
(543,33,o),
(375,33,cs)
);
}
);
width = 751;
},
{
anchors = (
{
name = Qtail;
pos = (409,-12);
},
{
name = bottom;
pos = (409,0);
},
{
name = center;
pos = (409,336);
},
{
name = ogonek;
pos = (473,0);
},
{
name = top;
pos = (408,670);
},
{
name = topleft;
pos = (26,670);
},
{
name = topright;
pos = (473,670);
}
);
background = {
anchors = (
{
name = Qtail;
pos = (409,-12);
},
{
name = bottom;
pos = (409,0);
},
{
name = center;
pos = (409,353);
},
{
name = ogonek;
pos = (473,0);
},
{
name = top;
pos = (408,705);
},
{
name = topleft;
pos = (26,705);
},
{
name = topright;
pos = (473,705);
}
);
shapes = (
{
closed = 1;
nodes = (
(629,-12,o),
(779,135,o),
(779,353,cs),
(779,571,o),
(629,717,o),
(410,717,cs),
(191,717,o),
(41,571,o),
(41,353,cs),
(41,136,o),
(191,-12,o),
(410,-12,cs)
);
},
{
closed = 1;
nodes = (
(319,167,o),
(264,236,o),
(264,353,cs),
(264,470,o),
(319,538,o),
(410,538,cs),
(501,538,o),
(556,469,o),
(556,353,cs),
(556,237,o),
(501,167,o),
(410,167,cs)
);
}
);
};
layerId = "4121B50C-FD42-45C5-8FBE-41E76D98F91E";
shapes = (
{
closed = 1;
nodes = (
(629,-12,o),
(779,118,o),
(779,336,cs),
(779,554,o),
(629,682,o),
(410,682,cs),
(191,682,o),
(41,554,o),
(41,336,cs),
(41,119,o),
(191,-12,o),
(410,-12,cs)
);
},
{
closed = 1;
nodes = (
(319,167,o),
(264,219,o),
(264,336,cs),
(264,453,o),
(319,503,o),
(410,503,cs),
(501,503,o),
(556,452,o),
(556,336,cs),
(556,220,o),
(501,167,o),
(410,167,cs)
);
}
);
width = 820;
},
{
anchors = (
{
name = Qtail;
pos = (347,-8);
},
{
name = bottom;
pos = (350,0);
},
{
name = center;
pos = (393,353);
},
{
name = ogonek;
pos = (401,0);
},
{
name = top;
pos = (440,670);
},
{
name = topleft;
pos = (99,670);
},
{
name = topright;
pos = (487,670);
}
);
background = {
anchors = (
{
name = Qtail;
pos = (347,-8);
},
{
name = bottom;
pos = (350,0);
},
{
name = center;
pos = (393,353);
},
{
name = ogonek;
pos = (401,0);
},
{
name = top;
pos = (440,705);
},
{
name = topleft;
pos = (99,705);
},
{
name = topright;
pos = (487,705);
}
);
shapes = (
{
closed = 1;
nodes = (
(585,-8,o),
(704,179,o),
(704,416,cs),
(704,609,o),
(597,713,o),
(429,713,cs),
(201,713,o),
(82,526,o),
(82,289,cs),
(82,96,o),
(189,-8,o),
(357,-8,cs)
);
},
{
closed = 1;
nodes = (
(214,33,o),
(127,116,o),
(127,289,cs),
(127,507,o),
(232,672,o),
(426,672,cs),
(572,672,o),
(659,589,o),
(659,416,cs),
(659,199,o),
(554,33,o),
(359,33,cs)
);
}
);
};
layerId = "D8D4984A-F5A5-43C0-BF2B-5708C10C5E92";
shapes = (
{
closed = 1;
nodes = (
(585,-8,o),
(704,162,o),
(704,399,cs),
(704,592,o),
(597,678,o),
(429,678,cs),
(201,678,o),
(82,509,o),
(82,272,cs),
(82,79,o),
(189,-8,o),
(357,-8,cs)
);
},
{
closed = 1;
nodes = (
(214,33,o),
(127,99,o),
(127,272,cs),
(127,490,o),
(232,637,o),
(426,637,cs),
(572,637,o),
(659,572,o),
(659,399,cs),
(659,182,o),
(554,33,o),
(359,33,cs)
);
}
);
width = 751;
},
{
anchors = (
{
name = Qtail;
pos = (387,-12);
},
{
name = bottom;
pos = (375,0);
},
{
name = center;
pos = (426,336);
},
{
name = ogonek;
pos = (454,0);
},
{
name = top;
pos = (459,670);
},
{
name = topleft;
pos = (92,670);
},
{
name = topright;
pos = (524,670);
}
);
background = {
anchors = (
{
name = Qtail;
pos = (387,-12);
},
{
name = bottom;
pos = (375,0);
},
{
name = center;
pos = (426,353);
},
{
name = ogonek;
pos = (454,0);
},
{
name = top;
pos = (465,705);
},
{
name = topleft;
pos = (98,705);
},
{
name = topright;
pos = (530,705);
}
);
shapes = (
{
closed = 1;
nodes = (
(635,-12,o),
(796,151,o),
(796,397,cs),
(796,597,o),
(658,717,o),
(449,717,cs),
(219,717,o),
(58,554,o),
(58,308,cs),
(58,108,o),
(196,-12,o),
(404,-12,cs)
);
},
{
closed = 1;
nodes = (
(329,167,o),
(281,214,o),
(281,312,cs),
(281,448,o),
(343,538,o),
(446,538,cs),
(524,538,o),
(573,491,o),
(573,393,cs),
(573,257,o),
(510,167,o),
(407,167,cs)
);
}
);
};
layerId = "C92D7C27-2246-4784-91DF-7F4E0C5E615D";
shapes = (
{
closed = 1;
nodes = (
(635,-12,o),
(796,134,o),
(796,380,cs),
(796,580,o),
(657,682,o),
(448,682,cs),
(218,682,o),
(58,537,o),
(58,291,cs),
(58,91,o),
(196,-12,o),
(404,-12,cs)
);
},
{
closed = 1;
nodes = (
(329,167,o),
(281,197,o),
(281,295,cs),
(281,431,o),
(342,503,o),
(445,503,cs),
(523,503,o),
(573,474,o),
(573,376,cs),
(573,240,o),
(510,167,o),
(407,167,cs)
);
}
);
width = 820;
},
{
anchors = (
{
name = Qtail;
pos = (391,-10);
},
{
name = bottom;
pos = (391,0);
},
{
name = center;
pos = (392,333);
},
{
name = ogonek;
pos = (451,0);
},
{
name = top;
pos = (391,670);
},
{
name = topleft;
pos = (25,670);
},
{
name = topright;
pos = (460,670);
}
);
background = {
anchors = (
{
name = Qtail;
pos = (391,-10);
},
{
name = bottom;
pos = (391,0);
},
{
name = center;
pos = (392,353);
},
{
name = ogonek;
pos = (451,0);
},
{
name = top;
pos = (391,705);
},
{
name = topleft;
pos = (25,705);
},
{
name = topright;
pos = (460,705);
}
);
shapes = (
{
closed = 1;
nodes = (
(597,-10,o),
(731,133,o),
(731,354,cs),
(731,574,o),
(597,715,o),
(392,715,cs),
(186,715,o),
(53,574,o),
(53,353,cs),
(53,133,o),
(187,-10,o),
(392,-10,cs)
);
},
{
closed = 1;
nodes = (
(263,100,o),
(187,194,o),
(187,353,cs),
(187,513,o),
(263,605,o),
(392,605,cs),
(522,605,o),
(597,513,o),
(597,353,cs),
(597,194,o),
(521,100,o),
(392,100,cs)
);
}
);
};
layerId = "18203F29-5161-4D9B-8394-C173CC5E27D4";
shapes = (
{
closed = 1;
nodes = (
(597,-10,o),
(736,116,o),
(736,333,cs),
(736,533,o),
(597,678,o),
(392,678,cs),
(186,678,o),
(48,533,o),
(48,332,cs),
(48,116,o),
(187,-10,o),
(392,-10,cs)
);
},
{
closed = 1;
nodes = (
(263,100,o),
(182,177,o),
(182,332,cs),
(182,472,o),
(263,568,o),
(392,568,cs),
(522,568,o),
(602,472,o),
(602,332,cs),
(602,177,o),
(521,100,o),
(392,100,cs)
);
}
);
width = 784;
},
{
anchors = (
{
name = Qtail;
pos = (367,-10);
},
{
name = bottom;
pos = (363,0);
},
{
name = center;
pos = (410,353);
},
{
name = ogonek;
pos = (428,0);
},
{
name = top;
pos = (453,670);
},
{
name = topleft;
pos = (99,670);
},
{
name = topright;
pos = (509,670);
}
);
background = {
anchors = (
{
name = Qtail;
pos = (367,-10);
},
{
name = bottom;
pos = (363,0);
},
{
name = center;
pos = (410,353);
},
{
name = ogonek;
pos = (428,0);
},
{
name = top;
pos = (453,705);
},
{
name = topleft;
pos = (99,705);
},
{
name = topright;
pos = (509,705);
}
);
shapes = (
{
closed = 1;
nodes = (
(610,-10,o),
(750,165,o),
(750,407,cs),
(750,603,o),
(628,715,o),
(439,715,cs),
(210,715,o),
(70,540,o),
(70,299,cs),
(70,102,o),
(193,-10,o),
(381,-10,cs)
);
},
{
closed = 1;
nodes = (
(272,100,o),
(204,165,o),
(204,301,cs),
(204,478,o),
(288,605,o),
(436,605,cs),
(548,605,o),
(616,540,o),
(616,405,cs),
(616,228,o),
(532,100,o),
(383,100,cs)
);
}
);
};
layerId = "8FF16B21-C988-4EC9-A448-39B9B4A4BD78";
shapes = (
{
closed = 1;
nodes = (
(610,-10,o),
(750,148,o),
(750,390,cs),
(750,586,o),
(628,680,o),
(439,680,cs),
(210,680,o),
(70,523,o),
(70,282,cs),
(70,85,o),
(193,-10,o),
(381,-10,cs)
);
},
{
closed = 1;
nodes = (
(272,100,o),
(204,148,o),
(204,284,cs),
(204,461,o),
(288,570,o),
(436,570,cs),
(548,570,o),
(616,523,o),
(616,388,cs),
(616,211,o),
(532,100,o),
(383,100,cs)
);
}
);
width = 785;
}
);
unicode = 79;
userData = {
anchors = (
);
b = {
};
com.typemytype.robofont.guides = (
);
com.typemytype.robofont.layerData = {
b = {
anchors = (
);
components = (
);
contours = (
);
lib = {
};
name = O;
unicodes = (
);
width = 1597;
};
};
components = (
);
contours = (
);
lib = {
};
name = O;
unicodes = (
);
width = 1604;
};
}
{
color = 6;
glyphname = P;
kernLeft = H;
kernRight = P;
layers = (
{
anchors = (
{
name = bottom;
pos = (316,0);
},
{
name = top;
pos = (316,670);
}
);
background = {
anchors = (
{
name = bottom;
pos = (316,0);
},
{
name = top;
pos = (316,705);
}
);
shapes = (
{
closed = 1;
nodes = (
(138,0,l),
(138,297,l),
(351,297,ls),
(499,297,o),
(580,370,o),
(580,501,cs),
(580,632,o),
(499,705,o),
(351,705,cs),
(96,705,l),
(96,0,l)
);
},
{
closed = 1;
nodes = (
(138,666,l),
(350,666,ls),
(474,666,o),
(536,609,o),
(536,501,cs),
(536,393,o),
(474,336,o),
(350,336,cs),
(138,336,l)
);
}
);
};
layerId = "F1F93986-3ED8-4AAE-84C4-CA3EEECDDFA0";
shapes = (
{
closed = 1;
nodes = (
(131,-6,o),
(138,2,o),
(138,16,cs),
(138,294,l),
(346,294,ls),
(484,294,o),
(560,350,o),
(560,484,cs),
(560,580,o),
(484,670,o),
(346,670,cs),
(118,670,ls),
(104,670,o),
(96,662,o),
(96,648,cs),
(96,16,ls),
(96,2,o),
(104,-6,o),
(117,-6,cs)
);
},
{
closed = 1;
nodes = (
(138,631,l),
(345,631,ls),
(459,631,o),
(516,557,o),
(516,484,cs),
(516,373,o),
(459,333,o),
(345,333,cs),
(138,333,l)
);
}
);
width = 596;
},
{
anchors = (
{
name = bottom;
pos = (338,0);
},
{
name = top;
pos = (337,670);
}
);
background = {
anchors = (
{
name = bottom;
pos = (338,0);
},
{
name = top;
pos = (337,705);
}
);
shapes = (
{
closed = 1;
nodes = (
(262,0,l),
(262,231,l),
(405,231,ls),
(567,231,o),
(660,321,o),
(660,468,cs),
(660,615,o),
(567,705,o),
(405,705,cs),
(47,705,l),
(47,0,l)
);
},
{
closed = 1;
nodes = (
(262,541,l),
(365,541,ls),
(423,541,o),
(456,518,o),
(456,468,cs),
(456,418,o),
(423,395,o),
(365,395,cs),
(262,395,l)
);
}
);
};
layerId = "4121B50C-FD42-45C5-8FBE-41E76D98F91E";
shapes = (
{
closed = 1;
nodes = (
(225,-10,o),
(262,29,o),
(262,99,cs),
(262,214,l),
(405,214,ls),
(567,214,o),
(660,304,o),
(660,451,cs),
(660,598,o),
(567,670,o),
(405,670,cs),
(156,670,ls),
(86,670,o),
(47,631,o),
(47,561,cs),
(47,99,ls),
(47,29,o),
(86,-10,o),
(155,-10,cs)
);
},
{
closed = 1;
nodes = (
(262,524,l),
(365,524,ls),
(423,524,o),
(456,501,o),
(456,451,cs),
(456,401,o),
(423,378,o),
(365,378,cs),
(262,378,l)
);
}
);
width = 679;
},
{
anchors = (
{
name = bottom;
pos = (278,0);
},
{
name = top;
pos = (390,670);
}
);
background = {
anchors = (
{
name = bottom;
pos = (278,0);
},
{
name = top;
pos = (390,705);
}
);
shapes = (
{
closed = 1;
nodes = (
(100,0,l),
(147,297,l),
(370,297,ls),
(533,297,o),
(621,386,o),
(621,521,cs),
(621,645,o),
(540,705,o),
(407,705,cs),
(170,705,l),
(58,0,l)
);
},
{
closed = 1;
nodes = (
(206,666,l),
(407,666,ls),
(518,666,o),
(577,621,o),
(577,520,cs),
(577,400,o),
(506,336,o),
(374,336,cs),
(154,336,l)
);
}
);
};
layerId = "D8D4984A-F5A5-43C0-BF2B-5708C10C5E92";
shapes = (
{
closed = 1;
nodes = (
(94,-6,o),
(100,0,o),
(102,14,cs),
(147,297,l),
(370,297,ls),
(533,297,o),
(614,369,o),
(616,504,cs),
(618,620,o),
(540,670,o),
(407,670,cs),
(185,670,ls),
(172,670,o),
(164,664,o),
(162,650,cs),
(61,18,ls),
(59,3,o),
(67,-6,o),
(81,-6,cs)
);
},
{
closed = 1;
nodes = (
(201,631,l),
(407,631,ls),
(518,631,o),
(572,596,o),
(572,503,cs),
(572,383,o),
(506,336,o),
(374,336,cs),
(154,336,l)
);
}
);
width = 616;
},
{
anchors = (
{
name = bottom;
pos = (307,0);
},
{
name = top;
pos = (411,670);
}
);
background = {
anchors = (
{
name = bottom;
pos = (307,0);
},
{
name = top;
pos = (418,705);
}
);
shapes = (
{
closed = 1;
nodes = (
(233,0,l),
(270,231,l),
(401,231,ls),
(599,231,o),
(705,324,o),
(705,497,cs),
(705,624,o),
(620,705,o),
(441,705,cs),
(130,705,l),
(18,0,l)
);
},
{
closed = 1;
nodes = (
(319,541,l),
(411,541,ls),
(474,541,o),
(501,521,o),
(501,477,cs),
(501,423,o),
(470,395,o),
(409,395,cs),
(296,395,l)
);
}
);
};
layerId = "C92D7C27-2246-4784-91DF-7F4E0C5E615D";
shapes = (
{
closed = 1;
nodes = (
(196,-10,o),
(238,25,o),
(249,97,cs),
(266,205,l),
(397,205,ls),
(595,205,o),
(701,298,o),
(701,471,cs),
(701,598,o),
(620,670,o),
(441,670,cs),
(238,670,ls),
(166,670,o),
(125,635,o),
(113,563,cs),
(37,116,ls),
(23,36,o),
(57,-10,o),
(125,-10,cs)
);
},
{
closed = 1;
nodes = (
(315,515,l),
(407,515,ls),
(470,515,o),
(497,495,o),
(497,451,cs),
(497,397,o),
(466,369,o),
(405,369,cs),
(292,369,l)
);
}
);
width = 689;
},
{
anchors = (
{
name = bottom;
pos = (332,0);
},
{
name = top;
pos = (332,670);
}
);
background = {
anchors = (
{
name = bottom;
pos = (332,0);
},
{
name = top;
pos = (332,705);
}
);
shapes = (
{
closed = 1;
nodes = (
(205,0,l),
(205,264,l),
(383,264,ls),
(538,264,o),
(625,346,o),
(625,485,cs),
(625,624,o),
(538,705,o),
(383,705,cs),
(77,705,l),
(77,0,l)
);
},
{
closed = 1;
nodes = (
(205,604,l),
(363,604,ls),
(454,604,o),
(501,564,o),
(501,485,cs),
(501,406,o),
(454,365,o),
(363,365,cs),
(205,365,l)
);
}
);
};
layerId = "18203F29-5161-4D9B-8394-C173CC5E27D4";
shapes = (
{
closed = 1;
nodes = (
(186,-8,o),
(205,16,o),
(205,58,cs),
(205,264,l),
(383,264,ls),
(530,264,o),
(589,371,o),
(589,468,cs),
(589,547,o),
(538,670,o),
(383,670,cs),
(145,670,ls),
(103,670,o),
(80,647,o),
(80,605,cs),
(80,58,ls),
(80,16,o),
(103,-8,o),
(144,-8,cs)
);
},
{
closed = 1;
nodes = (
(205,569,l),
(343,569,ls),
(432,569,o),
(470,521,o),
(470,468,cs),
(470,402,o),
(432,365,o),
(343,365,cs),
(205,365,l)
);
}
);
width = 623;
},
{
anchors = (
{
name = bottom;
pos = (293,0);
},
{
name = top;
pos = (404,670);
}
);
background = {
anchors = (
{
name = bottom;
pos = (293,0);
},
{
name = top;
pos = (404,705);
}
);
shapes = (
{
closed = 1;
nodes = (
(166,0,l),
(208,264,l),
(386,264,ls),
(566,264,o),
(663,355,o),
(663,509,cs),
(663,635,o),
(580,705,o),
(424,705,cs),
(150,705,l),
(38,0,l)
);
},
{
closed = 1;
nodes = (
(262,604,l),
(409,604,ls),
(496,604,o),
(539,571,o),
(539,499,cs),
(539,412,o),
(488,365,o),
(392,365,cs),
(224,365,l)
);
}
);
};
layerId = "8FF16B21-C988-4EC9-A448-39B9B4A4BD78";
shapes = (
{
closed = 1;
nodes = (
(145,-8,o),
(168,13,o),
(175,56,cs),
(208,264,l),
(386,264,ls),
(566,264,o),
(656,338,o),
(656,492,cs),
(656,583,o),
(580,670,o),
(424,670,cs),
(209,670,ls),
(167,670,o),
(142,650,o),
(135,607,cs),
(49,67,ls),
(42,20,o),
(62,-8,o),
(103,-8,cs)
);
},
{
closed = 1;
nodes = (
(257,569,l),
(409,569,ls),
(496,569,o),
(532,524,o),
(532,482,cs),
(532,395,o),
(488,365,o),
(392,365,cs),
(224,365,l)
);
}
);
width = 652;
}
);
unicode = 80;
userData = {
anchors = (
);
b = {
};
com.typemytype.robofont.layerData = {
b = {
anchors = (
);
components = (
);
contours = (
{
points = (
{
segmentType = curve;
smooth = 1;
x = 266;
y = 0;
},
{
segmentType = line;
smooth = 1;
x = 1035;
y = 0;
},
{
smooth = 0;
x = 1084;
y = 0;
},
{
smooth = 0;
x = 1108;
y = 34;
},
{
segmentType = curve;
smooth = 1;
x = 1108;
y = 71;
},
{
smooth = 0;
x = 1108;
y = 107;
},
{
smooth = 0;
x = 1084;
y = 141;
},
{
segmentType = curve;
smooth = 1;
x = 1035;
y = 141;
},
{
segmentType = line;
smooth = 0;
x = 356;
y = 141;
},
{
segmentType = line;
smooth = 0;
x = 356;
y = 665;
},
{
segmentType = line;
smooth = 1;
x = 975;
y = 665;
},
{
smooth = 0;
x = 1024;
y = 665;
},
{
smooth = 0;
x = 1049;
y = 698;
},
{
segmentType = curve;
smooth = 1;
x = 1049;
y = 734;
},
{
smooth = 0;
x = 1049;
y = 770;
},
{
smooth = 0;
x = 1026;
y = 803;
},
{
segmentType = curve;
smooth = 1;
x = 975;
y = 803;
},
{
segmentType = line;
smooth = 0;
x = 356;
y = 803;
},
{
segmentType = line;
smooth = 0;
x = 356;
y = 1285;
},
{
segmentType = line;
smooth = 1;
x = 1007;
y = 1285;
},
{
smooth = 0;
x = 1056;
y = 1285;
},
{
smooth = 0;
x = 1080;
y = 1319;
},
{
segmentType = curve;
smooth = 1;
x = 1080;
y = 1356;
},
{
smooth = 0;
x = 1080;
y = 1392;
},
{
smooth = 0;
x = 1056;
y = 1426;
},
{
segmentType = curve;
smooth = 1;
x = 1007;
y = 1426;
},
{
segmentType = line;
smooth = 1;
x = 261;
y = 1426;
},
{
smooth = 0;
x = 213;
y = 1426;
},
{
smooth = 0;
x = 178;
y = 1383;
},
{
segmentType = curve;
smooth = 1;
x = 178;
y = 1340;
},
{
segmentType = line;
smooth = 1;
x = 178;
y = 86;
},
{
smooth = 0;
x = 178;
y = 41;
},
{
smooth = 0;
x = 222;
y = 0;
}
);
}
);
lib = {
};
name = P;
unicodes = (
);
width = 1201;
};
};
components = (
);
contours = (
);
lib = {
};
name = P;
unicodes = (
);
width = 1319;
};
}
{
color = 6;
glyphname = R;
kernLeft = H;
kernRight = R;
layers = (
{
anchors = (
{
name = bottom;
pos = (334,0);
},
{
name = top;
pos = (334,670);
}
);
background = {
anchors = (
{
name = bottom;
pos = (334,0);
},
{
name = top;
pos = (334,705);
}
);
shapes = (
{
closed = 1;
nodes = (
(138,0,l),
(138,312,l),
(295,312,ls),
(373,312,o),
(413,295,o),
(450,226,cs),
(572,0,l),
(618,0,l),
(487,242,ls),
(455,302,o),
(421,327,o),
(370,327,cs),
(362,327,l),
(351,315,l),
(495,315,o),
(580,385,o),
(580,508,cs),
(580,635,o),
(499,705,o),
(351,705,cs),
(96,705,l),
(96,0,l)
);
},
{
closed = 1;
nodes = (
(138,666,l),
(347,666,ls),
(473,666,o),
(536,612,o),
(536,509,cs),
(536,405,o),
(473,351,o),
(347,351,cs),
(138,351,l)
);
}
);
};
layerId = "F1F93986-3ED8-4AAE-84C4-CA3EEECDDFA0";
shapes = (
{
closed = 1;
nodes = (
(131,-6,o),
(138,2,o),
(138,16,cs),
(138,308,l),
(275,308,ls),
(343,308,o),
(379,291,o),
(416,222,cs),
(531,10,ls),
(536,0,o),
(543,-6,o),
(555,-6,cs),
(569,-6,o),
(576,11,o),
(567,28,cs),
(453,238,ls),
(421,298,o),
(391,320,o),
(340,320,cs),
(332,320,l),
(321,308,l),
(465,308,o),
(560,368,o),
(560,491,cs),
(560,614,o),
(479,670,o),
(331,670,cs),
(118,670,ls),
(104,670,o),
(96,662,o),
(96,648,cs),
(96,16,ls),
(96,2,o),
(104,-6,o),
(117,-6,cs)
);
},
{
closed = 1;
nodes = (
(138,631,l),
(327,631,ls),
(453,631,o),
(516,591,o),
(516,492,cs),
(516,388,o),
(453,347,o),
(327,347,cs),
(138,347,l)
);
}
);
width = 654;
},
{
anchors = (
{
name = bottom;
pos = (363,0);
},
{
name = top;
pos = (362,670);
}
);
background = {
anchors = (
{
name = bottom;
pos = (363,0);
},
{
name = top;
pos = (362,705);
}
);
shapes = (
{
closed = 1;
nodes = (
(272,0,l),
(272,252,l),
(305,252,ls),
(326,252,o),
(348,243,o),
(359,224,cs),
(482,0,l),
(718,0,l),
(613,191,ls),
(583,245,o),
(537,273,o),
(479,273,cs),
(422,273,l),
(415,254,l),
(578,254,o),
(670,340,o),
(670,479,cs),
(670,619,o),
(577,705,o),
(415,705,cs),
(57,705,l),
(57,0,l)
);
},
{
closed = 1;
nodes = (
(272,541,l),
(375,541,ls),
(433,541,o),
(466,519,o),
(466,472,cs),
(466,424,o),
(433,402,o),
(375,402,cs),
(272,402,l)
);
}
);
};
layerId = "4121B50C-FD42-45C5-8FBE-41E76D98F91E";
shapes = (
{
closed = 1;
nodes = (
(235,-10,o),
(272,29,o),
(272,99,cs),
(272,252,l),
(305,252,ls),
(340,252,o),
(342,244,o),
(353,224,cs),
(439,67,ls),
(468,13,o),
(504,-10,o),
(564,-10,cs),
(657,-10,o),
(680,60,o),
(642,128,cs),
(607,191,ls),
(551,292,o),
(540,273,o),
(473,273,cs),
(416,273,l),
(409,254,l),
(572,254,o),
(670,323,o),
(670,462,cs),
(670,602,o),
(577,670,o),
(415,670,cs),
(166,670,ls),
(96,670,o),
(57,631,o),
(57,561,cs),
(57,99,ls),
(57,29,o),
(96,-10,o),
(165,-10,cs)
);
},
{
closed = 1;
nodes = (
(272,524,l),
(375,524,ls),
(433,524,o),
(466,502,o),
(466,455,cs),
(466,407,o),
(433,385,o),
(375,385,cs),
(272,385,l)
);
}
);
width = 718;
},
{
anchors = (
{
name = bottom;
pos = (305,0);
},
{
name = top;
pos = (395,670);
}
);
background = {
anchors = (
{
name = bottom;
pos = (305,0);
},
{
name = top;
pos = (395,705);
}
);
shapes = (
{
closed = 1;
nodes = (
(100,0,l),
(149,312,l),
(317,312,ls),
(395,312,o),
(429,288,o),
(455,221,cs),
(539,0,l),
(580,0,l),
(491,234,ls),
(468,294,o),
(434,327,o),
(381,327,cs),
(373,327,l),
(373,316,l),
(515,312,o),
(621,385,o),
(621,520,cs),
(621,634,o),
(549,705,o),
(401,705,cs),
(170,705,l),
(58,0,l)
);
},
{
closed = 1;
nodes = (
(206,666,l),
(401,666,ls),
(523,666,o),
(577,616,o),
(577,519,cs),
(577,412,o),
(504,351,o),
(383,351,cs),
(156,351,l)
);
}
);
};
layerId = "D8D4984A-F5A5-43C0-BF2B-5708C10C5E92";
shapes = (
{
closed = 1;
nodes = (
(93,-6,o),
(100,1,o),
(102,15,cs),
(149,312,l),
(317,312,ls),
(395,312,o),
(429,288,o),
(455,221,cs),
(535,12,ls),
(540,-1,o),
(546,-6,o),
(557,-6,cs),
(573,-6,o),
(578,5,o),
(571,24,cs),
(491,234,ls),
(468,294,o),
(434,327,o),
(381,327,cs),
(373,327,l),
(373,316,l),
(515,312,o),
(613,368,o),
(613,503,cs),
(613,617,o),
(549,670,o),
(401,670,cs),
(191,670,ls),
(177,670,o),
(169,663,o),
(167,649,cs),
(62,19,ls),
(59,3,o),
(66,-6,o),
(79,-6,cs)
);
},
{
closed = 1;
nodes = (
(206,631,l),
(401,631,ls),
(523,631,o),
(569,599,o),
(569,502,cs),
(569,395,o),
(504,351,o),
(383,351,cs),
(156,351,l)
);
}
);
width = 654;
},
{
anchors = (
{
name = bottom;
pos = (326,0);
},
{
name = top;
pos = (420,670);
}
);
background = {
anchors = (
{
name = bottom;
pos = (326,0);
},
{
name = top;
pos = (420,705);
}
);
shapes = (
{
closed = 1;
nodes = (
(233,0,l),
(273,252,l),
(310,252,ls),
(339,252,o),
(356,240,o),
(367,210,cs),
(446,0,l),
(667,0,l),
(603,166,ls),
(578,231,o),
(535,273,o),
(463,273,cs),
(419,273,l),
(419,254,l),
(584,254,o),
(705,327,o),
(705,500,cs),
(705,628,o),
(612,705,o),
(449,705,cs),
(130,705,l),
(18,0,l)
);
},
{
closed = 1;
nodes = (
(319,541,l),
(411,541,ls),
(473,541,o),
(501,521,o),
(501,480,cs),
(501,427,o),
(469,402,o),
(408,402,cs),
(297,402,l)
);
}
);
};
layerId = "C92D7C27-2246-4784-91DF-7F4E0C5E615D";
shapes = (
{
closed = 1;
nodes = (
(196,-10,o),
(238,25,o),
(249,97,cs),
(273,252,l),
(310,252,ls),
(339,252,o),
(356,240,o),
(367,210,cs),
(415,83,ls),
(439,18,o),
(470,-10,o),
(529,-10,cs),
(621,-10,o),
(652,41,o),
(619,125,cs),
(603,166,ls),
(578,231,o),
(535,273,o),
(463,273,cs),
(419,273,l),
(419,254,l),
(584,254,o),
(700,310,o),
(700,483,cs),
(700,611,o),
(607,670,o),
(444,670,cs),
(233,670,ls),
(161,670,o),
(119,635,o),
(108,563,cs),
(37,116,ls),
(24,36,o),
(57,-10,o),
(125,-10,cs)
);
},
{
closed = 1;
nodes = (
(316,524,l),
(408,524,ls),
(470,524,o),
(498,504,o),
(498,463,cs),
(498,410,o),
(466,385,o),
(405,385,cs),
(294,385,l)
);
}
);
width = 718;
},
{
anchors = (
{
name = bottom;
pos = (349,0);
},
{
name = top;
pos = (348,670);
}
);
background = {
anchors = (
{
name = bottom;
pos = (349,0);
},
{
name = top;
pos = (348,705);
}
);
shapes = (
{
closed = 1;
nodes = (
(205,0,l),
(205,282,l),
(300,282,ls),
(350,282,o),
(381,269,o),
(405,225,cs),
(527,0,l),
(668,0,l),
(550,217,ls),
(519,274,o),
(479,300,o),
(425,300,cs),
(392,300,l),
(383,285,l),
(537,285,o),
(625,363,o),
(625,494,cs),
(625,627,o),
(538,705,o),
(383,705,cs),
(77,705,l),
(77,0,l)
);
},
{
closed = 1;
nodes = (
(205,604,l),
(361,604,ls),
(453,604,o),
(501,566,o),
(501,491,cs),
(501,415,o),
(453,377,o),
(361,377,cs),
(205,377,l)
);
}
);
};
layerId = "18203F29-5161-4D9B-8394-C173CC5E27D4";
shapes = (
{
closed = 1;
nodes = (
(183,-8,o),
(205,16,o),
(205,58,cs),
(205,282,l),
(295,282,ls),
(350,282,o),
(352,270,o),
(376,225,cs),
(477,39,ls),
(494,7,o),
(515,-8,o),
(551,-8,cs),
(605,-8,o),
(619,35,o),
(596,78,cs),
(521,217,ls),
(474,304,o),
(468,300,o),
(420,300,cs),
(387,300,l),
(378,285,l),
(532,285,o),
(613,353,o),
(613,477,cs),
(613,598,o),
(538,670,o),
(383,670,cs),
(142,670,ls),
(100,670,o),
(77,647,o),
(77,605,cs),
(77,58,ls),
(77,16,o),
(100,-8,o),
(141,-8,cs)
);
},
{
closed = 1;
nodes = (
(205,569,l),
(361,569,ls),
(453,569,o),
(489,549,o),
(489,474,cs),
(489,398,o),
(453,377,o),
(361,377,cs),
(205,377,l)
);
}
);
width = 678;
},
{
anchors = (
{
name = bottom;
pos = (316,0);
},
{
name = top;
pos = (408,670);
}
);
background = {
anchors = (
{
name = bottom;
pos = (316,0);
},
{
name = top;
pos = (408,705);
}
);
shapes = (
{
closed = 1;
nodes = (
(167,0,l),
(211,282,l),
(314,282,ls),
(367,282,o),
(393,264,o),
(411,216,cs),
(493,0,l),
(624,0,l),
(547,200,ls),
(523,263,o),
(485,300,o),
(422,300,cs),
(396,300,l),
(396,285,l),
(550,283,o),
(663,356,o),
(663,510,cs),
(663,631,o),
(581,705,o),
(425,705,cs),
(150,705,l),
(38,0,l)
);
},
{
closed = 1;
nodes = (
(262,604,l),
(406,604,ls),
(498,604,o),
(539,569,o),
(539,500,cs),
(539,420,o),
(487,377,o),
(396,377,cs),
(226,377,l)
);
}
);
};
layerId = "8FF16B21-C988-4EC9-A448-39B9B4A4BD78";
shapes = (
{
closed = 1;
nodes = (
(145,-8,o),
(169,13,o),
(176,56,cs),
(211,282,l),
(314,282,ls),
(367,282,o),
(393,264,o),
(411,216,cs),
(475,48,ls),
(490,9,o),
(508,-8,o),
(543,-8,cs),
(597,-8,o),
(615,23,o),
(595,75,cs),
(547,200,ls),
(523,263,o),
(485,300,o),
(422,300,cs),
(396,300,l),
(396,285,l),
(550,283,o),
(657,339,o),
(657,493,cs),
(657,614,o),
(581,670,o),
(425,670,cs),
(209,670,ls),
(166,670,o),
(141,649,o),
(134,606,cs),
(49,68,ls),
(41,20,o),
(62,-8,o),
(102,-8,cs)
);
},
{
closed = 1;
nodes = (
(256,569,l),
(406,569,ls),
(498,569,o),
(533,552,o),
(533,483,cs),
(533,403,o),
(487,377,o),
(396,377,cs),
(226,377,l)
);
}
);
width = 686;
}
);
unicode = 82;
userData = {
anchors = (
);
b = {
};
com.typemytype.robofont.guides = (
);
com.typemytype.robofont.layerData = {
b = {
anchors = (
);
components = (
);
contours = (
{
points = (
{
segmentType = curve;
smooth = 1;
x = 267;
y = 0;
},
{
smooth = 0;
x = 311;
y = 0;
},
{
smooth = 0;
x = 356;
y = 27;
},
{
segmentType = curve;
smooth = 1;
x = 356;
y = 84;
},
{
segmentType = line;
smooth = 0;
x = 356;
y = 628;
},
{
segmentType = line;
smooth = 1;
x = 669;
y = 628;
},
{
smooth = 0;
x = 962;
y = 628;
},
{
smooth = 0;
x = 1182;
y = 722;
},
{
segmentType = curve;
smooth = 1;
x = 1182;
y = 1026;
},
{
smooth = 0;
x = 1182;
y = 1324;
},
{
smooth = 0;
x = 993;
y = 1426;
},
{
segmentType = curve;
smooth = 1;
x = 684;
y = 1426;
},
{
segmentType = line;
smooth = 1;
x = 268;
y = 1426;
},
{
smooth = 0;
x = 217;
y = 1426;
},
{
smooth = 0;
x = 178;
y = 1387;
},
{
segmentType = curve;
smooth = 1;
x = 178;
y = 1339;
},
{
segmentType = line;
smooth = 1;
x = 178;
y = 84;
},
{
smooth = 0;
x = 178;
y = 28;
},
{
smooth = 0;
x = 222;
y = 0;
}
);
},
{
points = (
{
segmentType = line;
smooth = 0;
x = 356;
y = 764;
},
{
segmentType = line;
smooth = 0;
x = 356;
y = 1285;
},
{
segmentType = line;
smooth = 1;
x = 684;
y = 1285;
},
{
smooth = 0;
x = 914;
y = 1285;
},
{
smooth = 0;
x = 1008;
y = 1210;
},
{
segmentType = curve;
smooth = 1;
x = 1008;
y = 1026;
},
{
smooth = 0;
x = 1008;
y = 838;
},
{
smooth = 0;
x = 901;
y = 764;
},
{
segmentType = curve;
smooth = 1;
x = 670;
y = 764;
}
);
}
);
lib = {
};
name = R;
unicodes = (
);
width = 1363;
};
};
components = (
);
contours = (
);
lib = {
};
name = R;
unicodes = (
);
width = 1408;
};
}
